<svg width="345" height="446" viewBox="0 0 345 446" fill="none" xmlns="http://www.w3.org/2000/svg">
<rect x="27" y="109" width="299" height="136" fill="#00A499"/>
<path d="M141.928 101.782L148.849 109L26.5001 227.104L26.5001 212.965L141.928 101.782Z" fill="#30B4AB"/>
<path d="M114.079 100.631L121 107.849L26.2136 199.682L26.4883 182.682L114.079 100.631Z" fill="#30B4AB"/>
<path d="M98.3449 84.3646L105.266 91.5824L26.2134 167.682L26.4881 150.682L98.3449 84.3646Z" fill="#30B4AB"/>
<path d="M43 103.5L54.3152 110.5L26.2138 135.649L26.4885 118.649L43 103.5Z" fill="#30B4AB"/>
<rect x="256.137" y="101.304" width="10" height="207.291" transform="rotate(46.2014 256.137 101.304)" fill="#30B4AB"/>
<rect x="200.677" y="100.145" width="10" height="211.054" transform="rotate(46.2014 200.677 100.145)" fill="#30B4AB"/>
<rect x="312.171" y="101.589" width="10" height="206.379" transform="rotate(46.2014 312.171 101.589)" fill="#30B4AB"/>
<path d="M326.845 171.182L325.498 186.5L254.029 252.705L247.108 245.488L326.845 171.182Z" fill="#30B4AB"/>
<path d="M325.845 200.182L325.845 214.136L285.535 251.603L278.614 244.385L325.845 200.182Z" fill="#30B4AB"/>
<path d="M326.3 230.5L326.3 244.453L316.308 251.603L309.386 244.385L326.3 230.5Z" fill="#30B4AB"/>
<path d="M175.5 96.9781L182.421 104.196L33.5716 247.218L26.6504 240L175.5 96.9781Z" fill="#30B4AB"/>
<rect x="285.048" y="100.43" width="10" height="209.915" transform="rotate(46.2014 285.048 100.43)" fill="#30B4AB"/>
<path d="M326.5 143.21L326.5 157.241L225.9 252.512L218.978 245.294L326.5 143.21Z" fill="#30B4AB"/>
<rect x="229.524" y="99.3329" width="10" height="209.933" transform="rotate(46.2014 229.524 99.3329)" fill="#30B4AB"/>
<path d="M326 114.476L326 128.616L198.011 251.764L191.09 244.546L326 114.476Z" fill="#30B4AB"/>
<rect x="27" y="245" width="299" height="32" fill="#FFB81C"/>
<rect x="27" y="54" width="299" height="55" fill="#FFB81C"/>
<line x1="8.5" y1="37.9805" x2="8.5" y2="11.9938" stroke="black"/>
<line x1="8" y1="11.5" x2="28" y2="11.5" stroke="black"/>
<path d="M46.256 18H44.016V13.104L39.536 13.104V18H37.296V6.832L39.536 6.832V11.344L44.016 11.344V6.832L46.256 6.832V18ZM55.5629 18H53.6749C53.6109 17.696 53.5949 17.136 53.5789 16.768H53.5469C53.0669 17.648 52.0269 18.192 51.0029 18.192C49.5149 18.192 48.1229 17.296 48.1229 15.728C48.1229 14.304 48.9389 12.912 52.1549 12.912L53.4829 12.912V12.88C53.4829 11.504 52.7789 11.136 51.6269 11.136C50.7149 11.136 49.8029 11.488 49.0829 12.032L49.0189 10.192C49.7869 9.84 50.8909 9.568 51.8829 9.568C54.3469 9.568 55.4349 10.56 55.4349 13.04V14.736C55.4349 15.168 55.4669 16.896 55.5629 18ZM53.4829 14.288V14.192L52.5389 14.192C51.0189 14.192 50.1709 14.64 50.1709 15.616C50.1709 16.256 50.6669 16.624 51.5309 16.624C52.4909 16.624 53.4829 15.968 53.4829 14.288ZM64.1495 15.792V17.536C63.3655 17.968 62.4695 18.192 61.3335 18.192C58.5975 18.192 57.0135 16.624 57.0135 13.92C57.0135 11.616 58.2135 9.568 60.8375 9.568C63.6375 9.568 64.7575 11.296 64.7575 14.544L59.0615 14.544C59.1575 15.84 60.0375 16.624 61.4295 16.624C62.4535 16.624 63.3495 16.24 64.1495 15.792ZM59.0615 13.072H62.7095C62.6295 11.888 62.0695 11.136 60.9495 11.136C59.8775 11.136 59.1735 11.84 59.0615 13.072ZM78.4961 18H76.3521V12.864C76.3521 11.632 75.8881 11.232 75.1201 11.232C74.0321 11.232 73.5201 12.24 73.5201 13.968V18H71.3761V12.864C71.3761 11.664 70.9441 11.232 70.1441 11.232C69.0241 11.232 68.5441 12.288 68.5441 13.952V18H66.4001V9.76H68.4001V10.912H68.4321C68.9921 10.08 69.8561 9.568 70.8961 9.568C72.0321 9.568 72.8481 10 73.3121 11.024C73.7601 10.112 74.7681 9.568 75.9041 9.568C77.6481 9.568 78.4961 10.624 78.4961 12.768V18ZM88.7469 13.936C88.7469 16.384 87.0829 18.192 84.4269 18.192C81.7709 18.192 80.1229 16.368 80.1229 13.936C80.1229 11.296 81.9149 9.568 84.4269 9.568C86.9389 9.568 88.7469 11.28 88.7469 13.936ZM84.4269 16.528C85.8189 16.528 86.5069 15.456 86.5069 13.68C86.5069 12.368 85.8029 11.232 84.4269 11.232C83.0829 11.232 82.3629 12.384 82.3629 13.68C82.3629 15.424 83.0349 16.528 84.4269 16.528ZM95.8561 16.88V16.688H95.8241C95.3601 17.488 94.3521 18 93.2641 18C90.9921 18 89.9041 16.272 89.9041 13.84C89.9041 11.856 90.9281 9.568 93.3921 9.568C94.4801 9.568 95.3281 9.936 95.9201 10.88H95.9521V9.76L98.0001 9.76V17.232C98.0001 20.016 96.5601 21.552 93.6801 21.552C92.8481 21.552 91.8561 21.44 90.8001 20.992L90.9761 19.168C91.7281 19.568 92.7521 19.888 93.3921 19.888C95.4081 19.888 95.8561 18.592 95.8561 16.88ZM93.9681 16.336C95.3441 16.336 95.8561 15.12 95.8561 13.792C95.8561 12.528 95.4081 11.232 94.0481 11.232C92.7681 11.232 92.1441 12.336 92.1441 13.84C92.1441 14.96 92.7361 16.336 93.9681 16.336ZM102.405 18H100.261V6H102.405V18ZM112.763 13.936C112.763 16.384 111.099 18.192 108.443 18.192C105.787 18.192 104.139 16.368 104.139 13.936C104.139 11.296 105.931 9.568 108.443 9.568C110.955 9.568 112.763 11.28 112.763 13.936ZM108.443 16.528C109.835 16.528 110.523 15.456 110.523 13.68C110.523 12.368 109.819 11.232 108.443 11.232C107.099 11.232 106.379 12.384 106.379 13.68C106.379 15.424 107.051 16.528 108.443 16.528ZM116.528 18H114.448V6L116.592 6V10.816H116.624C117.216 10.032 117.968 9.568 119.088 9.568C121.392 9.568 122.544 11.28 122.544 13.856C122.544 16.272 121.504 18.192 119.088 18.192C117.984 18.192 117.088 17.744 116.56 16.992H116.528V18ZM118.496 16.528C119.84 16.528 120.304 15.104 120.304 13.856C120.304 12.576 119.824 11.232 118.528 11.232C117.184 11.232 116.608 12.656 116.608 13.856C116.608 15.136 117.136 16.528 118.496 16.528ZM126.421 8.256H124.277V6.208H126.421V8.256ZM126.421 18H124.277V9.76H126.421V18ZM136.25 18L134.106 18V13.376C134.106 12.144 133.85 11.232 132.714 11.232C131.354 11.232 130.826 12.544 130.826 14V18H128.682V9.76L130.714 9.76V10.88H130.746C131.402 9.952 132.314 9.568 133.45 9.568C135.338 9.568 136.25 10.864 136.25 12.8V18ZM153.221 18H150.741L149.781 15.44H145.253L144.277 18H141.957L146.309 6.832H148.837L153.221 18ZM149.157 13.68L147.541 9.072H147.509L145.893 13.68H149.157ZM159.871 18H157.631V9.376L155.743 10.912L154.623 9.456L157.887 6.832H159.871V18ZM168.938 16.144L169.034 17.92C168.394 18.112 167.786 18.192 166.906 18.192C164.33 18.192 162.826 16.528 162.826 13.84C162.826 11.376 164.298 9.568 166.826 9.568C167.658 9.568 168.298 9.664 168.89 9.84L168.698 11.536C168.282 11.344 167.85 11.232 167.258 11.232C165.914 11.232 165.066 12.288 165.066 13.84C165.066 15.44 165.85 16.528 167.29 16.528C167.754 16.528 168.378 16.384 168.938 16.144ZM179.029 20.24H176.997C175.205 17.792 174.437 15.52 174.437 13.072C174.437 10.528 175.109 8.48 176.997 5.904H179.029C177.317 8.592 176.709 10.624 176.709 13.056C176.709 15.472 177.413 17.68 179.029 20.24ZM189.397 18H187.157V13.104L182.677 13.104V18H180.437V6.832L182.677 6.832V11.344L187.157 11.344V6.832L189.397 6.832V18ZM193.872 18H191.792V6L193.936 6V10.816H193.968C194.56 10.032 195.312 9.568 196.432 9.568C198.736 9.568 199.888 11.28 199.888 13.856C199.888 16.272 198.848 18.192 196.432 18.192C195.328 18.192 194.432 17.744 193.904 16.992H193.872V18ZM195.84 16.528C197.184 16.528 197.648 15.104 197.648 13.856C197.648 12.576 197.168 11.232 195.872 11.232C194.528 11.232 193.952 12.656 193.952 13.856C193.952 15.136 194.48 16.528 195.84 16.528ZM211.877 18H209.397L208.437 15.44L203.909 15.44L202.933 18L200.613 18L204.965 6.832H207.493L211.877 18ZM207.813 13.68L206.197 9.072H206.165L204.549 13.68L207.813 13.68ZM218.528 18H216.288V9.376L214.4 10.912L213.28 9.456L216.544 6.832H218.528V18ZM227.594 16.144L227.69 17.92C227.05 18.112 226.442 18.192 225.562 18.192C222.986 18.192 221.482 16.528 221.482 13.84C221.482 11.376 222.954 9.568 225.482 9.568C226.314 9.568 226.954 9.664 227.546 9.84L227.354 11.536C226.938 11.344 226.506 11.232 225.914 11.232C224.57 11.232 223.722 12.288 223.722 13.84C223.722 15.44 224.506 16.528 225.946 16.528C226.41 16.528 227.034 16.384 227.594 16.144ZM230.144 20.24H228.128C229.744 17.664 230.448 15.456 230.448 13.072C230.448 10.704 229.872 8.656 228.128 5.904H230.144C232.048 8.512 232.72 10.576 232.72 13.072C232.72 15.552 231.92 17.792 230.144 20.24ZM242.565 14.576L238.357 14.576V12.816L242.565 12.816V14.576ZM252.794 20.24H250.762C248.97 17.792 248.202 15.52 248.202 13.072C248.202 10.528 248.874 8.48 250.762 5.904H252.794C251.082 8.592 250.474 10.624 250.474 13.056C250.474 15.472 251.178 17.68 252.794 20.24ZM266.074 18H263.93V12.864C263.93 11.632 263.466 11.232 262.698 11.232C261.61 11.232 261.098 12.24 261.098 13.968V18H258.954V12.864C258.954 11.664 258.522 11.232 257.722 11.232C256.602 11.232 256.122 12.288 256.122 13.952V18H253.978V9.76H255.978V10.912H256.01C256.57 10.08 257.434 9.568 258.474 9.568C259.61 9.568 260.426 10 260.89 11.024C261.338 10.112 262.346 9.568 263.482 9.568C265.226 9.568 266.074 10.624 266.074 12.768V18ZM280.293 18H278.149V12.864C278.149 11.632 277.685 11.232 276.917 11.232C275.829 11.232 275.317 12.24 275.317 13.968V18H273.173V12.864C273.173 11.664 272.741 11.232 271.941 11.232C270.821 11.232 270.341 12.288 270.341 13.952V18H268.197V9.76H270.197V10.912H270.229C270.789 10.08 271.653 9.568 272.693 9.568C273.829 9.568 274.645 10 275.109 11.024C275.557 10.112 276.565 9.568 277.701 9.568C279.445 9.568 280.293 10.624 280.293 12.768V18ZM290.544 13.936C290.544 16.384 288.88 18.192 286.224 18.192C283.568 18.192 281.92 16.368 281.92 13.936C281.92 11.296 283.712 9.568 286.224 9.568C288.736 9.568 290.544 11.28 290.544 13.936ZM286.224 16.528C287.616 16.528 288.304 15.456 288.304 13.68C288.304 12.368 287.6 11.232 286.224 11.232C284.88 11.232 284.16 12.384 284.16 13.68C284.16 15.424 284.832 16.528 286.224 16.528ZM294.421 18H292.277V6L294.421 6V18ZM297.578 18.192H295.914L299.818 6.64H301.482L297.578 18.192ZM314.965 18H312.821V12.864C312.821 11.632 312.357 11.232 311.589 11.232C310.501 11.232 309.989 12.24 309.989 13.968V18H307.845V12.864C307.845 11.664 307.413 11.232 306.613 11.232C305.493 11.232 305.013 12.288 305.013 13.952V18H302.869V9.76H304.869V10.912H304.901C305.461 10.08 306.325 9.568 307.365 9.568C308.501 9.568 309.317 10 309.781 11.024C310.229 10.112 311.237 9.568 312.373 9.568C314.117 9.568 314.965 10.624 314.965 12.768V18ZM325.216 13.936C325.216 16.384 323.552 18.192 320.896 18.192C318.24 18.192 316.592 16.368 316.592 13.936C316.592 11.296 318.384 9.568 320.896 9.568C323.408 9.568 325.216 11.28 325.216 13.936ZM320.896 16.528C322.288 16.528 322.976 15.456 322.976 13.68C322.976 12.368 322.272 11.232 320.896 11.232C319.552 11.232 318.832 12.384 318.832 13.68C318.832 15.424 319.504 16.528 320.896 16.528ZM329.093 18H326.949V6H329.093V18ZM332.378 20.24H330.362C331.978 17.664 332.682 15.456 332.682 13.072C332.682 10.704 332.106 8.656 330.362 5.904L332.378 5.904C334.282 8.512 334.954 10.576 334.954 13.072C334.954 15.552 334.154 17.792 332.378 20.24Z" fill="#212B32"/>
<line x1="26.5" y1="53" x2="26.5" y2="278" stroke="black"/>
<line x1="21" y1="245.327" x2="26" y2="245.327" stroke="black"/>
<line x1="21" y1="213.344" x2="26" y2="213.344" stroke="black"/>
<line x1="21" y1="181.36" x2="26" y2="181.36" stroke="black"/>
<line x1="21" y1="149.376" x2="26" y2="149.376" stroke="black"/>
<line x1="21" y1="117.393" x2="26" y2="117.393" stroke="black"/>
<line x1="21" y1="85.4092" x2="26" y2="85.4092" stroke="black"/>
<line x1="21" y1="53.4258" x2="26" y2="53.4258" stroke="black"/>
<path d="M7.34863 249.794V250.833H0.833984L0.833984 249.924L4.09473 246.294C4.49577 245.847 4.80566 245.469 5.02441 245.159C5.24772 244.845 5.40267 244.564 5.48926 244.318C5.5804 244.068 5.62598 243.812 5.62598 243.553C5.62598 243.225 5.55762 242.928 5.4209 242.664C5.28874 242.395 5.09277 242.181 4.83301 242.021C4.57324 241.862 4.25879 241.782 3.88965 241.782C3.44759 241.782 3.07845 241.869 2.78223 242.042C2.49056 242.211 2.27181 242.448 2.12598 242.753C1.98014 243.058 1.90723 243.409 1.90723 243.806H0.642578C0.642578 243.245 0.765625 242.732 1.01172 242.268C1.25781 241.803 1.6224 241.434 2.10547 241.16C2.58854 240.882 3.18327 240.743 3.88965 240.743C4.51855 240.743 5.05632 240.855 5.50293 241.078C5.94954 241.297 6.29134 241.607 6.52832 242.008C6.76986 242.404 6.89063 242.869 6.89063 243.402C6.89063 243.694 6.84049 243.99 6.74023 244.291C6.64453 244.587 6.51009 244.883 6.33691 245.18C6.16829 245.476 5.97005 245.768 5.74219 246.055C5.51888 246.342 5.27962 246.624 5.02441 246.902L2.3584 249.794H7.34863ZM14.9502 245.063V246.581C14.9502 247.397 14.8773 248.085 14.7314 248.646C14.5856 249.206 14.376 249.657 14.1025 249.999C13.8291 250.341 13.4987 250.589 13.1113 250.744C12.7285 250.895 12.2956 250.97 11.8125 250.97C11.4297 250.97 11.0765 250.922 10.7529 250.826C10.4294 250.73 10.1377 250.578 9.87793 250.368C9.62272 250.154 9.40397 249.876 9.22168 249.534C9.03939 249.192 8.90039 248.778 8.80469 248.29C8.70898 247.802 8.66113 247.233 8.66113 246.581V245.063C8.66113 244.248 8.73405 243.564 8.87988 243.013C9.03027 242.461 9.24219 242.019 9.51562 241.687C9.78906 241.349 10.1172 241.108 10.5 240.962C10.8874 240.816 11.3203 240.743 11.7988 240.743C12.1862 240.743 12.5417 240.791 12.8652 240.887C13.1934 240.978 13.485 241.126 13.7402 241.331C13.9954 241.532 14.2119 241.8 14.3896 242.138C14.5719 242.47 14.7109 242.878 14.8066 243.361C14.9023 243.844 14.9502 244.412 14.9502 245.063ZM13.6787 246.786V244.852C13.6787 244.405 13.6514 244.013 13.5967 243.676C13.5465 243.334 13.4714 243.042 13.3711 242.801C13.2708 242.559 13.1432 242.363 12.9883 242.213C12.8379 242.062 12.6624 241.953 12.4619 241.885C12.266 241.812 12.0449 241.775 11.7988 241.775C11.498 241.775 11.2314 241.832 10.999 241.946C10.7666 242.056 10.5706 242.231 10.4111 242.473C10.2562 242.714 10.1377 243.031 10.0557 243.423C9.97363 243.815 9.93262 244.291 9.93262 244.852V246.786C9.93262 247.233 9.95768 247.627 10.0078 247.969C10.0625 248.311 10.1423 248.607 10.2471 248.857C10.3519 249.104 10.4795 249.306 10.6299 249.466C10.7803 249.625 10.9535 249.744 11.1494 249.821C11.3499 249.894 11.571 249.931 11.8125 249.931C12.1224 249.931 12.3936 249.871 12.626 249.753C12.8584 249.634 13.0521 249.45 13.207 249.199C13.3665 248.944 13.485 248.618 13.5625 248.222C13.64 247.821 13.6787 247.342 13.6787 246.786Z" fill="black"/>
<path d="M4.9834 270.825L4.9834 280.833H3.71875L3.71875 272.404L1.16895 273.334V272.192L4.78516 270.825H4.9834ZM10.3018 276.096L9.29004 275.836L9.78906 270.88H14.8955V272.049H10.8623L10.5615 274.756C10.7438 274.651 10.974 274.553 11.252 274.462C11.5345 274.371 11.8581 274.325 12.2227 274.325C12.6829 274.325 13.0954 274.405 13.46 274.564C13.8245 274.719 14.1344 274.943 14.3896 275.234C14.6494 275.526 14.8477 275.877 14.9844 276.287C15.1211 276.697 15.1895 277.155 15.1895 277.661C15.1895 278.14 15.1234 278.579 14.9912 278.98C14.8636 279.382 14.6699 279.732 14.4102 280.033C14.1504 280.329 13.8223 280.56 13.4258 280.724C13.0339 280.888 12.5713 280.97 12.0381 280.97C11.637 280.97 11.2565 280.915 10.8965 280.806C10.541 280.692 10.222 280.521 9.93945 280.293C9.66146 280.061 9.43359 279.773 9.25586 279.432C9.08268 279.085 8.97331 278.68 8.92773 278.215H10.1309C10.1855 278.589 10.2949 278.903 10.459 279.158C10.623 279.413 10.8372 279.607 11.1016 279.739C11.3704 279.867 11.6826 279.931 12.0381 279.931C12.3389 279.931 12.6055 279.878 12.8379 279.773C13.0703 279.669 13.2663 279.518 13.4258 279.322C13.5853 279.126 13.7061 278.889 13.7881 278.611C13.8747 278.333 13.918 278.021 13.918 277.675C13.918 277.36 13.8747 277.069 13.7881 276.8C13.7015 276.531 13.5716 276.296 13.3984 276.096C13.2298 275.895 13.0225 275.74 12.7764 275.631C12.5303 275.517 12.2477 275.46 11.9287 275.46C11.5049 275.46 11.1836 275.517 10.9648 275.631C10.7507 275.745 10.5296 275.9 10.3018 276.096Z" fill="black"/>
<path d="M7.34863 217.811V218.85H0.833984L0.833984 217.94L4.09473 214.311C4.49577 213.864 4.80566 213.486 5.02441 213.176C5.24772 212.861 5.40267 212.581 5.48926 212.335C5.5804 212.084 5.62598 211.829 5.62598 211.569C5.62598 211.241 5.55762 210.945 5.4209 210.681C5.28874 210.412 5.09277 210.198 4.83301 210.038C4.57324 209.879 4.25879 209.799 3.88965 209.799C3.44759 209.799 3.07845 209.885 2.78223 210.059C2.49056 210.227 2.27181 210.464 2.12598 210.77C1.98014 211.075 1.90723 211.426 1.90723 211.822H0.642578C0.642578 211.262 0.765625 210.749 1.01172 210.284C1.25781 209.819 1.6224 209.45 2.10547 209.177C2.58854 208.899 3.18327 208.76 3.88965 208.76C4.51855 208.76 5.05632 208.871 5.50293 209.095C5.94954 209.313 6.29134 209.623 6.52832 210.024C6.76986 210.421 6.89063 210.886 6.89063 211.419C6.89063 211.711 6.84049 212.007 6.74023 212.308C6.64453 212.604 6.51009 212.9 6.33691 213.196C6.16829 213.493 5.97005 213.784 5.74219 214.071C5.51888 214.358 5.27962 214.641 5.02441 214.919L2.3584 217.811H7.34863ZM10.3018 214.112L9.29004 213.853L9.78906 208.896H14.8955V210.065H10.8623L10.5615 212.772C10.7438 212.668 10.974 212.57 11.252 212.479C11.5345 212.387 11.8581 212.342 12.2227 212.342C12.6829 212.342 13.0954 212.422 13.46 212.581C13.8245 212.736 14.1344 212.959 14.3896 213.251C14.6494 213.543 14.8477 213.894 14.9844 214.304C15.1211 214.714 15.1895 215.172 15.1895 215.678C15.1895 216.156 15.1234 216.596 14.9912 216.997C14.8636 217.398 14.6699 217.749 14.4102 218.05C14.1504 218.346 13.8223 218.576 13.4258 218.74C13.0339 218.904 12.5713 218.986 12.0381 218.986C11.637 218.986 11.2565 218.932 10.8965 218.822C10.541 218.708 10.222 218.537 9.93945 218.31C9.66146 218.077 9.43359 217.79 9.25586 217.448C9.08268 217.102 8.97331 216.696 8.92773 216.231H10.1309C10.1855 216.605 10.2949 216.92 10.459 217.175C10.623 217.43 10.8372 217.624 11.1016 217.756C11.3704 217.883 11.6826 217.947 12.0381 217.947C12.3389 217.947 12.6055 217.895 12.8379 217.79C13.0703 217.685 13.2663 217.535 13.4258 217.339C13.5853 217.143 13.7061 216.906 13.7881 216.628C13.8747 216.35 13.918 216.038 13.918 215.691C13.918 215.377 13.8747 215.085 13.7881 214.816C13.7015 214.548 13.5716 214.313 13.3984 214.112C13.2298 213.912 13.0225 213.757 12.7764 213.647C12.5303 213.534 12.2477 213.477 11.9287 213.477C11.5049 213.477 11.1836 213.534 10.9648 213.647C10.7507 213.761 10.5296 213.916 10.3018 214.112Z" fill="black"/>
<path d="M2.67285 181.268H3.5752C4.01725 181.268 4.38184 181.195 4.66895 181.049C4.96061 180.898 5.17708 180.696 5.31836 180.44C5.46419 180.181 5.53711 179.889 5.53711 179.565C5.53711 179.183 5.47331 178.861 5.3457 178.602C5.2181 178.342 5.02669 178.146 4.77148 178.014C4.51628 177.882 4.19271 177.815 3.80078 177.815C3.44531 177.815 3.13086 177.886 2.85742 178.027C2.58854 178.164 2.37663 178.36 2.22168 178.615C2.07129 178.87 1.99609 179.171 1.99609 179.518H0.731445C0.731445 179.012 0.859049 178.551 1.11426 178.137C1.36947 177.722 1.72721 177.392 2.1875 177.146C2.65234 176.899 3.1901 176.776 3.80078 176.776C4.40234 176.776 4.92871 176.883 5.37988 177.098C5.83105 177.307 6.18197 177.622 6.43262 178.041C6.68327 178.456 6.80859 178.973 6.80859 179.593C6.80859 179.843 6.74935 180.112 6.63086 180.399C6.51693 180.682 6.33691 180.946 6.09082 181.192C5.84928 181.438 5.53483 181.641 5.14746 181.801C4.76009 181.956 4.29525 182.033 3.75293 182.033H2.67285L2.67285 181.268ZM2.67285 182.307L2.67285 181.548H3.75293C4.38639 181.548 4.91048 181.623 5.3252 181.773C5.73991 181.924 6.06576 182.124 6.30273 182.375C6.54427 182.626 6.71289 182.901 6.80859 183.202C6.90885 183.498 6.95898 183.795 6.95898 184.091C6.95898 184.556 6.87923 184.968 6.71973 185.328C6.56478 185.688 6.34375 185.993 6.05664 186.244C5.77409 186.495 5.44141 186.684 5.05859 186.812C4.67578 186.939 4.25879 187.003 3.80762 187.003C3.37467 187.003 2.9668 186.941 2.58398 186.818C2.20573 186.695 1.87077 186.518 1.5791 186.285C1.28743 186.048 1.05957 185.759 0.895508 185.417C0.731445 185.071 0.649414 184.676 0.649414 184.234H1.91406C1.91406 184.581 1.98926 184.884 2.13965 185.144C2.2946 185.403 2.51335 185.606 2.7959 185.752C3.08301 185.893 3.42025 185.964 3.80762 185.964C4.19499 185.964 4.52767 185.898 4.80566 185.766C5.08822 185.629 5.30469 185.424 5.45508 185.15C5.61003 184.877 5.6875 184.533 5.6875 184.118C5.6875 183.703 5.60091 183.364 5.42773 183.1C5.25456 182.831 5.00846 182.632 4.68945 182.505C4.375 182.373 4.00358 182.307 3.5752 182.307H2.67285ZM14.9502 181.097V182.614C14.9502 183.43 14.8773 184.118 14.7314 184.679C14.5856 185.239 14.376 185.69 14.1025 186.032C13.8291 186.374 13.4987 186.622 13.1113 186.777C12.7285 186.928 12.2956 187.003 11.8125 187.003C11.4297 187.003 11.0765 186.955 10.7529 186.859C10.4294 186.764 10.1377 186.611 9.87793 186.401C9.62272 186.187 9.40397 185.909 9.22168 185.567C9.03939 185.226 8.90039 184.811 8.80469 184.323C8.70898 183.836 8.66113 183.266 8.66113 182.614V181.097C8.66113 180.281 8.73405 179.597 8.87988 179.046C9.03027 178.494 9.24219 178.052 9.51562 177.72C9.78906 177.382 10.1172 177.141 10.5 176.995C10.8874 176.849 11.3203 176.776 11.7988 176.776C12.1862 176.776 12.5417 176.824 12.8652 176.92C13.1934 177.011 13.485 177.159 13.7402 177.364C13.9954 177.565 14.2119 177.834 14.3896 178.171C14.5719 178.504 14.7109 178.911 14.8066 179.395C14.9023 179.878 14.9502 180.445 14.9502 181.097ZM13.6787 182.819V180.885C13.6787 180.438 13.6514 180.046 13.5967 179.709C13.5465 179.367 13.4714 179.076 13.3711 178.834C13.2708 178.592 13.1432 178.396 12.9883 178.246C12.8379 178.096 12.6624 177.986 12.4619 177.918C12.266 177.845 12.0449 177.809 11.7988 177.809C11.498 177.809 11.2314 177.866 10.999 177.979C10.7666 178.089 10.5706 178.264 10.4111 178.506C10.2562 178.747 10.1377 179.064 10.0557 179.456C9.97363 179.848 9.93262 180.324 9.93262 180.885V182.819C9.93262 183.266 9.95768 183.66 10.0078 184.002C10.0625 184.344 10.1423 184.64 10.2471 184.891C10.3519 185.137 10.4795 185.34 10.6299 185.499C10.7803 185.659 10.9535 185.777 11.1494 185.854C11.3499 185.927 11.571 185.964 11.8125 185.964C12.1224 185.964 12.3936 185.905 12.626 185.786C12.8584 185.668 13.0521 185.483 13.207 185.232C13.3665 184.977 13.485 184.651 13.5625 184.255C13.64 183.854 13.6787 183.375 13.6787 182.819Z" fill="black"/>
<path d="M2.67285 149.284H3.5752C4.01725 149.284 4.38184 149.211 4.66895 149.065C4.96061 148.915 5.17708 148.712 5.31836 148.457C5.46419 148.197 5.53711 147.906 5.53711 147.582C5.53711 147.199 5.47331 146.878 5.3457 146.618C5.2181 146.358 5.02669 146.162 4.77148 146.03C4.51628 145.898 4.19271 145.832 3.80078 145.832C3.44531 145.832 3.13086 145.903 2.85742 146.044C2.58854 146.181 2.37663 146.377 2.22168 146.632C2.07129 146.887 1.99609 147.188 1.99609 147.534H0.731445C0.731445 147.028 0.859049 146.568 1.11426 146.153C1.36947 145.739 1.72721 145.408 2.1875 145.162C2.65234 144.916 3.1901 144.793 3.80078 144.793C4.40234 144.793 4.92871 144.9 5.37988 145.114C5.83105 145.324 6.18197 145.638 6.43262 146.058C6.68327 146.472 6.80859 146.99 6.80859 147.609C6.80859 147.86 6.74935 148.129 6.63086 148.416C6.51693 148.699 6.33691 148.963 6.09082 149.209C5.84928 149.455 5.53483 149.658 5.14746 149.817C4.76009 149.972 4.29525 150.05 3.75293 150.05H2.67285L2.67285 149.284ZM2.67285 150.323L2.67285 149.564H3.75293C4.38639 149.564 4.91048 149.64 5.3252 149.79C5.73991 149.94 6.06576 150.141 6.30273 150.392C6.54427 150.642 6.71289 150.918 6.80859 151.219C6.90885 151.515 6.95898 151.811 6.95898 152.107C6.95898 152.572 6.87923 152.985 6.71973 153.345C6.56478 153.705 6.34375 154.01 6.05664 154.261C5.77409 154.511 5.44141 154.701 5.05859 154.828C4.67578 154.956 4.25879 155.02 3.80762 155.02C3.37467 155.02 2.9668 154.958 2.58398 154.835C2.20573 154.712 1.87077 154.534 1.5791 154.302C1.28743 154.065 1.05957 153.775 0.895508 153.434C0.731445 153.087 0.649414 152.693 0.649414 152.251H1.91406C1.91406 152.597 1.98926 152.9 2.13965 153.16C2.2946 153.42 2.51335 153.623 2.7959 153.769C3.08301 153.91 3.42025 153.98 3.80762 153.98C4.19499 153.98 4.52767 153.914 4.80566 153.782C5.08822 153.646 5.30469 153.44 5.45508 153.167C5.61003 152.894 5.6875 152.549 5.6875 152.135C5.6875 151.72 5.60091 151.381 5.42773 151.116C5.25456 150.847 5.00846 150.649 4.68945 150.521C4.375 150.389 4.00358 150.323 3.5752 150.323H2.67285ZM10.3018 150.146L9.29004 149.886L9.78906 144.93H14.8955V146.099H10.8623L10.5615 148.806C10.7438 148.701 10.974 148.603 11.252 148.512C11.5345 148.421 11.8581 148.375 12.2227 148.375C12.6829 148.375 13.0954 148.455 13.46 148.614C13.8245 148.769 14.1344 148.993 14.3896 149.284C14.6494 149.576 14.8477 149.927 14.9844 150.337C15.1211 150.747 15.1895 151.205 15.1895 151.711C15.1895 152.189 15.1234 152.629 14.9912 153.03C14.8636 153.431 14.6699 153.782 14.4102 154.083C14.1504 154.379 13.8223 154.609 13.4258 154.773C13.0339 154.938 12.5713 155.02 12.0381 155.02C11.637 155.02 11.2565 154.965 10.8965 154.855C10.541 154.742 10.222 154.571 9.93945 154.343C9.66146 154.11 9.43359 153.823 9.25586 153.481C9.08268 153.135 8.97331 152.729 8.92773 152.265H10.1309C10.1855 152.638 10.2949 152.953 10.459 153.208C10.623 153.463 10.8372 153.657 11.1016 153.789C11.3704 153.917 11.6826 153.98 12.0381 153.98C12.3389 153.98 12.6055 153.928 12.8379 153.823C13.0703 153.718 13.2663 153.568 13.4258 153.372C13.5853 153.176 13.7061 152.939 13.7881 152.661C13.8747 152.383 13.918 152.071 13.918 151.725C13.918 151.41 13.8747 151.118 13.7881 150.85C13.7015 150.581 13.5716 150.346 13.3984 150.146C13.2298 149.945 13.0225 149.79 12.7764 149.681C12.5303 149.567 12.2477 149.51 11.9287 149.51C11.5049 149.51 11.1836 149.567 10.9648 149.681C10.7507 149.795 10.5296 149.95 10.3018 150.146Z" fill="black"/>
<path d="M7.55371 119.55V120.589H0.362305L0.362305 119.844L4.81934 112.946H5.85156L4.74414 114.942L1.79785 119.55H7.55371ZM6.16602 112.946L6.16602 122.899H4.90137L4.90137 112.946H6.16602ZM14.9502 117.13V118.647C14.9502 119.463 14.8773 120.151 14.7314 120.712C14.5856 121.272 14.376 121.724 14.1025 122.065C13.8291 122.407 13.4987 122.656 13.1113 122.811C12.7285 122.961 12.2956 123.036 11.8125 123.036C11.4297 123.036 11.0765 122.988 10.7529 122.893C10.4294 122.797 10.1377 122.644 9.87793 122.435C9.62272 122.22 9.40397 121.942 9.22168 121.601C9.03939 121.259 8.90039 120.844 8.80469 120.356C8.70898 119.869 8.66113 119.299 8.66113 118.647V117.13C8.66113 116.314 8.73405 115.631 8.87988 115.079C9.03027 114.528 9.24219 114.086 9.51562 113.753C9.78906 113.416 10.1172 113.174 10.5 113.028C10.8874 112.882 11.3203 112.81 11.7988 112.81C12.1862 112.81 12.5417 112.857 12.8652 112.953C13.1934 113.044 13.485 113.192 13.7402 113.397C13.9954 113.598 14.2119 113.867 14.3896 114.204C14.5719 114.537 14.7109 114.945 14.8066 115.428C14.9023 115.911 14.9502 116.478 14.9502 117.13ZM13.6787 118.853V116.918C13.6787 116.471 13.6514 116.079 13.5967 115.742C13.5465 115.4 13.4714 115.109 13.3711 114.867C13.2708 114.626 13.1432 114.43 12.9883 114.279C12.8379 114.129 12.6624 114.02 12.4619 113.951C12.266 113.878 12.0449 113.842 11.7988 113.842C11.498 113.842 11.2314 113.899 10.999 114.013C10.7666 114.122 10.5706 114.298 10.4111 114.539C10.2562 114.781 10.1377 115.097 10.0557 115.489C9.97363 115.881 9.93262 116.357 9.93262 116.918V118.853C9.93262 119.299 9.95768 119.693 10.0078 120.035C10.0625 120.377 10.1423 120.673 10.2471 120.924C10.3519 121.17 10.4795 121.373 10.6299 121.532C10.7803 121.692 10.9535 121.81 11.1494 121.888C11.3499 121.961 11.571 121.997 11.8125 121.997C12.1224 121.997 12.3936 121.938 12.626 121.819C12.8584 121.701 13.0521 121.516 13.207 121.266C13.3665 121.01 13.485 120.685 13.5625 120.288C13.64 119.887 13.6787 119.409 13.6787 118.853Z" fill="black"/>
<path d="M7.55371 87.5659V88.605H0.362305L0.362305 87.8599L4.81934 80.9624H5.85156L4.74414 82.9585L1.79785 87.5659H7.55371ZM6.16602 80.9624L6.16602 90.9155H4.90137L4.90137 80.9624H6.16602ZM10.3018 86.1782L9.29004 85.9185L9.78906 80.9624H14.8955V82.1313H10.8623L10.5615 84.8384C10.7438 84.7336 10.974 84.6356 11.252 84.5444C11.5345 84.4533 11.8581 84.4077 12.2227 84.4077C12.6829 84.4077 13.0954 84.4875 13.46 84.647C13.8245 84.8019 14.1344 85.0252 14.3896 85.3169C14.6494 85.6086 14.8477 85.9595 14.9844 86.3696C15.1211 86.7798 15.1895 87.2378 15.1895 87.7437C15.1895 88.2222 15.1234 88.6619 14.9912 89.063C14.8636 89.464 14.6699 89.8149 14.4102 90.1157C14.1504 90.4119 13.8223 90.6421 13.4258 90.8062C13.0339 90.9702 12.5713 91.0522 12.0381 91.0522C11.637 91.0522 11.2565 90.9976 10.8965 90.8882C10.541 90.7743 10.222 90.6034 9.93945 90.3755C9.66146 90.1431 9.43359 89.856 9.25586 89.5142C9.08268 89.1678 8.97331 88.7622 8.92773 88.2974H10.1309C10.1855 88.6711 10.2949 88.9855 10.459 89.2407C10.623 89.4959 10.8372 89.6896 11.1016 89.8218C11.3704 89.9494 11.6826 90.0132 12.0381 90.0132C12.3389 90.0132 12.6055 89.9608 12.8379 89.856C13.0703 89.7511 13.2663 89.6007 13.4258 89.4048C13.5853 89.2088 13.7061 88.9718 13.7881 88.6938C13.8747 88.4159 13.918 88.1037 13.918 87.7573C13.918 87.4429 13.8747 87.1512 13.7881 86.8823C13.7015 86.6134 13.5716 86.3787 13.3984 86.1782C13.2298 85.9777 13.0225 85.8228 12.7764 85.7134C12.5303 85.5994 12.2477 85.5425 11.9287 85.5425C11.5049 85.5425 11.1836 85.5994 10.9648 85.7134C10.7507 85.8273 10.5296 85.9823 10.3018 86.1782Z" fill="black"/>
<path d="M2.42676 54.1948L1.41504 53.9351L1.91406 48.979H7.02051L7.02051 50.1479H2.9873L2.68652 52.855C2.86882 52.7502 3.09896 52.6522 3.37695 52.561C3.65951 52.4699 3.98307 52.4243 4.34766 52.4243C4.80794 52.4243 5.22038 52.5041 5.58496 52.6636C5.94954 52.8185 6.25944 53.0418 6.51465 53.3335C6.77441 53.6252 6.97266 53.9761 7.10938 54.3862C7.24609 54.7964 7.31445 55.2544 7.31445 55.7603C7.31445 56.2388 7.24837 56.6785 7.11621 57.0796C6.98861 57.4806 6.79492 57.8315 6.53516 58.1323C6.27539 58.4285 5.94727 58.6587 5.55078 58.8228C5.15885 58.9868 4.69629 59.0688 4.16309 59.0688C3.76204 59.0688 3.38151 59.0142 3.02148 58.9048C2.66602 58.7909 2.34701 58.62 2.06445 58.3921C1.78646 58.1597 1.55859 57.8726 1.38086 57.5308C1.20768 57.1844 1.09831 56.7788 1.05273 56.314H2.25586C2.31055 56.6877 2.41992 57.0021 2.58398 57.2573C2.74805 57.5125 2.96224 57.7062 3.22656 57.8384C3.49544 57.966 3.80762 58.0298 4.16309 58.0298C4.46387 58.0298 4.73047 57.9774 4.96289 57.8726C5.19531 57.7677 5.39128 57.6174 5.55078 57.4214C5.71029 57.2254 5.83105 56.9884 5.91309 56.7104C5.99967 56.4325 6.04297 56.1203 6.04297 55.7739C6.04297 55.4595 5.99967 55.1678 5.91309 54.8989C5.8265 54.63 5.69661 54.3953 5.52344 54.1948C5.35482 53.9943 5.14746 53.8394 4.90137 53.73C4.65527 53.616 4.37272 53.5591 4.05371 53.5591C3.62988 53.5591 3.30859 53.616 3.08984 53.73C2.87565 53.8439 2.65462 53.9989 2.42676 54.1948ZM14.9502 53.1626V54.6802C14.9502 55.4959 14.8773 56.1841 14.7314 56.7446C14.5856 57.3052 14.376 57.7563 14.1025 58.0981C13.8291 58.4399 13.4987 58.6883 13.1113 58.8433C12.7285 58.9937 12.2956 59.0688 11.8125 59.0688C11.4297 59.0688 11.0765 59.021 10.7529 58.9253C10.4294 58.8296 10.1377 58.6769 9.87793 58.4673C9.62272 58.2531 9.40397 57.9751 9.22168 57.6333C9.03939 57.2915 8.90039 56.8768 8.80469 56.3892C8.70898 55.9015 8.66113 55.3319 8.66113 54.6802V53.1626C8.66113 52.3468 8.73405 51.6632 8.87988 51.1118C9.03027 50.5604 9.24219 50.1183 9.51562 49.7856C9.78906 49.4484 10.1172 49.2069 10.5 49.061C10.8874 48.9152 11.3203 48.8423 11.7988 48.8423C12.1862 48.8423 12.5417 48.8901 12.8652 48.9858C13.1934 49.077 13.485 49.2251 13.7402 49.4302C13.9954 49.6307 14.2119 49.8996 14.3896 50.2368C14.5719 50.5695 14.7109 50.9774 14.8066 51.4604C14.9023 51.9435 14.9502 52.5109 14.9502 53.1626ZM13.6787 54.8853V52.9507C13.6787 52.5041 13.6514 52.1121 13.5967 51.7749C13.5465 51.4331 13.4714 51.1414 13.3711 50.8999C13.2708 50.6584 13.1432 50.4624 12.9883 50.312C12.8379 50.1616 12.6624 50.0522 12.4619 49.9839C12.266 49.911 12.0449 49.8745 11.7988 49.8745C11.498 49.8745 11.2314 49.9315 10.999 50.0454C10.7666 50.1548 10.5706 50.3302 10.4111 50.5718C10.2562 50.8133 10.1377 51.13 10.0557 51.522C9.97363 51.9139 9.93262 52.3901 9.93262 52.9507V54.8853C9.93262 55.3319 9.95768 55.7261 10.0078 56.0679C10.0625 56.4097 10.1423 56.7059 10.2471 56.9565C10.3519 57.2026 10.4795 57.4054 10.6299 57.5649C10.7803 57.7244 10.9535 57.8429 11.1494 57.9204C11.3499 57.9933 11.571 58.0298 11.8125 58.0298C12.1224 58.0298 12.3936 57.9705 12.626 57.8521C12.8584 57.7336 13.0521 57.549 13.207 57.2983C13.3665 57.0431 13.485 56.7173 13.5625 56.3208C13.64 55.9198 13.6787 55.4412 13.6787 54.8853Z" fill="black"/>
<line x1="20" y1="277.5" x2="332" y2="277.5" stroke="black"/>
<line x1="326.5" y1="53.8109" x2="326.5" y2="276.811" stroke="#D8DDE0"/>
<line x1="27" y1="107.507" x2="326" y2="107.507" stroke="white"/>
<line x1="27" y1="110.809" x2="326" y2="110.809" stroke="white"/>
<line x1="27" y1="109.158" x2="326" y2="109.158" stroke="black" stroke-width="2"/>
<line x1="327" y1="53.5" x2="27" y2="53.5" stroke="#D8DDE0"/>
<line x1="326" y1="85.5" x2="27.0754" y2="85.5" stroke="white"/>
<line x1="326" y1="117.5" x2="27.0754" y2="117.5" stroke="white"/>
<line x1="326" y1="149.5" x2="27.0754" y2="149.5" stroke="white"/>
<line x1="326" y1="181.5" x2="27.0754" y2="181.5" stroke="white"/>
<line x1="326" y1="213.5" x2="27.0754" y2="213.5" stroke="white"/>
<line x1="326" y1="245.5" x2="27.0754" y2="245.5" stroke="white"/>
<line x1="326.5" y1="277" x2="326.5" y2="281.997" stroke="black"/>
<line x1="26.5" y1="277" x2="26.5" y2="281.997" stroke="black"/>
<path d="M6.50802 298.463C6.50725 298.23 6.47011 298.025 6.3966 297.848C6.32764 297.666 6.20405 297.502 6.02583 297.357C5.85217 297.212 5.61017 297.074 5.29984 296.942C4.99406 296.811 4.60625 296.678 4.1364 296.543C3.64373 296.399 3.19886 296.238 2.80179 296.062C2.4047 295.881 2.06449 295.675 1.78117 295.443C1.49785 295.212 1.28049 294.946 1.1291 294.646C0.977716 294.345 0.901379 294.002 0.900093 293.614C0.898806 293.227 0.977371 292.869 1.13579 292.54C1.2942 292.212 1.52112 291.926 1.81654 291.683C2.1165 291.436 2.47361 291.244 2.88787 291.106C3.30212 290.968 3.76446 290.898 4.27487 290.896C5.02227 290.894 5.6562 291.035 6.17668 291.32C6.70171 291.601 7.1017 291.971 7.37667 292.431C7.65162 292.885 7.78995 293.373 7.79168 293.892L6.47919 293.897C6.47794 293.523 6.3971 293.193 6.23664 292.906C6.07616 292.615 5.83387 292.388 5.50976 292.225C5.18564 292.057 4.7752 291.974 4.27846 291.976C3.80906 291.978 3.42193 292.05 3.11706 292.192C2.81219 292.334 2.58497 292.526 2.43538 292.768C2.29035 293.01 2.21835 293.286 2.21938 293.596C2.22007 293.806 2.264 293.997 2.35116 294.17C2.44287 294.338 2.58239 294.495 2.76972 294.64C2.96161 294.785 3.20359 294.919 3.49567 295.041C3.7923 295.163 4.14588 295.281 4.55641 295.393C5.12204 295.551 5.61026 295.727 6.02106 295.921C6.43187 296.116 6.76984 296.336 7.03498 296.581C7.30466 296.822 7.50382 297.097 7.63245 297.406C7.76562 297.711 7.83285 298.057 7.83414 298.445C7.83549 298.85 7.75467 299.218 7.5917 299.546C7.42873 299.875 7.19496 300.156 6.8904 300.389C6.58583 300.623 6.21957 300.804 5.79161 300.933C5.36819 301.057 4.89444 301.121 4.37035 301.122C3.91007 301.124 3.45641 301.062 3.00937 300.935C2.5669 300.809 2.16294 300.619 1.79751 300.365C1.43664 300.111 1.14621 299.798 0.926222 299.425C0.710775 299.047 0.602226 298.61 0.600577 298.113L1.91307 298.109C1.9142 298.451 1.98126 298.744 2.11424 298.99C2.2472 299.231 2.42788 299.431 2.65627 299.59C2.88922 299.749 3.15166 299.866 3.44358 299.943C3.74005 300.015 4.04778 300.05 4.36679 300.049C4.82707 300.048 5.21651 299.982 5.53509 299.854C5.85368 299.725 6.09461 299.542 6.25788 299.305C6.42572 299.067 6.50909 298.786 6.50802 298.463ZM12.4025 301.096C11.8876 301.097 11.4202 301.012 11.0003 300.841C10.585 300.664 10.2264 300.417 9.9246 300.099C9.62732 299.781 9.3982 299.403 9.23725 298.967C9.07629 298.53 8.99495 298.051 8.99322 297.532L8.99227 297.245C8.99027 296.643 9.07736 296.107 9.25354 295.637C9.4297 295.163 9.6699 294.761 9.97415 294.432C10.2784 294.103 10.6239 293.853 11.0107 293.683C11.3975 293.513 11.7983 293.428 12.213 293.426C12.7416 293.425 13.1977 293.514 13.5811 293.695C13.9691 293.876 14.2866 294.13 14.5338 294.458C14.781 294.78 14.9646 295.163 15.0845 295.604C15.2045 296.041 15.2653 296.52 15.267 297.039L15.2689 297.607L9.74549 297.625L9.74206 296.593L14.0008 296.579L14.0005 296.483C13.9812 296.155 13.9118 295.836 13.7923 295.527C13.6773 295.217 13.4942 294.962 13.2428 294.763C12.9915 294.563 12.6494 294.464 12.2165 294.465C11.9293 294.466 11.6652 294.529 11.4241 294.653C11.183 294.772 10.9762 294.95 10.8038 295.188C10.6314 295.425 10.4979 295.715 10.4034 296.057C10.3088 296.399 10.2623 296.794 10.2637 297.24L10.2647 297.528C10.2659 297.878 10.3148 298.209 10.4115 298.518C10.5128 298.823 10.6573 299.092 10.8449 299.323C11.0371 299.555 11.2678 299.737 11.5371 299.868C11.811 299.999 12.1211 300.064 12.4675 300.063C12.9141 300.062 13.292 299.969 13.6013 299.786C13.9106 299.603 14.181 299.358 14.4124 299.052L15.18 299.658C15.0213 299.9 14.8193 300.131 14.5739 300.35C14.3285 300.57 14.0261 300.748 13.6665 300.886C13.3115 301.024 12.8902 301.094 12.4025 301.096ZM18.0014 294.966L18.0306 303.784L16.7592 303.788L16.7252 293.548L17.8873 293.544L18.0014 294.966ZM22.9921 297.164L22.9926 297.308C22.9943 297.845 22.9322 298.345 22.8061 298.805C22.68 299.261 22.4945 299.659 22.2495 299.997C22.0091 300.335 21.7115 300.598 21.3566 300.786C21.0018 300.974 20.5942 301.069 20.1339 301.07C19.6645 301.072 19.2496 300.995 18.889 300.842C18.5285 300.688 18.2224 300.463 17.9708 300.168C17.7191 299.873 17.5174 299.518 17.3657 299.104C17.2185 298.689 17.1167 298.223 17.0602 297.703L17.0577 296.938C17.1106 296.391 17.2115 295.9 17.3604 295.467C17.5094 295.033 17.7064 294.664 17.9515 294.358C18.2011 294.047 18.5034 293.811 18.8583 293.65C19.2132 293.485 19.6231 293.402 20.088 293.4C20.5528 293.399 20.9655 293.488 21.3262 293.67C21.6868 293.846 21.9907 294.1 22.2379 294.432C22.4851 294.764 22.671 295.162 22.7956 295.627C22.9247 296.086 22.9902 296.599 22.9921 297.164ZM21.7211 297.312L21.7206 297.168C21.7194 296.799 21.6795 296.453 21.6009 296.13C21.5224 295.802 21.4007 295.515 21.2358 295.269C21.0754 295.019 20.8697 294.824 20.6186 294.684C20.3675 294.539 20.0687 294.467 19.7224 294.468C19.4034 294.469 19.1255 294.525 18.8889 294.635C18.6569 294.745 18.4591 294.894 18.2957 295.081C18.1322 295.264 17.9985 295.474 17.8945 295.711C17.795 295.944 17.7206 296.186 17.6713 296.437L17.6772 298.207C17.7694 298.526 17.898 298.826 18.063 299.108C18.2279 299.386 18.4474 299.61 18.7215 299.783C18.9954 299.95 19.3398 300.034 19.7545 300.032C20.0963 300.031 20.39 299.959 20.6356 299.817C20.8858 299.671 21.0902 299.472 21.2489 299.221C21.4121 298.969 21.5319 298.682 21.6083 298.358C21.6847 298.03 21.7223 297.681 21.7211 297.312ZM27.6899 293.512L27.6932 294.482L23.6942 294.496L23.6909 293.525L27.6899 293.512ZM25.0385 291.723L26.3031 291.718L26.3276 299.081C26.3284 299.331 26.3678 299.52 26.4457 299.648C26.5236 299.775 26.6241 299.859 26.7473 299.9C26.8705 299.94 27.0027 299.96 27.144 299.96C27.2488 299.96 27.3581 299.95 27.472 299.931C27.5904 299.908 27.6792 299.89 27.7384 299.876L27.7487 300.908C27.6485 300.94 27.5165 300.97 27.3525 300.998C27.1931 301.031 26.9995 301.047 26.7716 301.048C26.4617 301.049 26.1767 300.988 25.9165 300.866C25.6563 300.744 25.4483 300.54 25.2924 300.253C25.141 299.962 25.0645 299.57 25.0629 299.078L25.0385 291.723ZM39.0518 299.831L39.0553 300.871L32.5406 300.892L32.5376 299.983L35.7863 296.342C36.1859 295.894 36.4945 295.515 36.7122 295.204C36.9345 294.889 37.0885 294.608 37.1743 294.362C37.2646 294.111 37.3093 293.856 37.3084 293.596C37.3073 293.268 37.238 292.972 37.1004 292.708C36.9674 292.44 36.7707 292.226 36.5104 292.067C36.2501 291.909 35.9354 291.83 35.5662 291.831C35.1242 291.833 34.7553 291.921 34.4597 292.095C34.1686 292.264 33.9506 292.502 33.8058 292.808C33.661 293.114 33.5892 293.465 33.5905 293.861L32.3259 293.865C32.324 293.305 32.4454 292.792 32.6899 292.326C32.9345 291.861 33.2978 291.49 33.78 291.215C34.2621 290.936 34.8564 290.795 35.5628 290.792C36.1917 290.79 36.7298 290.9 37.1772 291.122C37.6245 291.339 37.9673 291.648 38.2056 292.048C38.4485 292.444 38.5708 292.908 38.5726 293.441C38.5735 293.733 38.5244 294.029 38.4251 294.331C38.3304 294.627 38.197 294.924 38.0248 295.221C37.8571 295.517 37.6599 295.81 37.433 296.098C37.2106 296.385 36.9723 296.669 36.718 296.948L34.0616 299.848L39.0518 299.831ZM46.6376 295.076L46.6427 296.593C46.6454 297.409 46.5747 298.098 46.4308 298.659C46.2868 299.22 46.0787 299.671 45.8064 300.014C45.5341 300.357 45.2045 300.606 44.8176 300.763C44.4353 300.914 44.0026 300.991 43.5196 300.992C43.1367 300.994 42.7834 300.947 42.4595 300.852C42.1356 300.758 41.8435 300.606 41.583 300.397C41.3271 300.184 41.1074 299.907 40.924 299.566C40.7406 299.224 40.6002 298.81 40.5029 298.323C40.4055 297.835 40.3558 297.266 40.3536 296.614L40.3486 295.097C40.3459 294.281 40.4165 293.597 40.5605 293.045C40.7091 292.493 40.9195 292.051 41.1919 291.717C41.4642 291.379 41.7915 291.136 42.1738 290.989C42.5607 290.842 42.9934 290.768 43.4719 290.766C43.8593 290.765 44.2149 290.811 44.5388 290.906C44.8672 290.996 45.1594 291.143 45.4153 291.347C45.6711 291.547 45.8885 291.815 46.0674 292.152C46.2508 292.484 46.3911 292.891 46.4884 293.374C46.5857 293.857 46.6355 294.424 46.6376 295.076ZM45.3719 296.803L45.3654 294.868C45.364 294.422 45.3353 294.03 45.2795 293.693C45.2282 293.351 45.1521 293.06 45.051 292.818C44.9499 292.577 44.8217 292.382 44.6662 292.232C44.5154 292.082 44.3395 291.973 44.1388 291.905C43.9426 291.833 43.7214 291.797 43.4754 291.798C43.1746 291.799 42.9082 291.857 42.6761 291.972C42.4441 292.082 42.2487 292.258 42.09 292.5C41.9358 292.742 41.8184 293.059 41.7377 293.451C41.6569 293.844 41.6175 294.32 41.6194 294.881L41.6258 296.815C41.6273 297.262 41.6536 297.656 41.7049 297.997C41.7607 298.339 41.8415 298.635 41.9471 298.885C42.0528 299.131 42.181 299.333 42.3319 299.492C42.4829 299.651 42.6564 299.769 42.8527 299.846C43.0534 299.918 43.2746 299.954 43.5161 299.953C43.826 299.952 44.097 299.892 44.329 299.773C44.561 299.654 44.7541 299.468 44.9082 299.217C45.0669 298.962 45.1843 298.635 45.2604 298.239C45.3366 297.837 45.3737 297.359 45.3719 296.803ZM54.8017 299.779L54.8052 300.818L48.2906 300.84L48.2875 299.931L51.5362 296.29C51.9358 295.842 52.2444 295.463 52.4621 295.152C52.6844 294.837 52.8384 294.556 52.9242 294.31C53.0145 294.059 53.0592 293.804 53.0583 293.544C53.0573 293.216 52.9879 292.92 52.8503 292.656C52.7173 292.387 52.5206 292.174 52.2603 292.015C52 291.857 51.6853 291.778 51.3161 291.779C50.8741 291.781 50.5052 291.868 50.2096 292.042C49.9185 292.212 49.7005 292.45 49.5557 292.756C49.4109 293.061 49.3391 293.413 49.3405 293.809L48.0758 293.813C48.074 293.253 48.1953 292.74 48.4398 292.274C48.6844 291.808 49.0478 291.438 49.5299 291.163C50.0121 290.883 50.6063 290.742 51.3127 290.74C51.9416 290.738 52.4797 290.848 52.9271 291.07C53.3744 291.287 53.7172 291.596 53.9556 291.996C54.1984 292.392 54.3207 292.856 54.3225 293.389C54.3235 293.681 54.2743 293.977 54.1751 294.278C54.0803 294.575 53.9469 294.872 53.7747 295.168C53.607 295.465 53.4098 295.757 53.1829 296.045C52.9605 296.333 52.7222 296.617 52.4679 296.895L49.8115 299.796L54.8017 299.779ZM62.6767 299.753L62.6801 300.792L56.1655 300.814L56.1625 299.905L59.4112 296.264C59.8107 295.816 60.1194 295.437 60.3371 295.126C60.5593 294.811 60.7134 294.53 60.7991 294.284C60.8894 294.033 60.9342 293.777 60.9333 293.518C60.9322 293.19 60.8629 292.894 60.7253 292.63C60.5922 292.361 60.3955 292.148 60.1353 291.989C59.875 291.83 59.5602 291.752 59.1911 291.753C58.7491 291.754 58.3802 291.842 58.0846 292.016C57.7934 292.186 57.5755 292.424 57.4307 292.729C57.2858 293.035 57.2141 293.386 57.2154 293.783L55.9508 293.787C55.9489 293.227 56.0703 292.713 56.3148 292.248C56.5594 291.782 56.9227 291.412 57.4049 291.137C57.887 290.857 58.4813 290.716 59.1877 290.714C59.8166 290.712 60.3547 290.822 60.802 291.043C61.2494 291.261 61.5922 291.57 61.8305 291.97C62.0734 292.365 62.1957 292.83 62.1974 293.363C62.1984 293.655 62.1493 293.951 62.05 294.252C61.9553 294.549 61.8218 294.845 61.6496 295.142C61.482 295.439 61.2847 295.731 61.0578 296.019C60.8355 296.307 60.5972 296.59 60.3429 296.869L57.6865 299.77L62.6767 299.753Z" fill="#212B32"/>
<path d="M283.596 291.125L284.874 291.12L288.162 299.224L291.389 291.099L292.674 291.094L288.66 301.061L287.662 301.064L283.596 291.125ZM283.179 291.126L284.307 291.122L284.511 297.192L284.524 301.075L283.212 301.079L283.179 291.126ZM291.956 291.097L293.084 291.093L293.117 301.046L291.804 301.05L291.792 297.168L291.956 291.097ZM299.6 299.76L299.587 295.952C299.586 295.661 299.526 295.408 299.407 295.194C299.292 294.976 299.119 294.808 298.886 294.69C298.653 294.572 298.366 294.514 298.024 294.515C297.705 294.516 297.425 294.572 297.184 294.682C296.947 294.792 296.761 294.936 296.625 295.115C296.493 295.293 296.428 295.484 296.428 295.689L295.164 295.694C295.163 295.429 295.23 295.167 295.366 294.907C295.502 294.647 295.697 294.411 295.952 294.201C296.211 293.986 296.52 293.816 296.88 293.692C297.244 293.563 297.649 293.498 298.096 293.496C298.634 293.495 299.108 293.584 299.519 293.765C299.934 293.946 300.258 294.221 300.492 294.589C300.73 294.953 300.85 295.41 300.852 295.962L300.863 299.407C300.864 299.653 300.886 299.915 300.928 300.193C300.974 300.471 301.041 300.71 301.128 300.91L301.129 301.02L299.809 301.024C299.745 300.878 299.694 300.685 299.657 300.443C299.62 300.197 299.601 299.97 299.6 299.76ZM299.808 296.54L299.825 297.428L298.546 297.432C298.186 297.434 297.865 297.464 297.583 297.524C297.3 297.58 297.064 297.665 296.873 297.78C296.682 297.894 296.536 298.038 296.437 298.212C296.337 298.381 296.287 298.579 296.288 298.807C296.289 299.039 296.342 299.251 296.448 299.442C296.553 299.633 296.711 299.785 296.921 299.899C297.135 300.007 297.398 300.061 297.707 300.06C298.095 300.059 298.436 299.976 298.732 299.811C299.028 299.646 299.262 299.444 299.434 299.207C299.611 298.969 299.706 298.739 299.719 298.515L300.261 299.122C300.23 299.314 300.144 299.526 300.003 299.759C299.863 299.991 299.674 300.215 299.438 300.43C299.206 300.641 298.929 300.817 298.606 300.96C298.287 301.097 297.928 301.167 297.527 301.168C297.025 301.17 296.585 301.073 296.206 300.879C295.832 300.684 295.539 300.423 295.329 300.095C295.122 299.763 295.019 299.392 295.017 298.982C295.016 298.586 295.092 298.237 295.246 297.936C295.4 297.63 295.623 297.376 295.914 297.175C296.205 296.968 296.555 296.812 296.965 296.706C297.375 296.6 297.832 296.546 298.338 296.544L299.808 296.54ZM304.824 300.242L306.86 293.604L308.213 293.6L305.275 302.147C305.207 302.33 305.117 302.526 305.003 302.736C304.895 302.951 304.754 303.154 304.582 303.346C304.409 303.538 304.2 303.694 303.954 303.813C303.713 303.937 303.424 303.999 303.087 304C302.986 304.001 302.859 303.987 302.704 303.961C302.549 303.934 302.439 303.911 302.375 303.893L302.365 302.868C302.402 302.872 302.459 302.877 302.536 302.881C302.618 302.89 302.675 302.894 302.707 302.894C302.994 302.893 303.238 302.854 303.438 302.776C303.638 302.702 303.807 302.576 303.943 302.398C304.083 302.224 304.203 301.985 304.303 301.679L304.824 300.242ZM303.292 293.616L305.231 299.352L305.564 300.684L304.656 301.151L301.911 293.62L303.292 293.616ZM319.233 299.92L319.237 300.959L312.722 300.981L312.719 300.072L315.968 296.431C316.368 295.983 316.676 295.604 316.894 295.293C317.116 294.978 317.27 294.697 317.356 294.451C317.446 294.2 317.491 293.945 317.49 293.685C317.489 293.357 317.42 293.061 317.282 292.797C317.149 292.529 316.952 292.315 316.692 292.156C316.432 291.998 316.117 291.919 315.748 291.92C315.306 291.922 314.937 292.009 314.641 292.184C314.35 292.353 314.132 292.591 313.987 292.897C313.843 293.203 313.771 293.554 313.772 293.95L312.508 293.954C312.506 293.394 312.627 292.881 312.872 292.415C313.116 291.949 313.479 291.579 313.962 291.304C314.444 291.024 315.038 290.883 315.744 290.881C316.373 290.879 316.911 290.989 317.359 291.211C317.806 291.428 318.149 291.737 318.387 292.137C318.63 292.533 318.752 292.997 318.754 293.53C318.755 293.822 318.706 294.118 318.607 294.42C318.512 294.716 318.379 295.013 318.206 295.31C318.039 295.606 317.842 295.899 317.615 296.186C317.392 296.474 317.154 296.758 316.9 297.037L314.243 299.937L319.233 299.92ZM326.819 295.165L326.824 296.682C326.827 297.498 326.756 298.186 326.612 298.747C326.468 299.309 326.26 299.76 325.988 300.103C325.716 300.446 325.386 300.695 324.999 300.851C324.617 301.003 324.184 301.08 323.701 301.081C323.318 301.083 322.965 301.036 322.641 300.941C322.317 300.847 322.025 300.695 321.765 300.486C321.509 300.273 321.289 299.996 321.106 299.654C320.922 299.313 320.782 298.899 320.685 298.412C320.587 297.924 320.537 297.355 320.535 296.703L320.53 295.186C320.528 294.37 320.598 293.686 320.742 293.134C320.891 292.582 321.101 292.139 321.374 291.806C321.646 291.468 321.973 291.225 322.355 291.078C322.742 290.931 323.175 290.857 323.654 290.855C324.041 290.854 324.397 290.9 324.72 290.995C325.049 291.085 325.341 291.232 325.597 291.436C325.853 291.636 326.07 291.904 326.249 292.241C326.432 292.573 326.573 292.98 326.67 293.463C326.767 293.946 326.817 294.513 326.819 295.165ZM325.554 296.892L325.547 294.957C325.546 294.51 325.517 294.119 325.461 293.782C325.41 293.44 325.334 293.149 325.233 292.907C325.132 292.666 325.003 292.471 324.848 292.321C324.697 292.171 324.521 292.062 324.32 291.994C324.124 291.922 323.903 291.886 323.657 291.887C323.356 291.888 323.09 291.946 322.858 292.061C322.626 292.171 322.43 292.347 322.272 292.589C322.117 292.831 322 293.148 321.919 293.54C321.839 293.933 321.799 294.409 321.801 294.969L321.807 296.904C321.809 297.351 321.835 297.745 321.887 298.086C321.942 298.428 322.023 298.724 322.129 298.974C322.234 299.22 322.363 299.422 322.514 299.581C322.665 299.74 322.838 299.858 323.034 299.935C323.235 300.007 323.456 300.043 323.698 300.042C324.008 300.041 324.279 299.981 324.511 299.862C324.743 299.743 324.936 299.557 325.09 299.306C325.249 299.051 325.366 298.724 325.442 298.328C325.518 297.926 325.555 297.448 325.554 296.892ZM334.983 299.868L334.987 300.907L328.472 300.929L328.469 300.02L331.718 296.379C332.117 295.931 332.426 295.552 332.644 295.241C332.866 294.926 333.02 294.645 333.106 294.399C333.196 294.148 333.241 293.892 333.24 293.633C333.239 293.305 333.17 293.009 333.032 292.745C332.899 292.476 332.702 292.263 332.442 292.104C332.182 291.945 331.867 291.867 331.498 291.868C331.056 291.869 330.687 291.957 330.391 292.131C330.1 292.301 329.882 292.539 329.737 292.845C329.593 293.15 329.521 293.501 329.522 293.898L328.257 293.902C328.256 293.342 328.377 292.829 328.621 292.363C328.866 291.897 329.229 291.527 329.712 291.252C330.194 290.972 330.788 290.831 331.494 290.829C332.123 290.827 332.661 290.937 333.109 291.159C333.556 291.376 333.899 291.685 334.137 292.085C334.38 292.48 334.502 292.945 334.504 293.478C334.505 293.77 334.456 294.066 334.357 294.367C334.262 294.664 334.129 294.96 333.956 295.257C333.789 295.554 333.591 295.846 333.365 296.134C333.142 296.422 332.904 296.705 332.65 296.984L329.993 299.885L334.983 299.868ZM337.924 296.16L336.912 295.904L337.394 290.946L342.501 290.929L342.504 292.098L338.471 292.111L338.18 294.819C338.361 294.714 338.591 294.615 338.869 294.523C339.151 294.431 339.475 294.384 339.839 294.383C340.299 294.382 340.712 294.46 341.077 294.618C341.442 294.772 341.753 294.994 342.009 295.285C342.27 295.576 342.469 295.926 342.607 296.336C342.746 296.746 342.815 297.203 342.817 297.709C342.819 298.188 342.754 298.628 342.623 299.029C342.497 299.431 342.304 299.782 342.046 300.084C341.787 300.381 341.46 300.612 341.064 300.778C340.672 300.943 340.21 301.027 339.677 301.028C339.276 301.03 338.895 300.976 338.535 300.868C338.179 300.755 337.859 300.586 337.576 300.359C337.297 300.127 337.068 299.841 336.889 299.5C336.715 299.154 336.604 298.749 336.557 298.284L337.76 298.28C337.816 298.653 337.927 298.967 338.092 299.222C338.257 299.477 338.471 299.67 338.736 299.801C339.005 299.928 339.318 299.991 339.673 299.989C339.974 299.988 340.24 299.935 340.473 299.829C340.705 299.724 340.9 299.573 341.059 299.376C341.218 299.18 341.338 298.942 341.419 298.664C341.505 298.386 341.547 298.074 341.546 297.727C341.545 297.413 341.5 297.121 341.413 296.853C341.325 296.584 341.195 296.35 341.021 296.15C340.852 295.95 340.644 295.796 340.397 295.687C340.151 295.574 339.868 295.518 339.549 295.519C339.125 295.52 338.804 295.578 338.586 295.693C338.372 295.808 338.151 295.963 337.924 296.16Z" fill="#212B32"/>
<line x1="306.146" y1="106.736" x2="140.146" y2="139.736" stroke="#212B32" stroke-width="1.5"/>
<line x1="55.7403" y1="169.296" x2="139.74" y2="138.296" stroke="#212B32" stroke-width="1.5"/>
<line x1="27.3446" y1="154.334" x2="56.3446" y2="169.334" stroke="#212B32" stroke-width="1.5"/>
<circle cx="140" cy="139" r="6.75" fill="black" stroke="white" stroke-width="1.5"/>
<circle cx="27" cy="154" r="6.75" fill="black" stroke="white" stroke-width="1.5"/>
<circle cx="56" cy="168" r="6.75" fill="black" stroke="white" stroke-width="1.5"/>
<circle cx="306" cy="106" r="6.75" fill="black" stroke="white" stroke-width="1.5"/>
<line x1="27" y1="243.507" x2="326" y2="243.507" stroke="white"/>
<line x1="27" y1="246.81" x2="326" y2="246.81" stroke="white"/>
<line x1="27" y1="245.158" x2="326" y2="245.158" stroke="black" stroke-width="2"/>
<path d="M29.344 326H27.104V314.832H29.984C32.944 314.832 34.592 315.936 34.592 318.208C34.592 320.544 33.024 321.76 30.32 321.76H29.344V326ZM29.344 320H30.096C31.616 320 32.256 319.376 32.256 318.336C32.256 317.168 31.456 316.592 30.128 316.592H29.344V320ZM42.9066 326H41.0186C40.9546 325.696 40.9386 325.136 40.9226 324.768H40.8906C40.4106 325.648 39.3706 326.192 38.3466 326.192C36.8586 326.192 35.4666 325.296 35.4666 323.728C35.4666 322.304 36.2826 320.912 39.4986 320.912H40.8266V320.88C40.8266 319.504 40.1226 319.136 38.9706 319.136C38.0586 319.136 37.1466 319.488 36.4266 320.032L36.3626 318.192C37.1306 317.84 38.2346 317.568 39.2266 317.568C41.6906 317.568 42.7786 318.56 42.7786 321.04V322.736C42.7786 323.168 42.8106 324.896 42.9066 326ZM40.8266 322.288V322.192H39.8826C38.3626 322.192 37.5146 322.64 37.5146 323.616C37.5146 324.256 38.0106 324.624 38.8746 324.624C39.8346 324.624 40.8266 323.968 40.8266 322.288ZM44.4373 325.84L44.5653 324.08C45.2373 324.416 45.9413 324.624 46.6773 324.624C47.2533 324.624 48.0853 324.4 48.0853 323.616C48.0853 322.928 47.4133 322.72 46.5493 322.48C45.1093 322.096 44.3573 321.504 44.3573 320.128C44.3573 318.464 45.7493 317.568 47.6053 317.568C48.2613 317.568 48.9013 317.632 49.9253 317.872L49.7813 319.488C49.0453 319.232 48.5493 319.136 47.8773 319.136C47.1253 319.136 46.5973 319.44 46.5973 320.048C46.5973 320.512 47.0453 320.736 48.0213 321.008C49.5573 321.44 50.3253 322.128 50.3253 323.504C50.3253 325.312 48.7733 326.192 46.8533 326.192C46.0693 326.192 45.2213 326.048 44.4373 325.84ZM56.8266 324.304L56.8906 326C56.4426 326.128 55.9466 326.192 55.3226 326.192C53.5786 326.192 52.6986 325.104 52.6986 323.52V319.328H51.1146V317.76H52.6986V316.112L54.8426 315.424V317.76H56.7466V319.328H54.8426V323.152C54.8426 324.016 55.1146 324.528 55.8666 324.528C56.2346 324.528 56.6026 324.448 56.8266 324.304ZM62.2825 325.824L62.4105 323.92C63.2265 324.24 64.0425 324.432 64.8745 324.432C65.9465 324.432 67.2425 323.92 67.2425 322.848C67.2425 321.68 66.4105 321.104 64.7945 321.104H63.6905V319.344H64.7785C66.2025 319.344 67.1945 318.832 67.1945 317.872C67.1945 316.912 66.5225 316.4 65.2585 316.4C64.4105 316.4 63.5465 316.608 62.7625 316.992L62.6345 315.2C63.5305 314.848 64.6025 314.64 65.7385 314.64C67.5625 314.64 69.4345 315.376 69.4345 317.504C69.4345 318.784 68.7785 319.632 67.3545 320.176V320.208C68.6985 320.384 69.4825 321.408 69.4825 322.864C69.4825 325.104 67.7225 326.192 65.1785 326.192C64.2185 326.192 63.1305 326.064 62.2825 325.824ZM75.5943 329.328L75.7383 327.744C76.0583 327.856 76.3943 327.888 76.8263 327.888C77.7383 327.888 78.2343 327.264 78.2343 326.416L75.0823 317.76H77.4503L79.4343 323.776H79.4663L81.4503 317.76H83.6263L80.1703 326.912C79.5463 328.544 78.8423 329.552 77.0823 329.552C76.6023 329.552 76.0903 329.472 75.5943 329.328ZM91.5089 323.792V325.536C90.7249 325.968 89.8289 326.192 88.6929 326.192C85.9569 326.192 84.3729 324.624 84.3729 321.92C84.3729 319.616 85.5729 317.568 88.1969 317.568C90.9969 317.568 92.1169 319.296 92.1169 322.544H86.4209C86.5169 323.84 87.3969 324.624 88.7889 324.624C89.8129 324.624 90.7089 324.24 91.5089 323.792ZM86.4209 321.072H90.0689C89.9889 319.888 89.4289 319.136 88.3089 319.136C87.2369 319.136 86.5329 319.84 86.4209 321.072ZM100.704 326H98.8155C98.7515 325.696 98.7355 325.136 98.7195 324.768H98.6875C98.2075 325.648 97.1675 326.192 96.1435 326.192C94.6555 326.192 93.2635 325.296 93.2635 323.728C93.2635 322.304 94.0795 320.912 97.2955 320.912H98.6235V320.88C98.6235 319.504 97.9195 319.136 96.7675 319.136C95.8555 319.136 94.9435 319.488 94.2235 320.032L94.1595 318.192C94.9275 317.84 96.0315 317.568 97.0235 317.568C99.4875 317.568 100.576 318.56 100.576 321.04V322.736C100.576 323.168 100.608 324.896 100.704 326ZM98.6235 322.288V322.192H97.6795C96.1595 322.192 95.3115 322.64 95.3115 323.616C95.3115 324.256 95.8075 324.624 96.6715 324.624C97.6315 324.624 98.6235 323.968 98.6235 322.288ZM104.874 326H102.73V317.76H104.634V319.632H104.666C104.794 318.768 105.69 317.568 106.938 317.568C107.386 317.568 107.514 317.616 107.578 317.632V319.792C107.386 319.68 107.002 319.616 106.618 319.616C105.818 319.616 104.874 320.048 104.874 322.608V326ZM108.453 325.84L108.581 324.08C109.253 324.416 109.957 324.624 110.693 324.624C111.269 324.624 112.101 324.4 112.101 323.616C112.101 322.928 111.429 322.72 110.565 322.48C109.125 322.096 108.373 321.504 108.373 320.128C108.373 318.464 109.765 317.568 111.621 317.568C112.277 317.568 112.917 317.632 113.941 317.872L113.797 319.488C113.061 319.232 112.565 319.136 111.893 319.136C111.141 319.136 110.613 319.44 110.613 320.048C110.613 320.512 111.061 320.736 112.037 321.008C113.573 321.44 114.341 322.128 114.341 323.504C114.341 325.312 112.789 326.192 110.869 326.192C110.085 326.192 109.237 326.048 108.453 325.84Z" fill="#212B32"/>
<rect x="0.5" y="348.5" width="233" height="97" stroke="#D8DDE0"/>
<rect x="10" y="358" width="24" height="24" fill="#FFB81C"/>
<path d="M10 384H34" stroke="black" stroke-width="2"/>
<rect x="10" y="386" width="24" height="24" fill="#00A499"/>
<mask id="mask0_1694_3625" style="mask-type:alpha" maskUnits="userSpaceOnUse" x="10" y="386" width="25" height="24">
<path opacity="0.4" d="M10.2112 386V391.197L16.4022 386H10.26L10.2112 386Z" fill="#F0F4F5"/>
<path opacity="0.4" d="M10.2114 397.393V403.59L28.6866 386H22.5444L10.2114 397.393Z" fill="#F0F4F5"/>
<path opacity="0.4" d="M10 410H16.1422L34.0002 393.033V386.836L10 410Z" fill="#F0F4F5"/>
<path opacity="0.4" d="M22.2847 410H28.4268L33.927 405.5V399.303L22.2847 410Z" fill="#F0F4F5"/>
</mask>
<g mask="url(#mask0_1694_3625)">
<rect opacity="0.5" width="23.7887" height="24" transform="matrix(1 0 0 -1 10.2112 410)" fill="#F0F4F5"/>
</g>
<circle cx="22" cy="424" r="6.75" fill="black" stroke="white" stroke-width="1.5"/>
<path d="M48.224 376.192C44.912 376.192 42.848 373.904 42.848 370.416C42.848 367.152 44.784 364.64 48.224 364.64C51.536 364.64 53.6 367.024 53.6 370.416C53.6 373.92 51.536 376.192 48.224 376.192ZM48.224 374.784C50.608 374.784 51.904 372.88 51.904 370.416C51.904 368.176 50.736 366.048 48.208 366.048C45.856 366.048 44.544 368.016 44.544 370.416C44.544 372.928 45.872 374.784 48.224 374.784ZM62.9491 376H61.4931V374.704H61.4611C61.0611 375.552 60.0211 376.192 58.7891 376.192C56.7411 376.192 55.7331 374.944 55.7331 372.704V367.84H57.2371V372.24C57.2371 374.752 58.3411 374.976 59.0291 374.976C60.5331 374.976 61.4451 373.76 61.4451 371.632V367.84H62.9491V376ZM69.9784 374.688V375.968C69.5784 376.08 69.1624 376.192 68.6824 376.192C67.0024 376.192 66.1864 375.312 66.1864 373.84V369.056H64.3464V367.84H66.1864V365.952L67.6904 365.472V367.84H69.8504V369.056H67.6904V373.552C67.6904 374.304 68.1384 374.976 68.9544 374.976C69.4504 374.976 69.7704 374.816 69.9784 374.688ZM71.0451 375.744L71.1251 374.4C71.6371 374.736 72.4851 374.976 72.9971 374.976C73.7971 374.976 74.5331 374.624 74.5331 373.808C74.5331 373.36 74.2451 372.96 73.0611 372.432C71.3811 371.68 70.9971 370.976 70.9971 370.144C70.9971 368.448 72.2931 367.648 73.8771 367.648C74.5811 367.648 75.1571 367.792 75.7491 367.968L75.6211 369.28C75.3171 369.088 74.4211 368.864 74.0371 368.864C73.2211 368.864 72.5971 369.216 72.5971 369.856C72.5971 370.528 73.1571 370.864 74.1811 371.312C75.5731 371.92 76.1331 372.56 76.1331 373.648C76.1331 375.2 74.9811 376.192 73.2691 376.192C72.4051 376.192 71.6691 376.08 71.0451 375.744ZM79.7439 366.016H78.0479V364.32H79.7439V366.016ZM79.6479 376H78.1439V367.84H79.6479V376ZM89.621 376H88.181V374.848H88.149C87.589 375.68 86.565 376.192 85.365 376.192C82.949 376.192 81.861 374.08 81.861 371.776C81.861 369.584 83.013 367.648 85.381 367.648C86.597 367.648 87.541 368.064 88.085 368.96H88.117V364H89.621V376ZM85.717 374.976C87.381 374.976 88.117 373.344 88.117 371.936C88.117 370.496 87.397 368.864 85.685 368.864C84.181 368.864 83.461 370.208 83.461 371.808C83.461 373.6 84.325 374.976 85.717 374.976ZM98.4423 374.16V375.664C97.2583 376.144 96.5543 376.192 95.8823 376.192C93.1143 376.192 91.6423 374.592 91.6423 371.776C91.6423 369.312 93.1943 367.648 95.4663 367.648C97.8343 367.648 99.0663 369.152 99.0663 372.256H93.2423C93.2582 373.888 94.5063 374.976 95.9303 374.976C96.7943 374.976 97.9303 374.56 98.4423 374.16ZM93.2423 371.136H97.4663C97.4503 369.824 96.6983 368.864 95.4183 368.864C94.2183 368.864 93.4023 369.728 93.2423 371.136ZM107.034 376H105.53V367.84H106.938V369.104H106.97C107.386 368.224 108.25 367.648 109.114 367.648C109.434 367.648 109.722 367.68 110.09 367.76V369.104C109.818 368.992 109.514 368.96 109.258 368.96C107.882 368.96 107.034 370.288 107.034 372.288V376ZM118.005 374.16V375.664C116.821 376.144 116.117 376.192 115.445 376.192C112.677 376.192 111.205 374.592 111.205 371.776C111.205 369.312 112.757 367.648 115.029 367.648C117.397 367.648 118.629 369.152 118.629 372.256H112.805C112.821 373.888 114.069 374.976 115.493 374.976C116.357 374.976 117.493 374.56 118.005 374.16ZM112.805 371.136H117.029C117.013 369.824 116.261 368.864 114.981 368.864C113.781 368.864 112.965 369.728 112.805 371.136ZM123.119 376H121.615V369.056H119.695V367.84H121.615V367.04C121.615 364.896 122.303 363.808 124.351 363.808C124.671 363.808 124.975 363.84 125.359 363.904L125.295 365.12C125.119 365.056 124.815 365.024 124.575 365.024C123.487 365.024 123.119 365.584 123.119 366.832V367.84H125.279V369.056H123.119V376ZM133.114 374.16V375.664C131.93 376.144 131.226 376.192 130.554 376.192C127.786 376.192 126.314 374.592 126.314 371.776C126.314 369.312 127.866 367.648 130.138 367.648C132.506 367.648 133.738 369.152 133.738 372.256H127.914C127.93 373.888 129.178 374.976 130.602 374.976C131.466 374.976 132.602 374.56 133.114 374.16ZM127.914 371.136H132.138C132.122 369.824 131.37 368.864 130.09 368.864C128.89 368.864 128.074 369.728 127.914 371.136ZM137.253 376H135.749V367.84H137.157V369.104H137.189C137.605 368.224 138.469 367.648 139.333 367.648C139.653 367.648 139.941 367.68 140.309 367.76V369.104C140.037 368.992 139.733 368.96 139.477 368.96C138.101 368.96 137.253 370.288 137.253 372.288V376ZM148.224 374.16V375.664C147.04 376.144 146.336 376.192 145.664 376.192C142.896 376.192 141.424 374.592 141.424 371.776C141.424 369.312 142.976 367.648 145.248 367.648C147.616 367.648 148.848 369.152 148.848 372.256H143.024C143.039 373.888 144.288 374.976 145.712 374.976C146.576 374.976 147.712 374.56 148.224 374.16ZM143.024 371.136H147.248C147.232 369.824 146.48 368.864 145.2 368.864C144 368.864 143.184 369.728 143.024 371.136ZM158.074 376H156.57V371.584C156.57 369.44 155.786 368.864 154.778 368.864C153.21 368.864 152.362 370.16 152.362 372.208V376H150.858V367.84H152.314V369.136H152.346C152.842 368.176 153.882 367.648 155.018 367.648C157.066 367.648 158.074 368.896 158.074 371.12V376ZM165.903 374.512L166.015 375.856C165.503 376.08 164.959 376.192 164.127 376.192C161.647 376.192 159.967 374.24 159.967 371.92C159.967 369.424 161.631 367.648 164.127 367.648C164.719 367.648 165.519 367.792 165.951 367.968L165.823 369.216C165.247 368.976 164.687 368.864 164.191 368.864C162.543 368.864 161.567 370.336 161.567 371.92C161.567 373.392 162.367 374.976 164.287 374.976C164.799 374.976 165.439 374.816 165.903 374.512ZM174.005 374.16V375.664C172.821 376.144 172.117 376.192 171.445 376.192C168.677 376.192 167.205 374.592 167.205 371.776C167.205 369.312 168.757 367.648 171.029 367.648C173.397 367.648 174.629 369.152 174.629 372.256H168.805C168.821 373.888 170.069 374.976 171.493 374.976C172.357 374.976 173.493 374.56 174.005 374.16ZM168.805 371.136H173.029C173.013 369.824 172.261 368.864 170.981 368.864C169.781 368.864 168.965 369.728 168.805 371.136ZM182.597 376H181.093V367.84H182.501V369.104H182.533C182.949 368.224 183.812 367.648 184.677 367.648C184.997 367.648 185.285 367.68 185.653 367.76V369.104C185.381 368.992 185.077 368.96 184.821 368.96C183.445 368.96 182.597 370.288 182.597 372.288V376ZM193.727 376H192.319V374.944H192.287C191.711 375.744 190.815 376.192 189.743 376.192C187.855 376.192 186.767 375.296 186.767 373.648C186.767 371.92 188.415 370.96 190.671 370.96C191.311 370.96 191.823 370.976 192.159 370.992C192.159 369.504 191.567 368.864 190.143 368.864C189.327 368.864 188.431 369.152 187.775 369.696L187.695 368.416C188.447 367.968 189.343 367.648 190.383 367.648C192.639 367.648 193.663 368.72 193.663 371.008V374.592C193.663 375.088 193.679 375.616 193.727 376ZM192.159 372.832V372.112C192.159 372.112 191.487 372.08 191.183 372.08C189.487 372.08 188.367 372.592 188.367 373.648C188.367 374.432 189.087 374.976 189.903 374.976C191.311 374.976 192.159 374.096 192.159 372.832ZM203.418 376H201.914V371.584C201.914 369.44 201.13 368.864 200.122 368.864C198.554 368.864 197.706 370.16 197.706 372.208V376H196.202V367.84H197.658V369.136H197.69C198.186 368.176 199.226 367.648 200.362 367.648C202.41 367.648 203.418 368.896 203.418 371.12V376ZM211.695 375.536V374.736H211.663C211.023 375.568 209.999 376 208.927 376C206.591 376 205.439 374.096 205.439 371.984C205.439 369.76 206.719 367.648 209.087 367.648C210.367 367.648 211.279 368.064 211.775 369.056H211.807V367.84H213.199V375.664C213.199 378.16 211.871 379.552 208.991 379.552C207.951 379.552 207.215 379.376 206.063 378.992L206.223 377.6C207.455 378.176 208.159 378.336 209.151 378.336C210.751 378.336 211.695 377.264 211.695 375.536ZM209.311 374.784C210.639 374.784 211.695 373.632 211.695 372C211.695 370.304 210.895 368.864 209.311 368.864C207.839 368.864 207.039 370.416 207.039 371.904C207.039 373.504 207.951 374.784 209.311 374.784ZM222.02 374.16V375.664C220.836 376.144 220.132 376.192 219.46 376.192C216.692 376.192 215.22 374.592 215.22 371.776C215.22 369.312 216.772 367.648 219.044 367.648C221.412 367.648 222.644 369.152 222.644 372.256H216.82C216.836 373.888 218.084 374.976 219.508 374.976C220.372 374.976 221.508 374.56 222.02 374.16ZM216.82 371.136H221.044C221.028 369.824 220.276 368.864 218.996 368.864C217.796 368.864 216.98 369.728 216.82 371.136Z" fill="black"/>
<path d="M45.024 403H43.424V391.832H45.024V403ZM54.9491 403H53.4451V398.584C53.4451 396.44 52.6611 395.864 51.6531 395.864C50.0851 395.864 49.2371 397.16 49.2371 399.208V403H47.7331V394.84H49.1891V396.136H49.2211C49.7171 395.176 50.7571 394.648 51.8931 394.648C53.9411 394.648 54.9491 395.896 54.9491 398.12V403ZM56.8264 402.744L56.9064 401.4C57.4184 401.736 58.2664 401.976 58.7784 401.976C59.5784 401.976 60.3144 401.624 60.3144 400.808C60.3144 400.36 60.0264 399.96 58.8424 399.432C57.1624 398.68 56.7784 397.976 56.7784 397.144C56.7784 395.448 58.0744 394.648 59.6584 394.648C60.3624 394.648 60.9384 394.792 61.5304 394.968L61.4024 396.28C61.0984 396.088 60.2024 395.864 59.8184 395.864C59.0024 395.864 58.3784 396.216 58.3784 396.856C58.3784 397.528 58.9384 397.864 59.9624 398.312C61.3544 398.92 61.9144 399.56 61.9144 400.648C61.9144 402.2 60.7624 403.192 59.0504 403.192C58.1864 403.192 57.4504 403.08 56.8264 402.744ZM65.5251 393.016H63.8291V391.32H65.5251V393.016ZM65.4291 403H63.9251V394.84H65.4291V403ZM75.4023 403H73.9623V401.848H73.9303C73.3703 402.68 72.3463 403.192 71.1463 403.192C68.7303 403.192 67.6423 401.08 67.6423 398.776C67.6423 396.584 68.7943 394.648 71.1623 394.648C72.3783 394.648 73.3223 395.064 73.8663 395.96H73.8983V391H75.4023V403ZM71.4983 401.976C73.1623 401.976 73.8983 400.344 73.8983 398.936C73.8983 397.496 73.1783 395.864 71.4663 395.864C69.9623 395.864 69.2423 397.208 69.2423 398.808C69.2423 400.6 70.1063 401.976 71.4983 401.976ZM84.2235 401.16V402.664C83.0395 403.144 82.3355 403.192 81.6635 403.192C78.8955 403.192 77.4235 401.592 77.4235 398.776C77.4235 396.312 78.9755 394.648 81.2475 394.648C83.6155 394.648 84.8475 396.152 84.8475 399.256H79.0235C79.0395 400.888 80.2875 401.976 81.7115 401.976C82.5755 401.976 83.7115 401.56 84.2235 401.16ZM79.0235 398.136H83.2475C83.2315 396.824 82.4795 395.864 81.1995 395.864C79.9995 395.864 79.1835 396.728 79.0235 398.136ZM92.8153 403H91.3113V394.84H92.7193V396.104H92.7513C93.1673 395.224 94.0312 394.648 94.8953 394.648C95.2153 394.648 95.5033 394.68 95.8713 394.76V396.104C95.5993 395.992 95.2953 395.96 95.0393 395.96C93.6633 395.96 92.8153 397.288 92.8153 399.288V403ZM103.786 401.16V402.664C102.602 403.144 101.898 403.192 101.226 403.192C98.458 403.192 96.986 401.592 96.986 398.776C96.986 396.312 98.538 394.648 100.81 394.648C103.178 394.648 104.41 396.152 104.41 399.256H98.586C98.602 400.888 99.85 401.976 101.274 401.976C102.138 401.976 103.274 401.56 103.786 401.16ZM98.586 398.136H102.81C102.794 396.824 102.042 395.864 100.762 395.864C99.562 395.864 98.746 396.728 98.586 398.136ZM108.901 403H107.397V396.056H105.477V394.84H107.397V394.04C107.397 391.896 108.085 390.808 110.133 390.808C110.453 390.808 110.757 390.84 111.141 390.904L111.077 392.12C110.901 392.056 110.597 392.024 110.357 392.024C109.269 392.024 108.901 392.584 108.901 393.832V394.84H111.061V396.056H108.901V403ZM118.895 401.16V402.664C117.711 403.144 117.007 403.192 116.335 403.192C113.567 403.192 112.095 401.592 112.095 398.776C112.095 396.312 113.647 394.648 115.919 394.648C118.287 394.648 119.519 396.152 119.519 399.256H113.695C113.711 400.888 114.959 401.976 116.383 401.976C117.247 401.976 118.383 401.56 118.895 401.16ZM113.695 398.136H117.919C117.903 396.824 117.151 395.864 115.871 395.864C114.671 395.864 113.855 396.728 113.695 398.136ZM123.034 403H121.53V394.84H122.938V396.104H122.97C123.386 395.224 124.25 394.648 125.114 394.648C125.434 394.648 125.722 394.68 126.09 394.76V396.104C125.818 395.992 125.514 395.96 125.258 395.96C123.882 395.96 123.034 397.288 123.034 399.288V403ZM134.005 401.16V402.664C132.821 403.144 132.117 403.192 131.445 403.192C128.677 403.192 127.205 401.592 127.205 398.776C127.205 396.312 128.757 394.648 131.029 394.648C133.397 394.648 134.629 396.152 134.629 399.256H128.805C128.821 400.888 130.069 401.976 131.493 401.976C132.357 401.976 133.493 401.56 134.005 401.16ZM128.805 398.136H133.029C133.013 396.824 132.261 395.864 130.981 395.864C129.781 395.864 128.965 396.728 128.805 398.136ZM143.855 403H142.351V398.584C142.351 396.44 141.567 395.864 140.559 395.864C138.991 395.864 138.143 397.16 138.143 399.208V403H136.639V394.84H138.095V396.136H138.127C138.623 395.176 139.663 394.648 140.799 394.648C142.847 394.648 143.855 395.896 143.855 398.12V403ZM151.685 401.512L151.797 402.856C151.285 403.08 150.741 403.192 149.909 403.192C147.429 403.192 145.749 401.24 145.749 398.92C145.749 396.424 147.413 394.648 149.909 394.648C150.501 394.648 151.301 394.792 151.733 394.968L151.605 396.216C151.029 395.976 150.469 395.864 149.973 395.864C148.325 395.864 147.349 397.336 147.349 398.92C147.349 400.392 148.149 401.976 150.069 401.976C150.581 401.976 151.221 401.816 151.685 401.512ZM159.786 401.16V402.664C158.602 403.144 157.898 403.192 157.226 403.192C154.458 403.192 152.986 401.592 152.986 398.776C152.986 396.312 154.538 394.648 156.81 394.648C159.178 394.648 160.41 396.152 160.41 399.256H154.586C154.602 400.888 155.85 401.976 157.274 401.976C158.138 401.976 159.274 401.56 159.786 401.16ZM154.586 398.136H158.81C158.794 396.824 158.042 395.864 156.762 395.864C155.562 395.864 154.746 396.728 154.586 398.136ZM168.378 403H166.874V394.84H168.282V396.104H168.314C168.73 395.224 169.594 394.648 170.458 394.648C170.778 394.648 171.066 394.68 171.434 394.76V396.104C171.162 395.992 170.858 395.96 170.602 395.96C169.226 395.96 168.378 397.288 168.378 399.288V403ZM179.509 403H178.101V401.944H178.069C177.493 402.744 176.597 403.192 175.525 403.192C173.637 403.192 172.549 402.296 172.549 400.648C172.549 398.92 174.197 397.96 176.453 397.96C177.093 397.96 177.605 397.976 177.941 397.992C177.941 396.504 177.349 395.864 175.924 395.864C175.109 395.864 174.213 396.152 173.557 396.696L173.477 395.416C174.229 394.968 175.125 394.648 176.165 394.648C178.421 394.648 179.445 395.72 179.445 398.008V401.592C179.445 402.088 179.461 402.616 179.509 403ZM177.941 399.832V399.112C177.941 399.112 177.269 399.08 176.965 399.08C175.269 399.08 174.149 399.592 174.149 400.648C174.149 401.432 174.869 401.976 175.685 401.976C177.093 401.976 177.941 401.096 177.941 399.832ZM189.199 403H187.695V398.584C187.695 396.44 186.911 395.864 185.903 395.864C184.335 395.864 183.487 397.16 183.487 399.208V403H181.983V394.84H183.439V396.136H183.471C183.967 395.176 185.007 394.648 186.143 394.648C188.191 394.648 189.199 395.896 189.199 398.12V403ZM197.476 402.536V401.736H197.444C196.804 402.568 195.78 403 194.708 403C192.372 403 191.22 401.096 191.22 398.984C191.22 396.76 192.5 394.648 194.868 394.648C196.148 394.648 197.06 395.064 197.556 396.056H197.588V394.84H198.98V402.664C198.98 405.16 197.652 406.552 194.772 406.552C193.732 406.552 192.996 406.376 191.844 405.992L192.004 404.6C193.236 405.176 193.94 405.336 194.932 405.336C196.532 405.336 197.476 404.264 197.476 402.536ZM195.092 401.784C196.42 401.784 197.476 400.632 197.476 399C197.476 397.304 196.676 395.864 195.092 395.864C193.62 395.864 192.82 397.416 192.82 398.904C192.82 400.504 193.732 401.784 195.092 401.784ZM207.802 401.16V402.664C206.618 403.144 205.914 403.192 205.242 403.192C202.474 403.192 201.002 401.592 201.002 398.776C201.002 396.312 202.554 394.648 204.826 394.648C207.194 394.648 208.426 396.152 208.426 399.256H202.602C202.618 400.888 203.866 401.976 205.29 401.976C206.154 401.976 207.29 401.56 207.802 401.16ZM202.602 398.136H206.826C206.81 396.824 206.058 395.864 204.778 395.864C203.578 395.864 202.762 396.728 202.602 398.136Z" fill="black"/>
<path d="M48.144 430H46.544V425.328L42.176 418.832H44.048L47.376 423.84L50.624 418.832H52.496L48.144 425.328V430ZM55.9894 430.192C53.5894 430.192 51.8454 428.288 51.8454 425.92C51.8454 423.424 53.5094 421.648 56.0054 421.648C58.3894 421.648 60.1494 423.344 60.1494 425.92C60.1494 428.208 58.5014 430.192 55.9894 430.192ZM56.0054 428.976C57.6854 428.976 58.5494 427.504 58.5494 425.92C58.5494 424.304 57.5734 422.864 55.9894 422.864C54.4214 422.864 53.4454 424.352 53.4454 425.92C53.4454 427.488 54.3094 428.976 56.0054 428.976ZM69.3866 430H67.9306V428.704H67.8986C67.4986 429.552 66.4586 430.192 65.2266 430.192C63.1786 430.192 62.1706 428.944 62.1706 426.704V421.84H63.6746V426.24C63.6746 428.752 64.7786 428.976 65.4666 428.976C66.9706 428.976 67.8826 427.76 67.8826 425.632V421.84H69.3866V430ZM73.4559 430H71.9519V421.84H73.3599V423.104H73.3919C73.8079 422.224 74.6719 421.648 75.5359 421.648C75.8559 421.648 76.1439 421.68 76.5119 421.76V423.104C76.2399 422.992 75.9359 422.96 75.6799 422.96C74.3039 422.96 73.4559 424.288 73.4559 426.288V430ZM84.1278 430H82.6238V421.84H84.0318V423.104H84.0638C84.4798 422.224 85.3438 421.648 86.2078 421.648C86.5278 421.648 86.8158 421.68 87.1838 421.76V423.104C86.9118 422.992 86.6078 422.96 86.3518 422.96C84.9758 422.96 84.1278 424.288 84.1278 426.288V430ZM95.0985 428.16V429.664C93.9145 430.144 93.2105 430.192 92.5385 430.192C89.7705 430.192 88.2985 428.592 88.2985 425.776C88.2985 423.312 89.8505 421.648 92.1225 421.648C94.4905 421.648 95.7225 423.152 95.7225 426.256H89.8985C89.9145 427.888 91.1625 428.976 92.5865 428.976C93.4505 428.976 94.5865 428.56 95.0985 428.16ZM89.8985 425.136H94.1225C94.1065 423.824 93.3545 422.864 92.0745 422.864C90.8745 422.864 90.0585 423.728 89.8985 425.136ZM97.0451 429.744L97.1251 428.4C97.6371 428.736 98.4851 428.976 98.9971 428.976C99.7971 428.976 100.533 428.624 100.533 427.808C100.533 427.36 100.245 426.96 99.0611 426.432C97.3811 425.68 96.9971 424.976 96.9971 424.144C96.9971 422.448 98.2931 421.648 99.8771 421.648C100.581 421.648 101.157 421.792 101.749 421.968L101.621 423.28C101.317 423.088 100.421 422.864 100.037 422.864C99.2211 422.864 98.5971 423.216 98.5971 423.856C98.5971 424.528 99.1571 424.864 100.181 425.312C101.573 425.92 102.133 426.56 102.133 427.648C102.133 429.2 100.981 430.192 99.2691 430.192C98.4051 430.192 97.6691 430.08 97.0451 429.744ZM111.168 430H109.712V428.704H109.68C109.28 429.552 108.24 430.192 107.008 430.192C104.96 430.192 103.952 428.944 103.952 426.704V421.84H105.456V426.24C105.456 428.752 106.56 428.976 107.248 428.976C108.752 428.976 109.664 427.76 109.664 425.632V421.84H111.168V430ZM115.429 430H113.925V418H115.429V430ZM122.65 428.688V429.968C122.25 430.08 121.834 430.192 121.354 430.192C119.674 430.192 118.858 429.312 118.858 427.84V423.056H117.018V421.84H118.858V419.952L120.362 419.472V421.84H122.522V423.056H120.362V427.552C120.362 428.304 120.81 428.976 121.626 428.976C122.122 428.976 122.442 428.816 122.65 428.688Z" fill="black"/>
</svg>
