<svg width="351" height="462" viewBox="0 0 351 462" fill="none" xmlns="http://www.w3.org/2000/svg">
<rect x="36.0001" y="105" width="299" height="156" fill="#00A499"/>
<path d="M162.711 100L169.632 107.218L35.5006 237.104L35.5006 222.965L162.711 100Z" fill="#30B4AB"/>
<path d="M134.5 99.2089L141.421 106.427L35.2138 209.682L35.4885 192.682L134.5 99.2089Z" fill="#30B4AB"/>
<path d="M107.346 94.3644L114.267 101.582L35.2141 177.682L35.4888 160.682L107.346 94.3644Z" fill="#30B4AB"/>
<path d="M66.5002 99.0002L77.8154 106L35.2139 145.648L35.4886 128.648L66.5002 99.0002Z" fill="#30B4AB"/>
<path d="M277.442 99L284.363 106.218L123.435 261L109.296 261L277.442 99Z" fill="#30B4AB"/>
<path d="M219.823 100L226.744 107.218L66.5002 261.204L52.3611 261.203L219.823 100Z" fill="#30B4AB"/>
<path d="M335.272 97.5791L335.277 111.718L179.671 261.204L165.532 261.204L335.272 97.5791Z" fill="#30B4AB"/>
<path d="M335.948 181.182L334.601 196.5L264.514 261.319L250.375 261.319L335.948 181.182Z" fill="#30B4AB"/>
<path d="M334.948 210.182L334.948 224.135L295.007 261.226L280.868 261.226L334.948 210.182Z" fill="#30B4AB"/>
<path d="M335.402 240.5L335.402 254.453L325.012 262L310.872 262L335.402 240.5Z" fill="#30B4AB"/>
<path d="M192.197 99.2822L199.118 106.5L35.6512 264.139L35.6512 250L192.197 99.2822Z" fill="#30B4AB"/>
<path d="M306.294 98.2822L313.215 105.5L151.038 261.451L136.899 261.451L306.294 98.2822Z" fill="#30B4AB"/>
<path d="M335.603 153.211L335.603 167.242L236.157 261.348L222.018 261.348L335.603 153.211Z" fill="#30B4AB"/>
<path d="M249.358 98.5L256.279 105.718L97.001 261.132L80.5002 261.133L249.358 98.5Z" fill="#30B4AB"/>
<path d="M335.102 124.477L335.102 138.616L208.372 260.5L194.233 260.5L335.102 124.477Z" fill="#30B4AB"/>
<rect x="36" y="54" width="299" height="51" fill="#FFB81C"/>
<rect x="36.0001" y="263" width="299" height="14" fill="#FFB81C"/>
<line x1="17.5" y1="37.9805" x2="17.5" y2="11.9938" stroke="black"/>
<line x1="17" y1="11.5" x2="37" y2="11.5" stroke="black"/>
<path d="M55.256 18H53.016V13.104L48.536 13.104V18H46.296V6.832L48.536 6.832V11.344L53.016 11.344V6.832L55.256 6.832V18ZM64.5629 18H62.6749C62.6109 17.696 62.5949 17.136 62.5789 16.768H62.5469C62.0669 17.648 61.0269 18.192 60.0029 18.192C58.5149 18.192 57.1229 17.296 57.1229 15.728C57.1229 14.304 57.9389 12.912 61.1549 12.912L62.4829 12.912V12.88C62.4829 11.504 61.7789 11.136 60.6269 11.136C59.7149 11.136 58.8029 11.488 58.0829 12.032L58.0189 10.192C58.7869 9.84 59.8909 9.568 60.8829 9.568C63.3469 9.568 64.4349 10.56 64.4349 13.04V14.736C64.4349 15.168 64.4669 16.896 64.5629 18ZM62.4829 14.288V14.192L61.5389 14.192C60.0189 14.192 59.1709 14.64 59.1709 15.616C59.1709 16.256 59.6669 16.624 60.5309 16.624C61.4909 16.624 62.4829 15.968 62.4829 14.288ZM73.1495 15.792V17.536C72.3655 17.968 71.4695 18.192 70.3335 18.192C67.5975 18.192 66.0135 16.624 66.0135 13.92C66.0135 11.616 67.2135 9.568 69.8375 9.568C72.6375 9.568 73.7575 11.296 73.7575 14.544L68.0615 14.544C68.1575 15.84 69.0375 16.624 70.4295 16.624C71.4535 16.624 72.3495 16.24 73.1495 15.792ZM68.0615 13.072H71.7095C71.6295 11.888 71.0695 11.136 69.9495 11.136C68.8775 11.136 68.1735 11.84 68.0615 13.072ZM87.4961 18H85.3521V12.864C85.3521 11.632 84.8881 11.232 84.1201 11.232C83.0321 11.232 82.5201 12.24 82.5201 13.968V18H80.3761V12.864C80.3761 11.664 79.9441 11.232 79.1441 11.232C78.0241 11.232 77.5441 12.288 77.5441 13.952V18H75.4001V9.76H77.4001V10.912H77.4321C77.9921 10.08 78.8561 9.568 79.8961 9.568C81.0321 9.568 81.8481 10 82.3121 11.024C82.7601 10.112 83.7681 9.568 84.9041 9.568C86.6481 9.568 87.4961 10.624 87.4961 12.768V18ZM97.7469 13.936C97.7469 16.384 96.0829 18.192 93.4269 18.192C90.7709 18.192 89.1229 16.368 89.1229 13.936C89.1229 11.296 90.9149 9.568 93.4269 9.568C95.9389 9.568 97.7469 11.28 97.7469 13.936ZM93.4269 16.528C94.8189 16.528 95.5069 15.456 95.5069 13.68C95.5069 12.368 94.8029 11.232 93.4269 11.232C92.0829 11.232 91.3629 12.384 91.3629 13.68C91.3629 15.424 92.0349 16.528 93.4269 16.528ZM104.856 16.88V16.688H104.824C104.36 17.488 103.352 18 102.264 18C99.9921 18 98.9041 16.272 98.9041 13.84C98.9041 11.856 99.9281 9.568 102.392 9.568C103.48 9.568 104.328 9.936 104.92 10.88H104.952V9.76L107 9.76V17.232C107 20.016 105.56 21.552 102.68 21.552C101.848 21.552 100.856 21.44 99.8001 20.992L99.9761 19.168C100.728 19.568 101.752 19.888 102.392 19.888C104.408 19.888 104.856 18.592 104.856 16.88ZM102.968 16.336C104.344 16.336 104.856 15.12 104.856 13.792C104.856 12.528 104.408 11.232 103.048 11.232C101.768 11.232 101.144 12.336 101.144 13.84C101.144 14.96 101.736 16.336 102.968 16.336ZM111.405 18H109.261V6H111.405V18ZM121.763 13.936C121.763 16.384 120.099 18.192 117.443 18.192C114.787 18.192 113.139 16.368 113.139 13.936C113.139 11.296 114.931 9.568 117.443 9.568C119.955 9.568 121.763 11.28 121.763 13.936ZM117.443 16.528C118.835 16.528 119.523 15.456 119.523 13.68C119.523 12.368 118.819 11.232 117.443 11.232C116.099 11.232 115.379 12.384 115.379 13.68C115.379 15.424 116.051 16.528 117.443 16.528ZM125.528 18H123.448V6L125.592 6V10.816H125.624C126.216 10.032 126.968 9.568 128.088 9.568C130.392 9.568 131.544 11.28 131.544 13.856C131.544 16.272 130.504 18.192 128.088 18.192C126.984 18.192 126.088 17.744 125.56 16.992H125.528V18ZM127.496 16.528C128.84 16.528 129.304 15.104 129.304 13.856C129.304 12.576 128.824 11.232 127.528 11.232C126.184 11.232 125.608 12.656 125.608 13.856C125.608 15.136 126.136 16.528 127.496 16.528ZM135.421 8.256H133.277V6.208H135.421V8.256ZM135.421 18H133.277V9.76H135.421V18ZM145.25 18L143.106 18V13.376C143.106 12.144 142.85 11.232 141.714 11.232C140.354 11.232 139.826 12.544 139.826 14V18H137.682V9.76L139.714 9.76V10.88H139.746C140.402 9.952 141.314 9.568 142.45 9.568C144.338 9.568 145.25 10.864 145.25 12.8V18ZM158.525 15.792V17.536C157.741 17.968 156.845 18.192 155.709 18.192C152.973 18.192 151.389 16.624 151.389 13.92C151.389 11.616 152.589 9.568 155.213 9.568C158.013 9.568 159.133 11.296 159.133 14.544H153.437C153.533 15.84 154.413 16.624 155.805 16.624C156.829 16.624 157.725 16.24 158.525 15.792ZM153.437 13.072H157.085C157.005 11.888 156.445 11.136 155.325 11.136C154.253 11.136 153.549 11.84 153.437 13.072ZM160.359 17.84L160.487 16.08C161.159 16.416 161.863 16.624 162.599 16.624C163.175 16.624 164.007 16.4 164.007 15.616C164.007 14.928 163.335 14.72 162.471 14.48C161.031 14.096 160.279 13.504 160.279 12.128C160.279 10.464 161.671 9.568 163.527 9.568C164.183 9.568 164.823 9.632 165.847 9.872L165.703 11.488C164.967 11.232 164.471 11.136 163.799 11.136C163.047 11.136 162.519 11.44 162.519 12.048C162.519 12.512 162.967 12.736 163.943 13.008C165.479 13.44 166.247 14.128 166.247 15.504C166.247 17.312 164.695 18.192 162.775 18.192C161.991 18.192 161.143 18.048 160.359 17.84ZM172.749 16.304L172.813 18C172.365 18.128 171.869 18.192 171.245 18.192C169.501 18.192 168.621 17.104 168.621 15.52V11.328H167.037V9.76H168.621V8.112L170.765 7.424V9.76L172.669 9.76V11.328L170.765 11.328V15.152C170.765 16.016 171.036 16.528 171.789 16.528C172.157 16.528 172.525 16.448 172.749 16.304ZM176.327 8.256H174.183V6.208L176.327 6.208V8.256ZM176.327 18H174.183V9.76H176.327V18ZM190.652 18L188.508 18V12.864C188.508 11.632 188.044 11.232 187.276 11.232C186.188 11.232 185.676 12.24 185.676 13.968V18H183.532V12.864C183.532 11.664 183.1 11.232 182.3 11.232C181.18 11.232 180.7 12.288 180.7 13.952V18H178.556V9.76H180.556V10.912H180.588C181.148 10.08 182.012 9.568 183.052 9.568C184.188 9.568 185.004 10 185.468 11.024C185.916 10.112 186.924 9.568 188.06 9.568C189.804 9.568 190.652 10.624 190.652 12.768V18ZM199.719 18H197.831C197.767 17.696 197.751 17.136 197.735 16.768H197.703C197.223 17.648 196.183 18.192 195.159 18.192C193.671 18.192 192.279 17.296 192.279 15.728C192.279 14.304 193.095 12.912 196.311 12.912H197.639V12.88C197.639 11.504 196.935 11.136 195.783 11.136C194.871 11.136 193.959 11.488 193.239 12.032L193.175 10.192C193.943 9.84 195.047 9.568 196.039 9.568C198.503 9.568 199.591 10.56 199.591 13.04V14.736C199.591 15.168 199.623 16.896 199.719 18ZM197.639 14.288V14.192H196.695C195.175 14.192 194.327 14.64 194.327 15.616C194.327 16.256 194.823 16.624 195.687 16.624C196.647 16.624 197.639 15.968 197.639 14.288ZM206.53 16.304L206.594 18C206.146 18.128 205.65 18.192 205.026 18.192C203.282 18.192 202.402 17.104 202.402 15.52V11.328H200.818V9.76H202.402V8.112L204.546 7.424V9.76L206.45 9.76V11.328L204.546 11.328V15.152C204.546 16.016 204.818 16.528 205.57 16.528C205.938 16.528 206.306 16.448 206.53 16.304ZM210.109 8.256H207.965V6.208H210.109V8.256ZM210.109 18H207.965V9.76H210.109V18ZM220.466 13.936C220.466 16.384 218.802 18.192 216.146 18.192C213.49 18.192 211.842 16.368 211.842 13.936C211.842 11.296 213.634 9.568 216.146 9.568C218.658 9.568 220.466 11.28 220.466 13.936ZM216.146 16.528C217.538 16.528 218.226 15.456 218.226 13.68C218.226 12.368 217.522 11.232 216.146 11.232C214.802 11.232 214.082 12.384 214.082 13.68C214.082 15.424 214.754 16.528 216.146 16.528ZM229.719 18H227.575V13.376C227.575 12.144 227.319 11.232 226.183 11.232C224.823 11.232 224.295 12.544 224.295 14V18H222.151V9.76H224.183V10.88H224.215C224.871 9.952 225.783 9.568 226.919 9.568C228.807 9.568 229.719 10.864 229.719 12.8V18ZM240.049 14.576L235.841 14.576V12.816L240.049 12.816V14.576ZM250.279 20.24H248.247C246.455 17.792 245.687 15.52 245.687 13.072C245.687 10.528 246.359 8.48 248.247 5.904H250.279C248.567 8.592 247.959 10.624 247.959 13.056C247.959 15.472 248.663 17.68 250.279 20.24ZM256.919 16.88V16.688H256.887C256.423 17.488 255.415 18 254.327 18C252.055 18 250.967 16.272 250.967 13.84C250.967 11.856 251.991 9.568 254.455 9.568C255.543 9.568 256.391 9.936 256.983 10.88H257.015V9.76H259.063V17.232C259.063 20.016 257.623 21.552 254.743 21.552C253.911 21.552 252.919 21.44 251.863 20.992L252.039 19.168C252.791 19.568 253.815 19.888 254.455 19.888C256.471 19.888 256.919 18.592 256.919 16.88ZM255.031 16.336C256.407 16.336 256.919 15.12 256.919 13.792C256.919 12.528 256.471 11.232 255.111 11.232C253.831 11.232 253.207 12.336 253.207 13.84C253.207 14.96 253.799 16.336 255.031 16.336ZM262.172 18.192H260.508L264.412 6.64H266.076L262.172 18.192ZM274.263 18H267.687V6.832L269.927 6.832V16.24H274.263V18ZM276.519 20.24H274.503C276.119 17.664 276.823 15.456 276.823 13.072C276.823 10.704 276.247 8.656 274.503 5.904H276.519C278.423 8.512 279.095 10.576 279.095 13.072C279.095 15.552 278.295 17.792 276.519 20.24Z" fill="#212B32"/>
<line x1="35.5" y1="53" x2="35.5" y2="278" stroke="black"/>
<line x1="30" y1="245.327" x2="35" y2="245.327" stroke="black"/>
<line x1="30" y1="213.344" x2="35" y2="213.344" stroke="black"/>
<line x1="30" y1="181.359" x2="35" y2="181.359" stroke="black"/>
<line x1="30" y1="149.377" x2="35" y2="149.377" stroke="black"/>
<line x1="30" y1="117.393" x2="35" y2="117.393" stroke="black"/>
<line x1="30" y1="85.4092" x2="35" y2="85.4092" stroke="black"/>
<line x1="30" y1="53.4258" x2="35" y2="53.4258" stroke="black"/>
<path d="M9.3584 240.818V250.826H8.09375V242.397L5.54395 243.327V242.186L9.16016 240.818H9.3584ZM19.5986 249.787V250.826H13.084V249.917L16.3447 246.287C16.7458 245.84 17.0557 245.462 17.2744 245.152C17.4977 244.838 17.6527 244.558 17.7393 244.312C17.8304 244.061 17.876 243.806 17.876 243.546C17.876 243.218 17.8076 242.922 17.6709 242.657C17.5387 242.388 17.3428 242.174 17.083 242.015C16.8232 241.855 16.5088 241.775 16.1396 241.775C15.6976 241.775 15.3285 241.862 15.0322 242.035C14.7406 242.204 14.5218 242.441 14.376 242.746C14.2301 243.051 14.1572 243.402 14.1572 243.799H12.8926C12.8926 243.238 13.0156 242.726 13.2617 242.261C13.5078 241.796 13.8724 241.427 14.3555 241.153C14.8385 240.875 15.4333 240.736 16.1396 240.736C16.7686 240.736 17.3063 240.848 17.7529 241.071C18.1995 241.29 18.5413 241.6 18.7783 242.001C19.0199 242.397 19.1406 242.862 19.1406 243.396C19.1406 243.687 19.0905 243.983 18.9902 244.284C18.8945 244.58 18.7601 244.877 18.5869 245.173C18.4183 245.469 18.2201 245.761 17.9922 246.048C17.7689 246.335 17.5296 246.618 17.2744 246.896L14.6084 249.787H19.5986ZM27.2002 245.057V246.574C27.2002 247.39 27.1273 248.078 26.9814 248.639C26.8356 249.199 26.626 249.65 26.3525 249.992C26.0791 250.334 25.7487 250.582 25.3613 250.737C24.9785 250.888 24.5456 250.963 24.0625 250.963C23.6797 250.963 23.3265 250.915 23.0029 250.819C22.6794 250.724 22.3877 250.571 22.1279 250.361C21.8727 250.147 21.654 249.869 21.4717 249.527C21.2894 249.186 21.1504 248.771 21.0547 248.283C20.959 247.796 20.9111 247.226 20.9111 246.574V245.057C20.9111 244.241 20.984 243.557 21.1299 243.006C21.2803 242.454 21.4922 242.012 21.7656 241.68C22.0391 241.342 22.3672 241.101 22.75 240.955C23.1374 240.809 23.5703 240.736 24.0488 240.736C24.4362 240.736 24.7917 240.784 25.1152 240.88C25.4434 240.971 25.735 241.119 25.9902 241.324C26.2454 241.525 26.4619 241.794 26.6396 242.131C26.8219 242.464 26.9609 242.871 27.0566 243.354C27.1523 243.838 27.2002 244.405 27.2002 245.057ZM25.9287 246.779V244.845C25.9287 244.398 25.9014 244.006 25.8467 243.669C25.7965 243.327 25.7214 243.035 25.6211 242.794C25.5208 242.552 25.3932 242.356 25.2383 242.206C25.0879 242.056 24.9124 241.946 24.7119 241.878C24.516 241.805 24.2949 241.769 24.0488 241.769C23.748 241.769 23.4814 241.826 23.249 241.939C23.0166 242.049 22.8206 242.224 22.6611 242.466C22.5062 242.707 22.3877 243.024 22.3057 243.416C22.2236 243.808 22.1826 244.284 22.1826 244.845V246.779C22.1826 247.226 22.2077 247.62 22.2578 247.962C22.3125 248.304 22.3923 248.6 22.4971 248.851C22.6019 249.097 22.7295 249.299 22.8799 249.459C23.0303 249.618 23.2035 249.737 23.3994 249.814C23.5999 249.887 23.821 249.924 24.0625 249.924C24.3724 249.924 24.6436 249.865 24.876 249.746C25.1084 249.628 25.3021 249.443 25.457 249.192C25.6165 248.937 25.735 248.611 25.8125 248.215C25.89 247.814 25.9287 247.335 25.9287 246.779Z" fill="black"/>
<path d="M9.3584 270.818V280.826H8.09375V272.397L5.54395 273.327V272.186L9.16016 270.818H9.3584ZM17.2334 270.818V280.826H15.9688V272.397L13.4189 273.327V272.186L17.0352 270.818H17.2334ZM27.2002 275.057V276.574C27.2002 277.39 27.1273 278.078 26.9814 278.639C26.8356 279.199 26.626 279.65 26.3525 279.992C26.0791 280.334 25.7487 280.582 25.3613 280.737C24.9785 280.888 24.5456 280.963 24.0625 280.963C23.6797 280.963 23.3265 280.915 23.0029 280.819C22.6794 280.724 22.3877 280.571 22.1279 280.361C21.8727 280.147 21.654 279.869 21.4717 279.527C21.2894 279.186 21.1504 278.771 21.0547 278.283C20.959 277.796 20.9111 277.226 20.9111 276.574V275.057C20.9111 274.241 20.984 273.557 21.1299 273.006C21.2803 272.454 21.4922 272.012 21.7656 271.68C22.0391 271.342 22.3672 271.101 22.75 270.955C23.1374 270.809 23.5703 270.736 24.0488 270.736C24.4362 270.736 24.7917 270.784 25.1152 270.88C25.4434 270.971 25.735 271.119 25.9902 271.324C26.2454 271.525 26.4619 271.794 26.6396 272.131C26.8219 272.464 26.9609 272.871 27.0566 273.354C27.1523 273.838 27.2002 274.405 27.2002 275.057ZM25.9287 276.779V274.845C25.9287 274.398 25.9014 274.006 25.8467 273.669C25.7965 273.327 25.7214 273.035 25.6211 272.794C25.5208 272.552 25.3932 272.356 25.2383 272.206C25.0879 272.056 24.9124 271.946 24.7119 271.878C24.516 271.805 24.2949 271.769 24.0488 271.769C23.748 271.769 23.4814 271.826 23.249 271.939C23.0166 272.049 22.8206 272.224 22.6611 272.466C22.5062 272.707 22.3877 273.024 22.3057 273.416C22.2236 273.808 22.1826 274.284 22.1826 274.845V276.779C22.1826 277.226 22.2077 277.62 22.2578 277.962C22.3125 278.304 22.3923 278.6 22.4971 278.851C22.6019 279.097 22.7295 279.299 22.8799 279.459C23.0303 279.618 23.2035 279.737 23.3994 279.814C23.5999 279.887 23.821 279.924 24.0625 279.924C24.3724 279.924 24.6436 279.865 24.876 279.746C25.1084 279.628 25.3021 279.443 25.457 279.192C25.6165 278.937 25.735 278.611 25.8125 278.215C25.89 277.814 25.9287 277.335 25.9287 276.779Z" fill="black"/>
<path d="M9.3584 208.842V218.85H8.09375V210.421L5.54395 211.351V210.209L9.16016 208.842H9.3584ZM14.9229 213.251H15.8252C16.2673 213.251 16.6318 213.178 16.9189 213.032C17.2106 212.882 17.4271 212.679 17.5684 212.424C17.7142 212.164 17.7871 211.872 17.7871 211.549C17.7871 211.166 17.7233 210.845 17.5957 210.585C17.4681 210.325 17.2767 210.129 17.0215 209.997C16.7663 209.865 16.4427 209.799 16.0508 209.799C15.6953 209.799 15.3809 209.869 15.1074 210.011C14.8385 210.147 14.6266 210.343 14.4717 210.599C14.3213 210.854 14.2461 211.155 14.2461 211.501H12.9814C12.9814 210.995 13.109 210.535 13.3643 210.12C13.6195 209.705 13.9772 209.375 14.4375 209.129C14.9023 208.883 15.4401 208.76 16.0508 208.76C16.6523 208.76 17.1787 208.867 17.6299 209.081C18.0811 209.291 18.432 209.605 18.6826 210.024C18.9333 210.439 19.0586 210.956 19.0586 211.576C19.0586 211.827 18.9993 212.096 18.8809 212.383C18.7669 212.665 18.5869 212.93 18.3408 213.176C18.0993 213.422 17.7848 213.625 17.3975 213.784C17.0101 213.939 16.5452 214.017 16.0029 214.017H14.9229V213.251ZM14.9229 214.29V213.531H16.0029C16.6364 213.531 17.1605 213.606 17.5752 213.757C17.9899 213.907 18.3158 214.108 18.5527 214.358C18.7943 214.609 18.9629 214.885 19.0586 215.186C19.1589 215.482 19.209 215.778 19.209 216.074C19.209 216.539 19.1292 216.951 18.9697 217.312C18.8148 217.672 18.5938 217.977 18.3066 218.228C18.0241 218.478 17.6914 218.667 17.3086 218.795C16.9258 218.923 16.5088 218.986 16.0576 218.986C15.6247 218.986 15.2168 218.925 14.834 218.802C14.4557 218.679 14.1208 218.501 13.8291 218.269C13.5374 218.032 13.3096 217.742 13.1455 217.4C12.9814 217.054 12.8994 216.66 12.8994 216.218H14.1641C14.1641 216.564 14.2393 216.867 14.3896 217.127C14.5446 217.387 14.7633 217.59 15.0459 217.735C15.333 217.877 15.6702 217.947 16.0576 217.947C16.445 217.947 16.7777 217.881 17.0557 217.749C17.3382 217.612 17.5547 217.407 17.7051 217.134C17.86 216.86 17.9375 216.516 17.9375 216.102C17.9375 215.687 17.8509 215.347 17.6777 215.083C17.5046 214.814 17.2585 214.616 16.9395 214.488C16.625 214.356 16.2536 214.29 15.8252 214.29H14.9229ZM27.2002 213.08V214.598C27.2002 215.413 27.1273 216.102 26.9814 216.662C26.8356 217.223 26.626 217.674 26.3525 218.016C26.0791 218.357 25.7487 218.606 25.3613 218.761C24.9785 218.911 24.5456 218.986 24.0625 218.986C23.6797 218.986 23.3265 218.938 23.0029 218.843C22.6794 218.747 22.3877 218.594 22.1279 218.385C21.8727 218.171 21.654 217.893 21.4717 217.551C21.2894 217.209 21.1504 216.794 21.0547 216.307C20.959 215.819 20.9111 215.249 20.9111 214.598V213.08C20.9111 212.264 20.984 211.581 21.1299 211.029C21.2803 210.478 21.4922 210.036 21.7656 209.703C22.0391 209.366 22.3672 209.124 22.75 208.979C23.1374 208.833 23.5703 208.76 24.0488 208.76C24.4362 208.76 24.7917 208.808 25.1152 208.903C25.4434 208.994 25.735 209.143 25.9902 209.348C26.2454 209.548 26.4619 209.817 26.6396 210.154C26.8219 210.487 26.9609 210.895 27.0566 211.378C27.1523 211.861 27.2002 212.428 27.2002 213.08ZM25.9287 214.803V212.868C25.9287 212.422 25.9014 212.03 25.8467 211.692C25.7965 211.351 25.7214 211.059 25.6211 210.817C25.5208 210.576 25.3932 210.38 25.2383 210.229C25.0879 210.079 24.9124 209.97 24.7119 209.901C24.516 209.828 24.2949 209.792 24.0488 209.792C23.748 209.792 23.4814 209.849 23.249 209.963C23.0166 210.072 22.8206 210.248 22.6611 210.489C22.5062 210.731 22.3877 211.048 22.3057 211.439C22.2236 211.831 22.1826 212.308 22.1826 212.868V214.803C22.1826 215.249 22.2077 215.644 22.2578 215.985C22.3125 216.327 22.3923 216.623 22.4971 216.874C22.6019 217.12 22.7295 217.323 22.8799 217.482C23.0303 217.642 23.2035 217.76 23.3994 217.838C23.5999 217.911 23.821 217.947 24.0625 217.947C24.3724 217.947 24.6436 217.888 24.876 217.77C25.1084 217.651 25.3021 217.466 25.457 217.216C25.6165 216.961 25.735 216.635 25.8125 216.238C25.89 215.837 25.9287 215.359 25.9287 214.803Z" fill="black"/>
<path d="M9.3584 176.857V186.865H8.09375V178.437L5.54395 179.366V178.225L9.16016 176.857H9.3584ZM19.8037 183.516V184.555H12.6123V183.81L17.0693 176.912H18.1016L16.9941 178.908L14.0479 183.516H19.8037ZM18.416 176.912V186.865H17.1514V176.912H18.416ZM27.2002 181.096V182.613C27.2002 183.429 27.1273 184.117 26.9814 184.678C26.8356 185.238 26.626 185.689 26.3525 186.031C26.0791 186.373 25.7487 186.621 25.3613 186.776C24.9785 186.927 24.5456 187.002 24.0625 187.002C23.6797 187.002 23.3265 186.954 23.0029 186.858C22.6794 186.763 22.3877 186.61 22.1279 186.4C21.8727 186.186 21.654 185.908 21.4717 185.566C21.2894 185.225 21.1504 184.81 21.0547 184.322C20.959 183.835 20.9111 183.265 20.9111 182.613V181.096C20.9111 180.28 20.984 179.596 21.1299 179.045C21.2803 178.493 21.4922 178.051 21.7656 177.719C22.0391 177.382 22.3672 177.14 22.75 176.994C23.1374 176.848 23.5703 176.775 24.0488 176.775C24.4362 176.775 24.7917 176.823 25.1152 176.919C25.4434 177.01 25.735 177.158 25.9902 177.363C26.2454 177.564 26.4619 177.833 26.6396 178.17C26.8219 178.503 26.9609 178.91 27.0566 179.394C27.1523 179.877 27.2002 180.444 27.2002 181.096ZM25.9287 182.818V180.884C25.9287 180.437 25.9014 180.045 25.8467 179.708C25.7965 179.366 25.7214 179.075 25.6211 178.833C25.5208 178.591 25.3932 178.396 25.2383 178.245C25.0879 178.095 24.9124 177.985 24.7119 177.917C24.516 177.844 24.2949 177.808 24.0488 177.808C23.748 177.808 23.4814 177.865 23.249 177.979C23.0166 178.088 22.8206 178.263 22.6611 178.505C22.5062 178.746 22.3877 179.063 22.3057 179.455C22.2236 179.847 22.1826 180.323 22.1826 180.884V182.818C22.1826 183.265 22.2077 183.659 22.2578 184.001C22.3125 184.343 22.3923 184.639 22.4971 184.89C22.6019 185.136 22.7295 185.339 22.8799 185.498C23.0303 185.658 23.2035 185.776 23.3994 185.854C23.5999 185.926 23.821 185.963 24.0625 185.963C24.3724 185.963 24.6436 185.904 24.876 185.785C25.1084 185.667 25.3021 185.482 25.457 185.231C25.6165 184.976 25.735 184.65 25.8125 184.254C25.89 183.853 25.9287 183.374 25.9287 182.818Z" fill="black"/>
<path d="M9.3584 144.875V154.883H8.09375V146.454L5.54395 147.384V146.242L9.16016 144.875H9.3584ZM14.6768 150.146L13.665 149.886L14.1641 144.93H19.2705V146.099H15.2373L14.9365 148.806C15.1188 148.701 15.349 148.603 15.627 148.512C15.9095 148.421 16.2331 148.375 16.5977 148.375C17.0579 148.375 17.4704 148.455 17.835 148.614C18.1995 148.769 18.5094 148.993 18.7646 149.284C19.0244 149.576 19.2227 149.927 19.3594 150.337C19.4961 150.747 19.5645 151.205 19.5645 151.711C19.5645 152.189 19.4984 152.629 19.3662 153.03C19.2386 153.431 19.0449 153.782 18.7852 154.083C18.5254 154.379 18.1973 154.609 17.8008 154.773C17.4089 154.938 16.9463 155.02 16.4131 155.02C16.012 155.02 15.6315 154.965 15.2715 154.855C14.916 154.742 14.597 154.571 14.3145 154.343C14.0365 154.11 13.8086 153.823 13.6309 153.481C13.4577 153.135 13.3483 152.729 13.3027 152.265H14.5059C14.5605 152.638 14.6699 152.953 14.834 153.208C14.998 153.463 15.2122 153.657 15.4766 153.789C15.7454 153.917 16.0576 153.98 16.4131 153.98C16.7139 153.98 16.9805 153.928 17.2129 153.823C17.4453 153.718 17.6413 153.568 17.8008 153.372C17.9603 153.176 18.0811 152.939 18.1631 152.661C18.2497 152.383 18.293 152.071 18.293 151.725C18.293 151.41 18.2497 151.118 18.1631 150.85C18.0765 150.581 17.9466 150.346 17.7734 150.146C17.6048 149.945 17.3975 149.79 17.1514 149.681C16.9053 149.567 16.6227 149.51 16.3037 149.51C15.8799 149.51 15.5586 149.567 15.3398 149.681C15.1257 149.795 14.9046 149.95 14.6768 150.146ZM27.2002 149.113V150.631C27.2002 151.447 27.1273 152.135 26.9814 152.695C26.8356 153.256 26.626 153.707 26.3525 154.049C26.0791 154.391 25.7487 154.639 25.3613 154.794C24.9785 154.944 24.5456 155.02 24.0625 155.02C23.6797 155.02 23.3265 154.972 23.0029 154.876C22.6794 154.78 22.3877 154.628 22.1279 154.418C21.8727 154.204 21.654 153.926 21.4717 153.584C21.2894 153.242 21.1504 152.827 21.0547 152.34C20.959 151.852 20.9111 151.283 20.9111 150.631V149.113C20.9111 148.298 20.984 147.614 21.1299 147.062C21.2803 146.511 21.4922 146.069 21.7656 145.736C22.0391 145.399 22.3672 145.158 22.75 145.012C23.1374 144.866 23.5703 144.793 24.0488 144.793C24.4362 144.793 24.7917 144.841 25.1152 144.937C25.4434 145.028 25.735 145.176 25.9902 145.381C26.2454 145.581 26.4619 145.85 26.6396 146.188C26.8219 146.52 26.9609 146.928 27.0566 147.411C27.1523 147.894 27.2002 148.462 27.2002 149.113ZM25.9287 150.836V148.901C25.9287 148.455 25.9014 148.063 25.8467 147.726C25.7965 147.384 25.7214 147.092 25.6211 146.851C25.5208 146.609 25.3932 146.413 25.2383 146.263C25.0879 146.112 24.9124 146.003 24.7119 145.935C24.516 145.862 24.2949 145.825 24.0488 145.825C23.748 145.825 23.4814 145.882 23.249 145.996C23.0166 146.105 22.8206 146.281 22.6611 146.522C22.5062 146.764 22.3877 147.081 22.3057 147.473C22.2236 147.865 22.1826 148.341 22.1826 148.901V150.836C22.1826 151.283 22.2077 151.677 22.2578 152.019C22.3125 152.36 22.3923 152.657 22.4971 152.907C22.6019 153.153 22.7295 153.356 22.8799 153.516C23.0303 153.675 23.2035 153.794 23.3994 153.871C23.5999 153.944 23.821 153.98 24.0625 153.98C24.3724 153.98 24.6436 153.921 24.876 153.803C25.1084 153.684 25.3021 153.5 25.457 153.249C25.6165 152.994 25.735 152.668 25.8125 152.271C25.89 151.87 25.9287 151.392 25.9287 150.836Z" fill="black"/>
<path d="M9.3584 112.992L9.3584 123H8.09375L8.09375 114.571L5.54395 115.501V114.359L9.16016 112.992H9.3584ZM17.9307 113.033H18.04V114.106H17.9307C17.2607 114.106 16.7002 114.216 16.249 114.435C15.7979 114.649 15.4401 114.938 15.1758 115.303C14.9115 115.663 14.7201 116.068 14.6016 116.52C14.4876 116.971 14.4307 117.429 14.4307 117.894V119.356C14.4307 119.799 14.4831 120.19 14.5879 120.532C14.6927 120.869 14.8363 121.154 15.0186 121.387C15.2008 121.619 15.4059 121.795 15.6338 121.913C15.8662 122.032 16.1077 122.091 16.3584 122.091C16.6501 122.091 16.9098 122.036 17.1377 121.927C17.3656 121.813 17.557 121.656 17.7119 121.455C17.8714 121.25 17.9922 121.008 18.0742 120.73C18.1562 120.452 18.1973 120.147 18.1973 119.814C18.1973 119.518 18.1608 119.233 18.0879 118.96C18.015 118.682 17.9033 118.436 17.7529 118.222C17.6025 118.003 17.4134 117.832 17.1855 117.709C16.9622 117.581 16.6956 117.518 16.3857 117.518C16.0348 117.518 15.7067 117.604 15.4014 117.777C15.1006 117.946 14.8522 118.169 14.6562 118.447C14.4648 118.721 14.3555 119.019 14.3281 119.343L13.6582 119.336C13.722 118.826 13.8405 118.39 14.0137 118.03C14.1914 117.666 14.4102 117.369 14.6699 117.142C14.9342 116.909 15.2282 116.741 15.5518 116.636C15.8799 116.526 16.2262 116.472 16.5908 116.472C17.0876 116.472 17.516 116.565 17.876 116.752C18.236 116.939 18.5322 117.189 18.7646 117.504C18.9971 117.814 19.168 118.165 19.2773 118.557C19.3913 118.944 19.4482 119.343 19.4482 119.753C19.4482 120.222 19.3822 120.662 19.25 121.072C19.1178 121.482 18.9196 121.842 18.6553 122.152C18.3955 122.462 18.0742 122.704 17.6914 122.877C17.3086 123.05 16.8643 123.137 16.3584 123.137C15.8206 123.137 15.3512 123.027 14.9502 122.809C14.5492 122.585 14.2165 122.289 13.9521 121.92C13.6878 121.551 13.4896 121.141 13.3574 120.689C13.2253 120.238 13.1592 119.78 13.1592 119.315V118.721C13.1592 118.019 13.2298 117.331 13.3711 116.656C13.5124 115.982 13.7562 115.371 14.1025 114.824C14.4535 114.277 14.9388 113.842 15.5586 113.519C16.1784 113.195 16.9691 113.033 17.9307 113.033ZM27.2002 117.23V118.748C27.2002 119.564 27.1273 120.252 26.9814 120.812C26.8356 121.373 26.626 121.824 26.3525 122.166C26.0791 122.508 25.7487 122.756 25.3613 122.911C24.9785 123.062 24.5456 123.137 24.0625 123.137C23.6797 123.137 23.3265 123.089 23.0029 122.993C22.6794 122.897 22.3877 122.745 22.1279 122.535C21.8727 122.321 21.654 122.043 21.4717 121.701C21.2894 121.359 21.1504 120.945 21.0547 120.457C20.959 119.969 20.9111 119.4 20.9111 118.748V117.23C20.9111 116.415 20.984 115.731 21.1299 115.18C21.2803 114.628 21.4922 114.186 21.7656 113.854C22.0391 113.516 22.3672 113.275 22.75 113.129C23.1374 112.983 23.5703 112.91 24.0488 112.91C24.4362 112.91 24.7917 112.958 25.1152 113.054C25.4434 113.145 25.735 113.293 25.9902 113.498C26.2454 113.699 26.4619 113.967 26.6396 114.305C26.8219 114.637 26.9609 115.045 27.0566 115.528C27.1523 116.011 27.2002 116.579 27.2002 117.23ZM25.9287 118.953V117.019C25.9287 116.572 25.9014 116.18 25.8467 115.843C25.7965 115.501 25.7214 115.209 25.6211 114.968C25.5208 114.726 25.3932 114.53 25.2383 114.38C25.0879 114.229 24.9124 114.12 24.7119 114.052C24.516 113.979 24.2949 113.942 24.0488 113.942C23.748 113.942 23.4814 113.999 23.249 114.113C23.0166 114.223 22.8206 114.398 22.6611 114.64C22.5062 114.881 22.3877 115.198 22.3057 115.59C22.2236 115.982 22.1826 116.458 22.1826 117.019V118.953C22.1826 119.4 22.2077 119.794 22.2578 120.136C22.3125 120.478 22.3923 120.774 22.4971 121.024C22.6019 121.271 22.7295 121.473 22.8799 121.633C23.0303 121.792 23.2035 121.911 23.3994 121.988C23.5999 122.061 23.821 122.098 24.0625 122.098C24.3724 122.098 24.6436 122.038 24.876 121.92C25.1084 121.801 25.3021 121.617 25.457 121.366C25.6165 121.111 25.735 120.785 25.8125 120.389C25.89 119.988 25.9287 119.509 25.9287 118.953Z" fill="black"/>
<path d="M9.3584 80.9922V91H8.09375V82.5713L5.54395 83.501V82.3594L9.16016 80.9922H9.3584ZM19.5098 81.0469V81.7578L15.3877 91H14.0547L18.1699 82.0859H12.7832V81.0469H19.5098ZM27.2002 85.2305V86.748C27.2002 87.5638 27.1273 88.252 26.9814 88.8125C26.8356 89.373 26.626 89.8242 26.3525 90.166C26.0791 90.5078 25.7487 90.7562 25.3613 90.9111C24.9785 91.0615 24.5456 91.1367 24.0625 91.1367C23.6797 91.1367 23.3265 91.0889 23.0029 90.9932C22.6794 90.8975 22.3877 90.7448 22.1279 90.5352C21.8727 90.321 21.654 90.043 21.4717 89.7012C21.2894 89.3594 21.1504 88.9447 21.0547 88.457C20.959 87.9694 20.9111 87.3997 20.9111 86.748V85.2305C20.9111 84.4147 20.984 83.7311 21.1299 83.1797C21.2803 82.6283 21.4922 82.1862 21.7656 81.8535C22.0391 81.5163 22.3672 81.2747 22.75 81.1289C23.1374 80.9831 23.5703 80.9102 24.0488 80.9102C24.4362 80.9102 24.7917 80.958 25.1152 81.0537C25.4434 81.1449 25.735 81.293 25.9902 81.498C26.2454 81.6986 26.4619 81.9674 26.6396 82.3047C26.8219 82.6374 26.9609 83.0452 27.0566 83.5283C27.1523 84.0114 27.2002 84.5788 27.2002 85.2305ZM25.9287 86.9531V85.0186C25.9287 84.5719 25.9014 84.18 25.8467 83.8428C25.7965 83.501 25.7214 83.2093 25.6211 82.9678C25.5208 82.7262 25.3932 82.5303 25.2383 82.3799C25.0879 82.2295 24.9124 82.1201 24.7119 82.0518C24.516 81.9788 24.2949 81.9424 24.0488 81.9424C23.748 81.9424 23.4814 81.9993 23.249 82.1133C23.0166 82.2227 22.8206 82.3981 22.6611 82.6396C22.5062 82.8812 22.3877 83.1979 22.3057 83.5898C22.2236 83.9818 22.1826 84.458 22.1826 85.0186V86.9531C22.1826 87.3997 22.2077 87.7939 22.2578 88.1357C22.3125 88.4775 22.3923 88.7738 22.4971 89.0244C22.6019 89.2705 22.7295 89.4733 22.8799 89.6328C23.0303 89.7923 23.2035 89.9108 23.3994 89.9883C23.5999 90.0612 23.821 90.0977 24.0625 90.0977C24.3724 90.0977 24.6436 90.0384 24.876 89.9199C25.1084 89.8014 25.3021 89.6169 25.457 89.3662C25.6165 89.111 25.735 88.7852 25.8125 88.3887C25.89 87.9876 25.9287 87.5091 25.9287 86.9531Z" fill="black"/>
<path d="M9.3584 48.9238V58.9316H8.09375V50.5029L5.54395 51.4326V50.291L9.16016 48.9238H9.3584ZM19.3525 56.2383C19.3525 56.8444 19.2113 57.3594 18.9287 57.7832C18.6507 58.2025 18.2725 58.5215 17.7939 58.7402C17.32 58.959 16.7845 59.0684 16.1875 59.0684C15.5905 59.0684 15.0527 58.959 14.5742 58.7402C14.0957 58.5215 13.7174 58.2025 13.4395 57.7832C13.1615 57.3594 13.0225 56.8444 13.0225 56.2383C13.0225 55.8418 13.0977 55.4795 13.248 55.1514C13.403 54.8187 13.6195 54.5293 13.8975 54.2832C14.18 54.0371 14.5127 53.848 14.8955 53.7158C15.2829 53.5791 15.709 53.5107 16.1738 53.5107C16.7845 53.5107 17.3291 53.6292 17.8076 53.8662C18.2861 54.0986 18.6621 54.4199 18.9355 54.8301C19.2135 55.2402 19.3525 55.7096 19.3525 56.2383ZM18.0811 56.2109C18.0811 55.8418 18.0013 55.516 17.8418 55.2334C17.6823 54.9463 17.459 54.723 17.1719 54.5635C16.8848 54.404 16.5521 54.3242 16.1738 54.3242C15.7865 54.3242 15.4515 54.404 15.1689 54.5635C14.891 54.723 14.6745 54.9463 14.5195 55.2334C14.3646 55.516 14.2871 55.8418 14.2871 56.2109C14.2871 56.5938 14.3623 56.9219 14.5127 57.1953C14.6676 57.4642 14.8864 57.6715 15.1689 57.8174C15.4561 57.9587 15.7956 58.0293 16.1875 58.0293C16.5794 58.0293 16.9167 57.9587 17.1992 57.8174C17.4818 57.6715 17.6982 57.4642 17.8486 57.1953C18.0036 56.9219 18.0811 56.5938 18.0811 56.2109ZM19.1201 51.5693C19.1201 52.0524 18.9925 52.4876 18.7373 52.875C18.4821 53.2624 18.1335 53.5677 17.6914 53.791C17.2493 54.0143 16.748 54.126 16.1875 54.126C15.6178 54.126 15.1097 54.0143 14.6631 53.791C14.221 53.5677 13.8747 53.2624 13.624 52.875C13.3734 52.4876 13.248 52.0524 13.248 51.5693C13.248 50.9906 13.3734 50.4984 13.624 50.0928C13.8792 49.6872 14.2279 49.3773 14.6699 49.1631C15.112 48.9489 15.6156 48.8418 16.1807 48.8418C16.7503 48.8418 17.2562 48.9489 17.6982 49.1631C18.1403 49.3773 18.4867 49.6872 18.7373 50.0928C18.9925 50.4984 19.1201 50.9906 19.1201 51.5693ZM17.8555 51.5898C17.8555 51.2572 17.7848 50.9632 17.6436 50.708C17.5023 50.4528 17.3063 50.2523 17.0557 50.1064C16.805 49.9561 16.5133 49.8809 16.1807 49.8809C15.848 49.8809 15.5563 49.9515 15.3057 50.0928C15.0596 50.2295 14.8659 50.4255 14.7246 50.6807C14.5879 50.9359 14.5195 51.2389 14.5195 51.5898C14.5195 51.9316 14.5879 52.2301 14.7246 52.4854C14.8659 52.7406 15.0618 52.9388 15.3125 53.0801C15.5632 53.2214 15.8548 53.292 16.1875 53.292C16.5202 53.292 16.8096 53.2214 17.0557 53.0801C17.3063 52.9388 17.5023 52.7406 17.6436 52.4854C17.7848 52.2301 17.8555 51.9316 17.8555 51.5898ZM27.2002 53.1621V54.6797C27.2002 55.4954 27.1273 56.1836 26.9814 56.7441C26.8356 57.3047 26.626 57.7559 26.3525 58.0977C26.0791 58.4395 25.7487 58.6878 25.3613 58.8428C24.9785 58.9932 24.5456 59.0684 24.0625 59.0684C23.6797 59.0684 23.3265 59.0205 23.0029 58.9248C22.6794 58.8291 22.3877 58.6764 22.1279 58.4668C21.8727 58.2526 21.654 57.9746 21.4717 57.6328C21.2894 57.291 21.1504 56.8763 21.0547 56.3887C20.959 55.901 20.9111 55.3314 20.9111 54.6797V53.1621C20.9111 52.3464 20.984 51.6628 21.1299 51.1113C21.2803 50.5599 21.4922 50.1178 21.7656 49.7852C22.0391 49.4479 22.3672 49.2064 22.75 49.0605C23.1374 48.9147 23.5703 48.8418 24.0488 48.8418C24.4362 48.8418 24.7917 48.8896 25.1152 48.9854C25.4434 49.0765 25.735 49.2246 25.9902 49.4297C26.2454 49.6302 26.4619 49.8991 26.6396 50.2363C26.8219 50.569 26.9609 50.9769 27.0566 51.46C27.1523 51.943 27.2002 52.5104 27.2002 53.1621ZM25.9287 54.8848V52.9502C25.9287 52.5036 25.9014 52.1117 25.8467 51.7744C25.7965 51.4326 25.7214 51.141 25.6211 50.8994C25.5208 50.6579 25.3932 50.4619 25.2383 50.3115C25.0879 50.1611 24.9124 50.0518 24.7119 49.9834C24.516 49.9105 24.2949 49.874 24.0488 49.874C23.748 49.874 23.4814 49.931 23.249 50.0449C23.0166 50.1543 22.8206 50.3298 22.6611 50.5713C22.5062 50.8128 22.3877 51.1296 22.3057 51.5215C22.2236 51.9134 22.1826 52.3896 22.1826 52.9502V54.8848C22.1826 55.3314 22.2077 55.7256 22.2578 56.0674C22.3125 56.4092 22.3923 56.7054 22.4971 56.9561C22.6019 57.2021 22.7295 57.4049 22.8799 57.5645C23.0303 57.724 23.2035 57.8424 23.3994 57.9199C23.5999 57.9928 23.821 58.0293 24.0625 58.0293C24.3724 58.0293 24.6436 57.9701 24.876 57.8516C25.1084 57.7331 25.3021 57.5485 25.457 57.2979C25.6165 57.0426 25.735 56.7168 25.8125 56.3203C25.89 55.9193 25.9287 55.4408 25.9287 54.8848Z" fill="black"/>
<line x1="29" y1="277.5" x2="341" y2="277.5" stroke="black"/>
<line x1="335.5" y1="53.8105" x2="335.5" y2="276.811" stroke="#D8DDE0"/>
<line x1="336" y1="53.5" x2="36" y2="53.5" stroke="#D8DDE0"/>
<line x1="335" y1="85.5" x2="36.0754" y2="85.5" stroke="white"/>
<line x1="335" y1="117.5" x2="36.0754" y2="117.5" stroke="white"/>
<line x1="335" y1="149.5" x2="36.0754" y2="149.5" stroke="white"/>
<line x1="335" y1="181.5" x2="36.0754" y2="181.5" stroke="white"/>
<line x1="335" y1="213.5" x2="36.0754" y2="213.5" stroke="white"/>
<line x1="335" y1="245.5" x2="36.0754" y2="245.5" stroke="white"/>
<line x1="335.5" y1="277" x2="335.5" y2="281.997" stroke="black"/>
<line x1="35.5" y1="277" x2="35.5" y2="281.997" stroke="black"/>
<path d="M15.508 298.463C15.5072 298.23 15.4701 298.025 15.3966 297.848C15.3276 297.666 15.204 297.502 15.0258 297.357C14.8522 297.212 14.6102 297.074 14.2998 296.942C13.9941 296.811 13.6062 296.678 13.1364 296.543C12.6437 296.399 12.1989 296.238 11.8018 296.062C11.4047 295.881 11.0645 295.675 10.7812 295.443C10.4978 295.212 10.2805 294.946 10.1291 294.646C9.97772 294.345 9.90138 294.002 9.90009 293.614C9.89881 293.227 9.97737 292.869 10.1358 292.54C10.2942 292.212 10.5211 291.926 10.8165 291.683C11.1165 291.436 11.4736 291.244 11.8879 291.106C12.3021 290.968 12.7645 290.898 13.2749 290.896C14.0223 290.894 14.6562 291.035 15.1767 291.32C15.7017 291.601 16.1017 291.971 16.3767 292.431C16.6516 292.885 16.79 293.373 16.7917 293.892L15.4792 293.897C15.4779 293.523 15.3971 293.193 15.2366 292.906C15.0762 292.615 14.8339 292.388 14.5098 292.225C14.1856 292.057 13.7752 291.974 13.2785 291.976C12.8091 291.978 12.4219 292.05 12.1171 292.192C11.8122 292.334 11.585 292.526 11.4354 292.768C11.2903 293.01 11.2183 293.286 11.2194 293.596C11.2201 293.806 11.264 293.997 11.3512 294.17C11.4429 294.338 11.5824 294.495 11.7697 294.64C11.9616 294.785 12.2036 294.919 12.4957 295.041C12.7923 295.163 13.1459 295.281 13.5564 295.393C14.122 295.551 14.6103 295.727 15.0211 295.921C15.4319 296.116 15.7698 296.336 16.035 296.581C16.3047 296.822 16.5038 297.097 16.6324 297.406C16.7656 297.711 16.8329 298.057 16.8341 298.445C16.8355 298.85 16.7547 299.218 16.5917 299.546C16.4287 299.875 16.195 300.156 15.8904 300.389C15.5858 300.623 15.2196 300.804 14.7916 300.933C14.3682 301.057 13.8944 301.121 13.3704 301.122C12.9101 301.124 12.4564 301.062 12.0094 300.935C11.5669 300.809 11.1629 300.619 10.7975 300.365C10.4366 300.111 10.1462 299.798 9.92622 299.425C9.71077 299.047 9.60223 298.61 9.60058 298.113L10.9131 298.109C10.9142 298.451 10.9813 298.744 11.1142 298.99C11.2472 299.231 11.4279 299.431 11.6563 299.59C11.8892 299.749 12.1517 299.866 12.4436 299.943C12.74 300.015 13.0478 300.05 13.3668 300.049C13.8271 300.048 14.2165 299.982 14.5351 299.854C14.8537 299.725 15.0946 299.542 15.2579 299.305C15.4257 299.067 15.5091 298.786 15.508 298.463ZM21.4025 301.096C20.8876 301.097 20.4202 301.012 20.0003 300.841C19.585 300.664 19.2264 300.417 18.9246 300.099C18.6273 299.781 18.3982 299.403 18.2372 298.967C18.0763 298.53 17.9949 298.051 17.9932 297.532L17.9923 297.245C17.9903 296.643 18.0774 296.107 18.2535 295.637C18.4297 295.163 18.6699 294.761 18.9741 294.432C19.2784 294.103 19.6239 293.853 20.0107 293.683C20.3975 293.513 20.7983 293.428 21.213 293.426C21.7416 293.425 22.1977 293.514 22.5811 293.695C22.9691 293.876 23.2866 294.13 23.5338 294.458C23.781 294.78 23.9646 295.163 24.0845 295.604C24.2045 296.041 24.2653 296.52 24.267 297.039L24.2689 297.607L18.7455 297.625L18.7421 296.593L23.0008 296.579L23.0005 296.483C22.9812 296.155 22.9118 295.836 22.7923 295.527C22.6773 295.217 22.4942 294.962 22.2428 294.763C21.9915 294.563 21.6494 294.464 21.2165 294.465C20.9293 294.466 20.6652 294.529 20.4241 294.653C20.183 294.772 19.9762 294.95 19.8038 295.188C19.6314 295.425 19.4979 295.715 19.4034 296.057C19.3088 296.399 19.2623 296.794 19.2637 297.24L19.2647 297.528C19.2659 297.878 19.3148 298.209 19.4115 298.518C19.5128 298.823 19.6573 299.092 19.8449 299.323C20.0371 299.555 20.2678 299.737 20.5371 299.868C20.811 299.999 21.1211 300.064 21.4675 300.063C21.9141 300.062 22.292 299.969 22.6013 299.786C22.9106 299.603 23.181 299.358 23.4124 299.052L24.18 299.658C24.0213 299.9 23.8193 300.131 23.5739 300.35C23.3285 300.57 23.0261 300.748 22.6665 300.886C22.3115 301.024 21.8902 301.094 21.4025 301.096ZM27.0014 294.966L27.0306 303.784L25.7592 303.788L25.7252 293.548L26.8873 293.544L27.0014 294.966ZM31.9921 297.164L31.9926 297.308C31.9943 297.845 31.9322 298.345 31.8061 298.805C31.68 299.261 31.4945 299.659 31.2495 299.997C31.0091 300.335 30.7115 300.598 30.3566 300.786C30.0018 300.974 29.5942 301.069 29.1339 301.07C28.6645 301.072 28.2496 300.995 27.889 300.842C27.5285 300.688 27.2224 300.463 26.9708 300.168C26.7191 299.873 26.5174 299.518 26.3657 299.104C26.2185 298.689 26.1167 298.223 26.0602 297.703L26.0577 296.938C26.1106 296.391 26.2115 295.9 26.3604 295.467C26.5094 295.033 26.7064 294.664 26.9515 294.358C27.2011 294.047 27.5034 293.811 27.8583 293.65C28.2132 293.485 28.6231 293.402 29.088 293.4C29.5528 293.399 29.9655 293.488 30.3262 293.67C30.6868 293.846 30.9907 294.1 31.2379 294.432C31.4851 294.764 31.671 295.162 31.7956 295.627C31.9247 296.086 31.9902 296.599 31.9921 297.164ZM30.7211 297.312L30.7206 297.168C30.7194 296.799 30.6795 296.453 30.6009 296.13C30.5224 295.802 30.4007 295.515 30.2358 295.269C30.0754 295.019 29.8697 294.824 29.6186 294.684C29.3675 294.539 29.0687 294.467 28.7224 294.468C28.4034 294.469 28.1255 294.525 27.8889 294.635C27.6569 294.745 27.4591 294.894 27.2957 295.081C27.1322 295.264 26.9985 295.474 26.8945 295.711C26.795 295.944 26.7206 296.186 26.6713 296.437L26.6772 298.207C26.7694 298.526 26.898 298.826 27.063 299.108C27.2279 299.386 27.4474 299.61 27.7215 299.783C27.9954 299.95 28.3398 300.034 28.7545 300.032C29.0963 300.031 29.39 299.959 29.6356 299.817C29.8858 299.671 30.0902 299.472 30.2489 299.221C30.4121 298.969 30.5319 298.682 30.6083 298.358C30.6847 298.03 30.7223 297.681 30.7211 297.312ZM36.6899 293.512L36.6932 294.482L32.6942 294.496L32.6909 293.525L36.6899 293.512ZM34.0385 291.723L35.3031 291.718L35.3276 299.081C35.3284 299.331 35.3678 299.52 35.4457 299.648C35.5236 299.775 35.6241 299.859 35.7473 299.9C35.8705 299.94 36.0027 299.96 36.144 299.96C36.2488 299.96 36.3581 299.95 36.472 299.931C36.5904 299.908 36.6792 299.89 36.7384 299.876L36.7487 300.908C36.6485 300.94 36.5165 300.97 36.3525 300.998C36.1931 301.031 35.9995 301.047 35.7716 301.048C35.4617 301.049 35.1767 300.988 34.9165 300.866C34.6563 300.744 34.4483 300.54 34.2924 300.253C34.141 299.962 34.0645 299.57 34.0629 299.078L34.0385 291.723ZM48.0518 299.831L48.0553 300.871L41.5406 300.892L41.5376 299.983L44.7863 296.342C45.1859 295.894 45.4945 295.515 45.7122 295.204C45.9345 294.889 46.0885 294.608 46.1743 294.362C46.2646 294.111 46.3093 293.856 46.3084 293.596C46.3073 293.268 46.238 292.972 46.1004 292.708C45.9674 292.44 45.7707 292.226 45.5104 292.067C45.2501 291.909 44.9354 291.83 44.5662 291.831C44.1242 291.833 43.7553 291.921 43.4597 292.095C43.1686 292.264 42.9506 292.502 42.8058 292.808C42.661 293.114 42.5892 293.465 42.5905 293.861L41.3259 293.865C41.324 293.305 41.4454 292.792 41.6899 292.326C41.9345 291.861 42.2978 291.49 42.78 291.215C43.2621 290.936 43.8564 290.795 44.5628 290.792C45.1917 290.79 45.7298 290.9 46.1772 291.122C46.6245 291.339 46.9673 291.648 47.2056 292.048C47.4485 292.444 47.5708 292.908 47.5726 293.441C47.5735 293.733 47.5244 294.029 47.4251 294.331C47.3304 294.627 47.197 294.924 47.0248 295.221C46.8571 295.517 46.6599 295.81 46.433 296.098C46.2106 296.385 45.9723 296.669 45.718 296.948L43.0616 299.848L48.0518 299.831ZM55.6376 295.076L55.6427 296.593C55.6454 297.409 55.5747 298.098 55.4308 298.659C55.2868 299.22 55.0787 299.671 54.8064 300.014C54.5341 300.357 54.2045 300.606 53.8176 300.763C53.4353 300.914 53.0026 300.991 52.5196 300.992C52.1367 300.994 51.7834 300.947 51.4595 300.852C51.1356 300.758 50.8435 300.606 50.583 300.397C50.3271 300.184 50.1074 299.907 49.924 299.566C49.7406 299.224 49.6002 298.81 49.5029 298.323C49.4055 297.835 49.3558 297.266 49.3536 296.614L49.3486 295.097C49.3459 294.281 49.4165 293.597 49.5605 293.045C49.7091 292.493 49.9195 292.051 50.1919 291.717C50.4642 291.379 50.7915 291.136 51.1738 290.989C51.5607 290.842 51.9934 290.768 52.4719 290.766C52.8593 290.765 53.2149 290.811 53.5388 290.906C53.8672 290.996 54.1594 291.143 54.4153 291.347C54.6711 291.547 54.8885 291.815 55.0674 292.152C55.2508 292.484 55.3911 292.891 55.4884 293.374C55.5857 293.857 55.6355 294.424 55.6376 295.076ZM54.3719 296.803L54.3654 294.868C54.364 294.422 54.3353 294.03 54.2795 293.693C54.2282 293.351 54.1521 293.06 54.051 292.818C53.9499 292.577 53.8217 292.382 53.6662 292.232C53.5154 292.082 53.3395 291.973 53.1388 291.905C52.9426 291.833 52.7214 291.797 52.4754 291.798C52.1746 291.799 51.9082 291.857 51.6761 291.972C51.4441 292.082 51.2487 292.258 51.09 292.5C50.9358 292.742 50.8184 293.059 50.7377 293.451C50.6569 293.844 50.6175 294.32 50.6194 294.881L50.6258 296.815C50.6273 297.262 50.6536 297.656 50.7049 297.997C50.7607 298.339 50.8415 298.635 50.9471 298.885C51.0528 299.131 51.181 299.333 51.3319 299.492C51.4829 299.651 51.6564 299.769 51.8527 299.846C52.0534 299.918 52.2746 299.954 52.5161 299.953C52.826 299.952 53.097 299.892 53.329 299.773C53.561 299.654 53.7541 299.468 53.9082 299.217C54.0669 298.962 54.1843 298.635 54.2604 298.239C54.3366 297.837 54.3737 297.359 54.3719 296.803ZM63.8017 299.779L63.8052 300.818L57.2906 300.84L57.2875 299.931L60.5362 296.29C60.9358 295.842 61.2444 295.463 61.4621 295.152C61.6844 294.837 61.8384 294.556 61.9242 294.31C62.0145 294.059 62.0592 293.804 62.0583 293.544C62.0573 293.216 61.9879 292.92 61.8503 292.656C61.7173 292.387 61.5206 292.174 61.2603 292.015C61 291.857 60.6853 291.778 60.3161 291.779C59.8741 291.781 59.5052 291.868 59.2096 292.042C58.9185 292.212 58.7005 292.45 58.5557 292.756C58.4109 293.061 58.3391 293.413 58.3405 293.809L57.0758 293.813C57.074 293.253 57.1953 292.74 57.4398 292.274C57.6844 291.808 58.0478 291.438 58.5299 291.163C59.0121 290.883 59.6063 290.742 60.3127 290.74C60.9416 290.738 61.4797 290.848 61.9271 291.07C62.3744 291.287 62.7172 291.596 62.9556 291.996C63.1984 292.392 63.3207 292.856 63.3225 293.389C63.3235 293.681 63.2743 293.977 63.1751 294.278C63.0803 294.575 62.9469 294.872 62.7747 295.168C62.607 295.465 62.4098 295.757 62.1829 296.045C61.9605 296.333 61.7222 296.617 61.4679 296.895L58.8115 299.796L63.8017 299.779ZM71.6767 299.753L71.6801 300.792L65.1655 300.814L65.1625 299.905L68.4112 296.264C68.8107 295.816 69.1194 295.437 69.3371 295.126C69.5593 294.811 69.7134 294.53 69.7991 294.284C69.8894 294.033 69.9342 293.777 69.9333 293.518C69.9322 293.19 69.8629 292.894 69.7253 292.63C69.5922 292.361 69.3955 292.148 69.1353 291.989C68.875 291.83 68.5602 291.752 68.1911 291.753C67.7491 291.754 67.3802 291.842 67.0846 292.016C66.7934 292.186 66.5755 292.424 66.4307 292.729C66.2858 293.035 66.2141 293.386 66.2154 293.783L64.9508 293.787C64.9489 293.227 65.0703 292.713 65.3148 292.248C65.5594 291.782 65.9227 291.412 66.4049 291.137C66.887 290.857 67.4813 290.716 68.1877 290.714C68.8166 290.712 69.3547 290.822 69.802 291.043C70.2494 291.261 70.5922 291.57 70.8305 291.97C71.0734 292.365 71.1957 292.83 71.1974 293.363C71.1984 293.655 71.1493 293.951 71.05 294.252C70.9553 294.549 70.8218 294.845 70.6496 295.142C70.482 295.439 70.2847 295.731 70.0578 296.019C69.8355 296.307 69.5972 296.59 69.3429 296.869L66.6865 299.77L71.6767 299.753Z" fill="#212B32"/>
<path d="M296.379 298.16L296.355 291.112L297.668 291.108L297.691 298.156C297.693 298.812 297.561 299.366 297.293 299.818C297.026 300.27 296.656 300.615 296.183 300.854C295.714 301.088 295.174 301.206 294.564 301.208C293.953 301.21 293.41 301.107 292.936 300.899C292.461 300.691 292.089 300.373 291.818 299.946C291.548 299.518 291.412 298.979 291.41 298.327L292.729 298.322C292.73 298.742 292.809 299.086 292.965 299.354C293.121 299.622 293.335 299.82 293.609 299.947C293.888 300.073 294.205 300.136 294.56 300.135C294.907 300.134 295.216 300.06 295.489 299.913C295.767 299.762 295.985 299.54 296.143 299.248C296.302 298.951 296.38 298.588 296.379 298.16ZM304.265 299.33L304.246 293.643L305.517 293.638L305.542 301.035L304.332 301.039L304.265 299.33ZM304.499 297.771L305.025 297.755C305.027 298.247 304.976 298.703 304.872 299.123C304.773 299.538 304.611 299.899 304.384 300.205C304.157 300.511 303.859 300.751 303.491 300.925C303.122 301.095 302.673 301.181 302.145 301.183C301.785 301.184 301.454 301.133 301.153 301.029C300.856 300.925 300.601 300.764 300.386 300.546C300.171 300.328 300.004 300.044 299.884 299.693C299.769 299.343 299.71 298.921 299.709 298.429L299.693 293.658L300.958 293.654L300.974 298.439C300.975 298.771 301.012 299.047 301.086 299.265C301.164 299.479 301.267 299.65 301.395 299.777C301.528 299.9 301.674 299.986 301.833 300.035C301.998 300.085 302.166 300.11 302.339 300.109C302.877 300.107 303.303 300.003 303.617 299.797C303.93 299.586 304.155 299.305 304.291 298.954C304.431 298.598 304.5 298.204 304.499 297.771ZM308.715 295.207L308.734 301.024L307.469 301.028L307.445 293.632L308.641 293.628L308.715 295.207ZM308.42 297.047L307.894 297.028C307.897 296.522 307.97 296.055 308.115 295.626C308.259 295.192 308.463 294.816 308.726 294.496C308.989 294.176 309.303 293.929 309.667 293.755C310.036 293.576 310.443 293.485 310.89 293.484C311.254 293.483 311.583 293.532 311.875 293.631C312.167 293.726 312.415 293.88 312.621 294.093C312.832 294.307 312.992 294.584 313.103 294.926C313.213 295.263 313.269 295.675 313.271 296.163L313.287 301.009L312.015 301.013L311.999 296.153C311.998 295.766 311.94 295.456 311.825 295.224C311.71 294.987 311.544 294.817 311.324 294.713C311.105 294.604 310.836 294.55 310.517 294.552C310.203 294.553 309.916 294.62 309.657 294.753C309.402 294.886 309.181 295.069 308.995 295.302C308.814 295.535 308.671 295.802 308.567 296.103C308.468 296.399 308.419 296.714 308.42 297.047ZM325.062 299.931L325.065 300.97L318.55 300.992L318.547 300.083L321.796 296.442C322.196 295.994 322.504 295.615 322.722 295.304C322.944 294.989 323.098 294.708 323.184 294.462C323.274 294.211 323.319 293.955 323.318 293.696C323.317 293.367 323.248 293.071 323.11 292.808C322.977 292.539 322.78 292.326 322.52 292.167C322.26 292.008 321.945 291.93 321.576 291.931C321.134 291.932 320.765 292.02 320.469 292.194C320.178 292.364 319.96 292.602 319.816 292.907C319.671 293.213 319.599 293.564 319.6 293.961L318.336 293.965C318.334 293.405 318.455 292.891 318.7 292.426C318.944 291.96 319.308 291.59 319.79 291.315C320.272 291.035 320.866 290.894 321.573 290.892C322.201 290.89 322.74 291 323.187 291.221C323.634 291.439 323.977 291.747 324.215 292.148C324.458 292.543 324.581 293.008 324.582 293.541C324.583 293.833 324.534 294.129 324.435 294.43C324.34 294.727 324.207 295.023 324.035 295.32C323.867 295.617 323.67 295.909 323.443 296.197C323.22 296.485 322.982 296.768 322.728 297.047L320.071 299.948L325.062 299.931ZM332.647 295.175L332.652 296.693C332.655 297.509 332.585 298.197 332.441 298.758C332.297 299.319 332.088 299.771 331.816 300.114C331.544 300.456 331.214 300.706 330.827 300.862C330.445 301.014 330.012 301.09 329.529 301.092C329.147 301.093 328.793 301.047 328.469 300.952C328.145 300.857 327.853 300.706 327.593 300.497C327.337 300.284 327.117 300.006 326.934 299.665C326.75 299.324 326.61 298.91 326.513 298.422C326.415 297.935 326.366 297.366 326.363 296.714L326.358 295.196C326.356 294.381 326.426 293.697 326.57 293.145C326.719 292.593 326.929 292.15 327.202 291.816C327.474 291.478 327.801 291.236 328.184 291.089C328.571 290.941 329.003 290.867 329.482 290.866C329.869 290.864 330.225 290.911 330.549 291.006C330.877 291.096 331.169 291.243 331.425 291.447C331.681 291.647 331.898 291.915 332.077 292.251C332.261 292.584 332.401 292.991 332.498 293.474C332.596 293.956 332.645 294.524 332.647 295.175ZM331.382 296.902L331.375 294.968C331.374 294.521 331.345 294.129 331.289 293.792C331.238 293.451 331.162 293.159 331.061 292.918C330.96 292.677 330.831 292.481 330.676 292.331C330.525 292.181 330.349 292.073 330.149 292.005C329.952 291.933 329.731 291.897 329.485 291.898C329.184 291.899 328.918 291.957 328.686 292.071C328.454 292.181 328.258 292.358 328.1 292.6C327.946 292.842 327.828 293.159 327.747 293.551C327.667 293.943 327.627 294.42 327.629 294.98L327.636 296.915C327.637 297.361 327.663 297.755 327.715 298.097C327.771 298.439 327.851 298.735 327.957 298.985C328.063 299.231 328.191 299.433 328.342 299.592C328.493 299.751 328.666 299.869 328.862 299.946C329.063 300.018 329.284 300.054 329.526 300.053C329.836 300.052 330.107 299.992 330.339 299.873C330.571 299.753 330.764 299.568 330.918 299.317C331.077 299.061 331.194 298.735 331.27 298.338C331.346 297.937 331.383 297.458 331.382 296.902ZM340.812 299.879L340.815 300.918L334.3 300.939L334.297 300.03L337.546 296.39C337.946 295.942 338.254 295.562 338.472 295.252C338.694 294.937 338.848 294.656 338.934 294.409C339.024 294.158 339.069 293.903 339.068 293.643C339.067 293.315 338.998 293.019 338.86 292.755C338.727 292.487 338.53 292.273 338.27 292.115C338.01 291.956 337.695 291.877 337.326 291.879C336.884 291.88 336.515 291.968 336.219 292.142C335.928 292.312 335.71 292.549 335.566 292.855C335.421 293.161 335.349 293.512 335.35 293.909L334.086 293.913C334.084 293.352 334.205 292.839 334.45 292.373C334.694 291.908 335.058 291.537 335.54 291.262C336.022 290.983 336.616 290.842 337.322 290.84C337.951 290.837 338.49 290.947 338.937 291.169C339.384 291.386 339.727 291.695 339.965 292.095C340.208 292.491 340.331 292.956 340.332 293.489C340.333 293.78 340.284 294.077 340.185 294.378C340.09 294.674 339.957 294.971 339.784 295.268C339.617 295.565 339.42 295.857 339.193 296.145C338.97 296.433 338.732 296.716 338.478 296.995L335.821 299.895L340.812 299.879ZM343.752 296.171L342.74 295.914L343.222 290.957L348.329 290.94L348.333 292.109L344.299 292.122L344.008 294.83C344.19 294.725 344.419 294.626 344.697 294.534C344.979 294.442 345.303 294.395 345.667 294.394C346.128 294.392 346.54 294.471 346.905 294.629C347.271 294.783 347.581 295.005 347.837 295.296C348.098 295.587 348.297 295.937 348.436 296.347C348.574 296.756 348.644 297.214 348.645 297.72C348.647 298.199 348.582 298.639 348.451 299.04C348.325 299.441 348.133 299.793 347.874 300.095C347.615 300.392 347.288 300.623 346.892 300.788C346.5 300.954 346.038 301.037 345.505 301.039C345.104 301.04 344.723 300.987 344.363 300.879C344.007 300.766 343.687 300.596 343.404 300.369C343.125 300.138 342.896 299.851 342.718 299.51C342.543 299.164 342.432 298.759 342.385 298.294L343.588 298.29C343.644 298.664 343.755 298.978 343.92 299.233C344.085 299.487 344.299 299.68 344.564 299.812C344.834 299.938 345.146 300.001 345.501 300C345.802 299.999 346.069 299.946 346.301 299.84C346.533 299.735 346.728 299.583 346.887 299.387C347.046 299.19 347.166 298.953 347.247 298.675C347.333 298.397 347.375 298.084 347.374 297.738C347.373 297.423 347.328 297.132 347.241 296.863C347.154 296.595 347.023 296.36 346.849 296.161C346.68 295.961 346.472 295.806 346.225 295.698C345.979 295.585 345.696 295.529 345.377 295.53C344.953 295.531 344.632 295.589 344.414 295.704C344.2 295.818 343.98 295.974 343.752 296.171Z" fill="#212B32"/>
<line x1="36" y1="260.508" x2="335" y2="260.508" stroke="white"/>
<line x1="36" y1="263.811" x2="335" y2="263.811" stroke="white"/>
<line x1="36" y1="262.159" x2="335" y2="262.159" stroke="black" stroke-width="2"/>
<path d="M42.872 326H36.296V314.832H38.536V324.24H42.872V326ZM51.016 326H49.128C49.064 325.696 49.048 325.136 49.032 324.768H49C48.52 325.648 47.48 326.192 46.456 326.192C44.968 326.192 43.576 325.296 43.576 323.728C43.576 322.304 44.392 320.912 47.608 320.912H48.936V320.88C48.936 319.504 48.232 319.136 47.08 319.136C46.168 319.136 45.256 319.488 44.536 320.032L44.472 318.192C45.24 317.84 46.344 317.568 47.336 317.568C49.8 317.568 50.888 318.56 50.888 321.04V322.736C50.888 323.168 50.92 324.896 51.016 326ZM48.936 322.288V322.192H47.992C46.472 322.192 45.624 322.64 45.624 323.616C45.624 324.256 46.12 324.624 46.984 324.624C47.944 324.624 48.936 323.968 48.936 322.288ZM52.5466 325.84L52.6746 324.08C53.3466 324.416 54.0506 324.624 54.7866 324.624C55.3626 324.624 56.1946 324.4 56.1946 323.616C56.1946 322.928 55.5226 322.72 54.6586 322.48C53.2186 322.096 52.4666 321.504 52.4666 320.128C52.4666 318.464 53.8586 317.568 55.7146 317.568C56.3706 317.568 57.0106 317.632 58.0346 317.872L57.8906 319.488C57.1546 319.232 56.6586 319.136 55.9866 319.136C55.2346 319.136 54.7066 319.44 54.7066 320.048C54.7066 320.512 55.1546 320.736 56.1306 321.008C57.6666 321.44 58.4346 322.128 58.4346 323.504C58.4346 325.312 56.8826 326.192 54.9626 326.192C54.1786 326.192 53.3306 326.048 52.5466 325.84ZM64.936 324.304L65 326C64.552 326.128 64.056 326.192 63.432 326.192C61.688 326.192 60.808 325.104 60.808 323.52V319.328H59.224V317.76H60.808V316.112L62.952 315.424V317.76H64.856V319.328H62.952V323.152C62.952 324.016 63.224 324.528 63.976 324.528C64.344 324.528 64.712 324.448 64.936 324.304ZM70.3919 325.824L70.5199 323.92C71.3359 324.24 72.1519 324.432 72.9839 324.432C74.0559 324.432 75.3519 323.92 75.3519 322.848C75.3519 321.68 74.5199 321.104 72.9039 321.104H71.7999V319.344H72.8879C74.3119 319.344 75.3039 318.832 75.3039 317.872C75.3039 316.912 74.6319 316.4 73.3679 316.4C72.5199 316.4 71.6559 316.608 70.8719 316.992L70.7439 315.2C71.6399 314.848 72.7119 314.64 73.8479 314.64C75.6719 314.64 77.5439 315.376 77.5439 317.504C77.5439 318.784 76.8879 319.632 75.4639 320.176V320.208C76.8079 320.384 77.5919 321.408 77.5919 322.864C77.5919 325.104 75.8319 326.192 73.2879 326.192C72.3279 326.192 71.2399 326.064 70.3919 325.824ZM83.7036 329.328L83.8476 327.744C84.1676 327.856 84.5036 327.888 84.9356 327.888C85.8476 327.888 86.3436 327.264 86.3436 326.416L83.1916 317.76H85.5596L87.5436 323.776H87.5756L89.5596 317.76H91.7356L88.2796 326.912C87.6556 328.544 86.9516 329.552 85.1916 329.552C84.7116 329.552 84.1996 329.472 83.7036 329.328ZM99.6183 323.792V325.536C98.8343 325.968 97.9383 326.192 96.8023 326.192C94.0663 326.192 92.4823 324.624 92.4823 321.92C92.4823 319.616 93.6823 317.568 96.3063 317.568C99.1063 317.568 100.226 319.296 100.226 322.544H94.5303C94.6263 323.84 95.5063 324.624 96.8983 324.624C97.9223 324.624 98.8183 324.24 99.6183 323.792ZM94.5303 321.072H98.1783C98.0983 319.888 97.5383 319.136 96.4183 319.136C95.3463 319.136 94.6423 319.84 94.5303 321.072ZM108.813 326H106.925C106.861 325.696 106.845 325.136 106.829 324.768H106.797C106.317 325.648 105.277 326.192 104.253 326.192C102.765 326.192 101.373 325.296 101.373 323.728C101.373 322.304 102.189 320.912 105.405 320.912H106.733V320.88C106.733 319.504 106.029 319.136 104.877 319.136C103.965 319.136 103.053 319.488 102.333 320.032L102.269 318.192C103.037 317.84 104.141 317.568 105.133 317.568C107.597 317.568 108.685 318.56 108.685 321.04V322.736C108.685 323.168 108.717 324.896 108.813 326ZM106.733 322.288V322.192H105.789C104.269 322.192 103.421 322.64 103.421 323.616C103.421 324.256 103.917 324.624 104.781 324.624C105.741 324.624 106.733 323.968 106.733 322.288ZM112.984 326H110.84V317.76H112.744V319.632H112.776C112.904 318.768 113.799 317.568 115.048 317.568C115.496 317.568 115.624 317.616 115.688 317.632V319.792C115.496 319.68 115.112 319.616 114.728 319.616C113.928 319.616 112.984 320.048 112.984 322.608V326ZM116.562 325.84L116.69 324.08C117.362 324.416 118.066 324.624 118.802 324.624C119.378 324.624 120.21 324.4 120.21 323.616C120.21 322.928 119.538 322.72 118.674 322.48C117.234 322.096 116.482 321.504 116.482 320.128C116.482 318.464 117.874 317.568 119.73 317.568C120.386 317.568 121.026 317.632 122.05 317.872L121.906 319.488C121.17 319.232 120.674 319.136 120.002 319.136C119.25 319.136 118.722 319.44 118.722 320.048C118.722 320.512 119.17 320.736 120.146 321.008C121.682 321.44 122.45 322.128 122.45 323.504C122.45 325.312 120.898 326.192 118.978 326.192C118.194 326.192 117.346 326.048 116.562 325.84Z" fill="#212B32"/>
<line x1="36" y1="103.508" x2="335" y2="103.508" stroke="white"/>
<line x1="36" y1="106.811" x2="335" y2="106.811" stroke="white"/>
<line x1="36" y1="105.159" x2="335" y2="105.159" stroke="black" stroke-width="2"/>
<line x1="57.2746" y1="215.302" x2="179.275" y2="263.302" stroke="#212B32" stroke-width="1.5"/>
<line x1="308.988" y1="266.75" x2="178.988" y2="264.75" stroke="#212B32" stroke-width="1.5"/>
<line x1="41.5303" y1="199.47" x2="57.5303" y2="215.47" stroke="#212B32" stroke-width="1.5"/>
<circle cx="179" cy="264" r="6.75" fill="black" stroke="white" stroke-width="1.5"/>
<circle cx="309" cy="266" r="6.75" fill="black" stroke="white" stroke-width="1.5"/>
<circle cx="41" cy="200" r="6.75" fill="black" stroke="white" stroke-width="1.5"/>
<circle cx="57" cy="216" r="6.75" fill="black" stroke="white" stroke-width="1.5"/>
<rect x="0.5" y="348.5" width="233" height="97" stroke="#D8DDE0"/>
<rect x="10" y="358" width="24" height="24" fill="#FFB81C"/>
<path d="M10 384H34" stroke="black" stroke-width="2"/>
<rect x="10" y="386" width="24" height="24" fill="#00A499"/>
<mask id="mask0_1658_6905" style="mask-type:alpha" maskUnits="userSpaceOnUse" x="10" y="386" width="25" height="24">
<path opacity="0.4" d="M10.2113 386V391.196L16.4023 386H10.2601L10.2113 386Z" fill="#F0F4F5"/>
<path opacity="0.4" d="M10.2115 397.393V403.59L28.6866 386H22.5444L10.2115 397.393Z" fill="#F0F4F5"/>
<path opacity="0.4" d="M10 410H16.1422L34.0002 393.033V386.836L10 410Z" fill="#F0F4F5"/>
<path opacity="0.4" d="M22.2847 410H28.4269L33.927 405.5V399.303L22.2847 410Z" fill="#F0F4F5"/>
</mask>
<g mask="url(#mask0_1658_6905)">
<rect opacity="0.5" width="23.7887" height="24" transform="matrix(1 0 0 -1 10.2113 410)" fill="#F0F4F5"/>
</g>
<circle cx="22" cy="424" r="6.75" fill="black" stroke="white" stroke-width="1.5"/>
<path d="M48.224 376.192C44.912 376.192 42.848 373.904 42.848 370.416C42.848 367.152 44.784 364.64 48.224 364.64C51.536 364.64 53.6 367.024 53.6 370.416C53.6 373.92 51.536 376.192 48.224 376.192ZM48.224 374.784C50.608 374.784 51.904 372.88 51.904 370.416C51.904 368.176 50.736 366.048 48.208 366.048C45.856 366.048 44.544 368.016 44.544 370.416C44.544 372.928 45.872 374.784 48.224 374.784ZM62.9491 376H61.4931V374.704H61.4611C61.0611 375.552 60.0211 376.192 58.7891 376.192C56.7411 376.192 55.7331 374.944 55.7331 372.704V367.84H57.2371V372.24C57.2371 374.752 58.3411 374.976 59.0291 374.976C60.5331 374.976 61.4451 373.76 61.4451 371.632V367.84H62.9491V376ZM69.9784 374.688V375.968C69.5784 376.08 69.1624 376.192 68.6824 376.192C67.0024 376.192 66.1864 375.312 66.1864 373.84V369.056H64.3464V367.84H66.1864V365.952L67.6904 365.472V367.84H69.8504V369.056H67.6904V373.552C67.6904 374.304 68.1384 374.976 68.9544 374.976C69.4504 374.976 69.7704 374.816 69.9784 374.688ZM71.0451 375.744L71.1251 374.4C71.6371 374.736 72.4851 374.976 72.9971 374.976C73.7971 374.976 74.5331 374.624 74.5331 373.808C74.5331 373.36 74.2451 372.96 73.0611 372.432C71.3811 371.68 70.9971 370.976 70.9971 370.144C70.9971 368.448 72.2931 367.648 73.8771 367.648C74.5811 367.648 75.1571 367.792 75.7491 367.968L75.6211 369.28C75.3171 369.088 74.4211 368.864 74.0371 368.864C73.2211 368.864 72.5971 369.216 72.5971 369.856C72.5971 370.528 73.1571 370.864 74.1811 371.312C75.5731 371.92 76.1331 372.56 76.1331 373.648C76.1331 375.2 74.9811 376.192 73.2691 376.192C72.4051 376.192 71.6691 376.08 71.0451 375.744ZM79.7439 366.016H78.0479V364.32H79.7439V366.016ZM79.6479 376H78.1439V367.84H79.6479V376ZM89.621 376H88.181V374.848H88.149C87.589 375.68 86.565 376.192 85.365 376.192C82.949 376.192 81.861 374.08 81.861 371.776C81.861 369.584 83.013 367.648 85.381 367.648C86.597 367.648 87.541 368.064 88.085 368.96H88.117V364H89.621V376ZM85.717 374.976C87.381 374.976 88.117 373.344 88.117 371.936C88.117 370.496 87.397 368.864 85.685 368.864C84.181 368.864 83.461 370.208 83.461 371.808C83.461 373.6 84.325 374.976 85.717 374.976ZM98.4423 374.16V375.664C97.2583 376.144 96.5543 376.192 95.8823 376.192C93.1143 376.192 91.6423 374.592 91.6423 371.776C91.6423 369.312 93.1943 367.648 95.4663 367.648C97.8343 367.648 99.0663 369.152 99.0663 372.256H93.2423C93.2582 373.888 94.5063 374.976 95.9303 374.976C96.7943 374.976 97.9303 374.56 98.4423 374.16ZM93.2423 371.136H97.4663C97.4503 369.824 96.6983 368.864 95.4183 368.864C94.2183 368.864 93.4023 369.728 93.2423 371.136ZM107.034 376H105.53V367.84H106.938V369.104H106.97C107.386 368.224 108.25 367.648 109.114 367.648C109.434 367.648 109.722 367.68 110.09 367.76V369.104C109.818 368.992 109.514 368.96 109.258 368.96C107.882 368.96 107.034 370.288 107.034 372.288V376ZM118.005 374.16V375.664C116.821 376.144 116.117 376.192 115.445 376.192C112.677 376.192 111.205 374.592 111.205 371.776C111.205 369.312 112.757 367.648 115.029 367.648C117.397 367.648 118.629 369.152 118.629 372.256H112.805C112.821 373.888 114.069 374.976 115.493 374.976C116.357 374.976 117.493 374.56 118.005 374.16ZM112.805 371.136H117.029C117.013 369.824 116.261 368.864 114.981 368.864C113.781 368.864 112.965 369.728 112.805 371.136ZM123.119 376H121.615V369.056H119.695V367.84H121.615V367.04C121.615 364.896 122.303 363.808 124.351 363.808C124.671 363.808 124.975 363.84 125.359 363.904L125.295 365.12C125.119 365.056 124.815 365.024 124.575 365.024C123.487 365.024 123.119 365.584 123.119 366.832V367.84H125.279V369.056H123.119V376ZM133.114 374.16V375.664C131.93 376.144 131.226 376.192 130.554 376.192C127.786 376.192 126.314 374.592 126.314 371.776C126.314 369.312 127.866 367.648 130.138 367.648C132.506 367.648 133.738 369.152 133.738 372.256H127.914C127.93 373.888 129.178 374.976 130.602 374.976C131.466 374.976 132.602 374.56 133.114 374.16ZM127.914 371.136H132.138C132.122 369.824 131.37 368.864 130.09 368.864C128.89 368.864 128.074 369.728 127.914 371.136ZM137.253 376H135.749V367.84H137.157V369.104H137.189C137.605 368.224 138.469 367.648 139.333 367.648C139.653 367.648 139.941 367.68 140.309 367.76V369.104C140.037 368.992 139.733 368.96 139.477 368.96C138.101 368.96 137.253 370.288 137.253 372.288V376ZM148.224 374.16V375.664C147.04 376.144 146.336 376.192 145.664 376.192C142.896 376.192 141.424 374.592 141.424 371.776C141.424 369.312 142.976 367.648 145.248 367.648C147.616 367.648 148.848 369.152 148.848 372.256H143.024C143.039 373.888 144.288 374.976 145.712 374.976C146.576 374.976 147.712 374.56 148.224 374.16ZM143.024 371.136H147.248C147.232 369.824 146.48 368.864 145.2 368.864C144 368.864 143.184 369.728 143.024 371.136ZM158.074 376H156.57V371.584C156.57 369.44 155.786 368.864 154.778 368.864C153.21 368.864 152.362 370.16 152.362 372.208V376H150.858V367.84H152.314V369.136H152.346C152.842 368.176 153.882 367.648 155.018 367.648C157.066 367.648 158.074 368.896 158.074 371.12V376ZM165.903 374.512L166.015 375.856C165.503 376.08 164.959 376.192 164.127 376.192C161.647 376.192 159.967 374.24 159.967 371.92C159.967 369.424 161.631 367.648 164.127 367.648C164.719 367.648 165.519 367.792 165.951 367.968L165.823 369.216C165.247 368.976 164.687 368.864 164.191 368.864C162.543 368.864 161.567 370.336 161.567 371.92C161.567 373.392 162.367 374.976 164.287 374.976C164.799 374.976 165.439 374.816 165.903 374.512ZM174.005 374.16V375.664C172.821 376.144 172.117 376.192 171.445 376.192C168.677 376.192 167.205 374.592 167.205 371.776C167.205 369.312 168.757 367.648 171.029 367.648C173.397 367.648 174.629 369.152 174.629 372.256H168.805C168.821 373.888 170.069 374.976 171.493 374.976C172.357 374.976 173.493 374.56 174.005 374.16ZM168.805 371.136H173.029C173.013 369.824 172.261 368.864 170.981 368.864C169.781 368.864 168.965 369.728 168.805 371.136ZM182.597 376H181.093V367.84H182.501V369.104H182.533C182.949 368.224 183.812 367.648 184.677 367.648C184.997 367.648 185.285 367.68 185.653 367.76V369.104C185.381 368.992 185.077 368.96 184.821 368.96C183.445 368.96 182.597 370.288 182.597 372.288V376ZM193.727 376H192.319V374.944H192.287C191.711 375.744 190.815 376.192 189.743 376.192C187.855 376.192 186.767 375.296 186.767 373.648C186.767 371.92 188.415 370.96 190.671 370.96C191.311 370.96 191.823 370.976 192.159 370.992C192.159 369.504 191.567 368.864 190.143 368.864C189.327 368.864 188.431 369.152 187.775 369.696L187.695 368.416C188.447 367.968 189.343 367.648 190.383 367.648C192.639 367.648 193.663 368.72 193.663 371.008V374.592C193.663 375.088 193.679 375.616 193.727 376ZM192.159 372.832V372.112C192.159 372.112 191.487 372.08 191.183 372.08C189.487 372.08 188.367 372.592 188.367 373.648C188.367 374.432 189.087 374.976 189.903 374.976C191.311 374.976 192.159 374.096 192.159 372.832ZM203.418 376H201.914V371.584C201.914 369.44 201.13 368.864 200.122 368.864C198.554 368.864 197.706 370.16 197.706 372.208V376H196.202V367.84H197.658V369.136H197.69C198.186 368.176 199.226 367.648 200.362 367.648C202.41 367.648 203.418 368.896 203.418 371.12V376ZM211.695 375.536V374.736H211.663C211.023 375.568 209.999 376 208.927 376C206.591 376 205.439 374.096 205.439 371.984C205.439 369.76 206.719 367.648 209.087 367.648C210.367 367.648 211.279 368.064 211.775 369.056H211.807V367.84H213.199V375.664C213.199 378.16 211.871 379.552 208.991 379.552C207.951 379.552 207.215 379.376 206.063 378.992L206.223 377.6C207.455 378.176 208.159 378.336 209.151 378.336C210.751 378.336 211.695 377.264 211.695 375.536ZM209.311 374.784C210.639 374.784 211.695 373.632 211.695 372C211.695 370.304 210.895 368.864 209.311 368.864C207.839 368.864 207.039 370.416 207.039 371.904C207.039 373.504 207.951 374.784 209.311 374.784ZM222.02 374.16V375.664C220.836 376.144 220.132 376.192 219.46 376.192C216.692 376.192 215.22 374.592 215.22 371.776C215.22 369.312 216.772 367.648 219.044 367.648C221.412 367.648 222.644 369.152 222.644 372.256H216.82C216.836 373.888 218.084 374.976 219.508 374.976C220.372 374.976 221.508 374.56 222.02 374.16ZM216.82 371.136H221.044C221.028 369.824 220.276 368.864 218.996 368.864C217.796 368.864 216.98 369.728 216.82 371.136Z" fill="black"/>
<path d="M45.024 403H43.424V391.832H45.024V403ZM54.9491 403H53.4451V398.584C53.4451 396.44 52.6611 395.864 51.6531 395.864C50.0851 395.864 49.2371 397.16 49.2371 399.208V403H47.7331V394.84H49.1891V396.136H49.2211C49.7171 395.176 50.7571 394.648 51.8931 394.648C53.9411 394.648 54.9491 395.896 54.9491 398.12V403ZM56.8264 402.744L56.9064 401.4C57.4184 401.736 58.2664 401.976 58.7784 401.976C59.5784 401.976 60.3144 401.624 60.3144 400.808C60.3144 400.36 60.0264 399.96 58.8424 399.432C57.1624 398.68 56.7784 397.976 56.7784 397.144C56.7784 395.448 58.0744 394.648 59.6584 394.648C60.3624 394.648 60.9384 394.792 61.5304 394.968L61.4024 396.28C61.0984 396.088 60.2024 395.864 59.8184 395.864C59.0024 395.864 58.3784 396.216 58.3784 396.856C58.3784 397.528 58.9384 397.864 59.9624 398.312C61.3544 398.92 61.9144 399.56 61.9144 400.648C61.9144 402.2 60.7624 403.192 59.0504 403.192C58.1864 403.192 57.4504 403.08 56.8264 402.744ZM65.5251 393.016H63.8291V391.32H65.5251V393.016ZM65.4291 403H63.9251V394.84H65.4291V403ZM75.4023 403H73.9623V401.848H73.9303C73.3703 402.68 72.3463 403.192 71.1463 403.192C68.7303 403.192 67.6423 401.08 67.6423 398.776C67.6423 396.584 68.7943 394.648 71.1623 394.648C72.3783 394.648 73.3223 395.064 73.8663 395.96H73.8983V391H75.4023V403ZM71.4983 401.976C73.1623 401.976 73.8983 400.344 73.8983 398.936C73.8983 397.496 73.1783 395.864 71.4663 395.864C69.9623 395.864 69.2423 397.208 69.2423 398.808C69.2423 400.6 70.1063 401.976 71.4983 401.976ZM84.2235 401.16V402.664C83.0395 403.144 82.3355 403.192 81.6635 403.192C78.8955 403.192 77.4235 401.592 77.4235 398.776C77.4235 396.312 78.9755 394.648 81.2475 394.648C83.6155 394.648 84.8475 396.152 84.8475 399.256H79.0235C79.0395 400.888 80.2875 401.976 81.7115 401.976C82.5755 401.976 83.7115 401.56 84.2235 401.16ZM79.0235 398.136H83.2475C83.2315 396.824 82.4795 395.864 81.1995 395.864C79.9995 395.864 79.1835 396.728 79.0235 398.136ZM92.8153 403H91.3113V394.84H92.7193V396.104H92.7513C93.1673 395.224 94.0312 394.648 94.8953 394.648C95.2153 394.648 95.5033 394.68 95.8713 394.76V396.104C95.5993 395.992 95.2953 395.96 95.0393 395.96C93.6633 395.96 92.8153 397.288 92.8153 399.288V403ZM103.786 401.16V402.664C102.602 403.144 101.898 403.192 101.226 403.192C98.458 403.192 96.986 401.592 96.986 398.776C96.986 396.312 98.538 394.648 100.81 394.648C103.178 394.648 104.41 396.152 104.41 399.256H98.586C98.602 400.888 99.85 401.976 101.274 401.976C102.138 401.976 103.274 401.56 103.786 401.16ZM98.586 398.136H102.81C102.794 396.824 102.042 395.864 100.762 395.864C99.562 395.864 98.746 396.728 98.586 398.136ZM108.901 403H107.397V396.056H105.477V394.84H107.397V394.04C107.397 391.896 108.085 390.808 110.133 390.808C110.453 390.808 110.757 390.84 111.141 390.904L111.077 392.12C110.901 392.056 110.597 392.024 110.357 392.024C109.269 392.024 108.901 392.584 108.901 393.832V394.84H111.061V396.056H108.901V403ZM118.895 401.16V402.664C117.711 403.144 117.007 403.192 116.335 403.192C113.567 403.192 112.095 401.592 112.095 398.776C112.095 396.312 113.647 394.648 115.919 394.648C118.287 394.648 119.519 396.152 119.519 399.256H113.695C113.711 400.888 114.959 401.976 116.383 401.976C117.247 401.976 118.383 401.56 118.895 401.16ZM113.695 398.136H117.919C117.903 396.824 117.151 395.864 115.871 395.864C114.671 395.864 113.855 396.728 113.695 398.136ZM123.034 403H121.53V394.84H122.938V396.104H122.97C123.386 395.224 124.25 394.648 125.114 394.648C125.434 394.648 125.722 394.68 126.09 394.76V396.104C125.818 395.992 125.514 395.96 125.258 395.96C123.882 395.96 123.034 397.288 123.034 399.288V403ZM134.005 401.16V402.664C132.821 403.144 132.117 403.192 131.445 403.192C128.677 403.192 127.205 401.592 127.205 398.776C127.205 396.312 128.757 394.648 131.029 394.648C133.397 394.648 134.629 396.152 134.629 399.256H128.805C128.821 400.888 130.069 401.976 131.493 401.976C132.357 401.976 133.493 401.56 134.005 401.16ZM128.805 398.136H133.029C133.013 396.824 132.261 395.864 130.981 395.864C129.781 395.864 128.965 396.728 128.805 398.136ZM143.855 403H142.351V398.584C142.351 396.44 141.567 395.864 140.559 395.864C138.991 395.864 138.143 397.16 138.143 399.208V403H136.639V394.84H138.095V396.136H138.127C138.623 395.176 139.663 394.648 140.799 394.648C142.847 394.648 143.855 395.896 143.855 398.12V403ZM151.685 401.512L151.797 402.856C151.285 403.08 150.741 403.192 149.909 403.192C147.429 403.192 145.749 401.24 145.749 398.92C145.749 396.424 147.413 394.648 149.909 394.648C150.501 394.648 151.301 394.792 151.733 394.968L151.605 396.216C151.029 395.976 150.469 395.864 149.973 395.864C148.325 395.864 147.349 397.336 147.349 398.92C147.349 400.392 148.149 401.976 150.069 401.976C150.581 401.976 151.221 401.816 151.685 401.512ZM159.786 401.16V402.664C158.602 403.144 157.898 403.192 157.226 403.192C154.458 403.192 152.986 401.592 152.986 398.776C152.986 396.312 154.538 394.648 156.81 394.648C159.178 394.648 160.41 396.152 160.41 399.256H154.586C154.602 400.888 155.85 401.976 157.274 401.976C158.138 401.976 159.274 401.56 159.786 401.16ZM154.586 398.136H158.81C158.794 396.824 158.042 395.864 156.762 395.864C155.562 395.864 154.746 396.728 154.586 398.136ZM168.378 403H166.874V394.84H168.282V396.104H168.314C168.73 395.224 169.594 394.648 170.458 394.648C170.778 394.648 171.066 394.68 171.434 394.76V396.104C171.162 395.992 170.858 395.96 170.602 395.96C169.226 395.96 168.378 397.288 168.378 399.288V403ZM179.509 403H178.101V401.944H178.069C177.493 402.744 176.597 403.192 175.525 403.192C173.637 403.192 172.549 402.296 172.549 400.648C172.549 398.92 174.197 397.96 176.453 397.96C177.093 397.96 177.605 397.976 177.941 397.992C177.941 396.504 177.349 395.864 175.924 395.864C175.109 395.864 174.213 396.152 173.557 396.696L173.477 395.416C174.229 394.968 175.125 394.648 176.165 394.648C178.421 394.648 179.445 395.72 179.445 398.008V401.592C179.445 402.088 179.461 402.616 179.509 403ZM177.941 399.832V399.112C177.941 399.112 177.269 399.08 176.965 399.08C175.269 399.08 174.149 399.592 174.149 400.648C174.149 401.432 174.869 401.976 175.685 401.976C177.093 401.976 177.941 401.096 177.941 399.832ZM189.199 403H187.695V398.584C187.695 396.44 186.911 395.864 185.903 395.864C184.335 395.864 183.487 397.16 183.487 399.208V403H181.983V394.84H183.439V396.136H183.471C183.967 395.176 185.007 394.648 186.143 394.648C188.191 394.648 189.199 395.896 189.199 398.12V403ZM197.476 402.536V401.736H197.444C196.804 402.568 195.78 403 194.708 403C192.372 403 191.22 401.096 191.22 398.984C191.22 396.76 192.5 394.648 194.868 394.648C196.148 394.648 197.06 395.064 197.556 396.056H197.588V394.84H198.98V402.664C198.98 405.16 197.652 406.552 194.772 406.552C193.732 406.552 192.996 406.376 191.844 405.992L192.004 404.6C193.236 405.176 193.94 405.336 194.932 405.336C196.532 405.336 197.476 404.264 197.476 402.536ZM195.092 401.784C196.42 401.784 197.476 400.632 197.476 399C197.476 397.304 196.676 395.864 195.092 395.864C193.62 395.864 192.82 397.416 192.82 398.904C192.82 400.504 193.732 401.784 195.092 401.784ZM207.802 401.16V402.664C206.618 403.144 205.914 403.192 205.242 403.192C202.474 403.192 201.002 401.592 201.002 398.776C201.002 396.312 202.554 394.648 204.826 394.648C207.194 394.648 208.426 396.152 208.426 399.256H202.602C202.618 400.888 203.866 401.976 205.29 401.976C206.154 401.976 207.29 401.56 207.802 401.16ZM202.602 398.136H206.826C206.81 396.824 206.058 395.864 204.778 395.864C203.578 395.864 202.762 396.728 202.602 398.136Z" fill="black"/>
<path d="M48.144 430H46.544V425.328L42.176 418.832H44.048L47.376 423.84L50.624 418.832H52.496L48.144 425.328V430ZM55.9894 430.192C53.5894 430.192 51.8454 428.288 51.8454 425.92C51.8454 423.424 53.5094 421.648 56.0054 421.648C58.3894 421.648 60.1494 423.344 60.1494 425.92C60.1494 428.208 58.5014 430.192 55.9894 430.192ZM56.0054 428.976C57.6854 428.976 58.5494 427.504 58.5494 425.92C58.5494 424.304 57.5734 422.864 55.9894 422.864C54.4214 422.864 53.4454 424.352 53.4454 425.92C53.4454 427.488 54.3094 428.976 56.0054 428.976ZM69.3866 430H67.9306V428.704H67.8986C67.4986 429.552 66.4586 430.192 65.2266 430.192C63.1786 430.192 62.1706 428.944 62.1706 426.704V421.84H63.6746V426.24C63.6746 428.752 64.7786 428.976 65.4666 428.976C66.9706 428.976 67.8826 427.76 67.8826 425.632V421.84H69.3866V430ZM73.4559 430H71.9519V421.84H73.3599V423.104H73.3919C73.8079 422.224 74.6719 421.648 75.5359 421.648C75.8559 421.648 76.1439 421.68 76.5119 421.76V423.104C76.2399 422.992 75.9359 422.96 75.6799 422.96C74.3039 422.96 73.4559 424.288 73.4559 426.288V430ZM84.1278 430H82.6238V421.84H84.0318V423.104H84.0638C84.4798 422.224 85.3438 421.648 86.2078 421.648C86.5278 421.648 86.8158 421.68 87.1838 421.76V423.104C86.9118 422.992 86.6078 422.96 86.3518 422.96C84.9758 422.96 84.1278 424.288 84.1278 426.288V430ZM95.0985 428.16V429.664C93.9145 430.144 93.2105 430.192 92.5385 430.192C89.7705 430.192 88.2985 428.592 88.2985 425.776C88.2985 423.312 89.8505 421.648 92.1225 421.648C94.4905 421.648 95.7225 423.152 95.7225 426.256H89.8985C89.9145 427.888 91.1625 428.976 92.5865 428.976C93.4505 428.976 94.5865 428.56 95.0985 428.16ZM89.8985 425.136H94.1225C94.1065 423.824 93.3545 422.864 92.0745 422.864C90.8745 422.864 90.0585 423.728 89.8985 425.136ZM97.0451 429.744L97.1251 428.4C97.6371 428.736 98.4851 428.976 98.9971 428.976C99.7971 428.976 100.533 428.624 100.533 427.808C100.533 427.36 100.245 426.96 99.0611 426.432C97.3811 425.68 96.9971 424.976 96.9971 424.144C96.9971 422.448 98.2931 421.648 99.8771 421.648C100.581 421.648 101.157 421.792 101.749 421.968L101.621 423.28C101.317 423.088 100.421 422.864 100.037 422.864C99.2211 422.864 98.5971 423.216 98.5971 423.856C98.5971 424.528 99.1571 424.864 100.181 425.312C101.573 425.92 102.133 426.56 102.133 427.648C102.133 429.2 100.981 430.192 99.2691 430.192C98.4051 430.192 97.6691 430.08 97.0451 429.744ZM111.168 430H109.712V428.704H109.68C109.28 429.552 108.24 430.192 107.008 430.192C104.96 430.192 103.952 428.944 103.952 426.704V421.84H105.456V426.24C105.456 428.752 106.56 428.976 107.248 428.976C108.752 428.976 109.664 427.76 109.664 425.632V421.84H111.168V430ZM115.429 430H113.925V418H115.429V430ZM122.65 428.688V429.968C122.25 430.08 121.834 430.192 121.354 430.192C119.674 430.192 118.858 429.312 118.858 427.84V423.056H117.018V421.84H118.858V419.952L120.362 419.472V421.84H122.522V423.056H120.362V427.552C120.362 428.304 120.81 428.976 121.626 428.976C122.122 428.976 122.442 428.816 122.65 428.688Z" fill="black"/>
</svg>
