<svg width="351" height="462" viewBox="0 0 351 462" fill="none" xmlns="http://www.w3.org/2000/svg">
<rect x="36.0001" y="105" width="299" height="150" fill="#00A499"/>
<path d="M162.711 100L169.632 107.218L35.5006 237.104L35.5006 222.965L162.711 100Z" fill="#30B4AB"/>
<path d="M134.5 99.2089L141.421 106.427L35.2138 209.682L35.4885 192.682L134.5 99.2089Z" fill="#30B4AB"/>
<path d="M107.346 94.3644L114.267 101.582L35.2141 177.682L35.4888 160.682L107.346 94.3644Z" fill="#30B4AB"/>
<path d="M66.5002 99.0002L77.8154 106L35.214 145.648L35.4887 128.648L66.5002 99.0002Z" fill="#30B4AB"/>
<path d="M277.442 99L284.363 106.218L129.66 254.775L115.521 254.775L277.442 99Z" fill="#30B4AB"/>
<path d="M219.823 100L226.744 107.218L71.4828 256.221L57.3438 256.221L219.823 100Z" fill="#30B4AB"/>
<path d="M335.216 97.5791L335.222 111.718L186.397 254.429L172.258 254.429L335.216 97.5791Z" fill="#30B4AB"/>
<path d="M335.892 181.182L334.545 196.5L270.294 255.487L256.155 255.487L335.892 181.182Z" fill="#30B4AB"/>
<path d="M334.892 210.182L334.892 224.136L301.8 254.385L287.661 254.385L334.892 210.182Z" fill="#30B4AB"/>
<path d="M335.347 240.5L335.347 254.453L332.504 254.453L318.433 254.385L335.347 240.5Z" fill="#30B4AB"/>
<path d="M192.197 99.2822L199.118 106.5L42.5724 257.217L35.6512 250L192.197 99.2822Z" fill="#30B4AB"/>
<path d="M306.238 98.2822L313.16 105.5L156.722 255.717L142.583 255.717L306.238 98.2822Z" fill="#30B4AB"/>
<path d="M335.547 153.209L335.547 167.24L242.164 255.293L228.025 255.293L335.547 153.209Z" fill="#30B4AB"/>
<path d="M249.358 98.5L256.279 105.718L103.501 254.632L87 254.633L249.358 98.5Z" fill="#30B4AB"/>
<path d="M335.047 124.477L335.047 138.616L214.275 254.547L200.136 254.547L335.047 124.477Z" fill="#30B4AB"/>
<rect x="36" y="54" width="299" height="51" fill="#FFB81C"/>
<rect x="36.0001" y="255" width="299" height="22" fill="#FFB81C"/>
<line x1="17.5" y1="37.9805" x2="17.5" y2="11.9938" stroke="black"/>
<line x1="17" y1="11.5" x2="37" y2="11.5" stroke="black"/>
<path d="M50.568 18H48.328V8.592H45.128V6.832L53.768 6.832V8.592H50.568V18ZM61.3094 13.936C61.3094 16.384 59.6454 18.192 56.9894 18.192C54.3334 18.192 52.6854 16.368 52.6854 13.936C52.6854 11.296 54.4774 9.568 56.9894 9.568C59.5014 9.568 61.3094 11.28 61.3094 13.936ZM56.9894 16.528C58.3814 16.528 59.0694 15.456 59.0694 13.68C59.0694 12.368 58.3654 11.232 56.9894 11.232C55.6454 11.232 54.9254 12.384 54.9254 13.68C54.9254 15.424 55.5974 16.528 56.9894 16.528ZM67.8266 16.304L67.8906 18C67.4426 18.128 66.9466 18.192 66.3226 18.192C64.5786 18.192 63.6986 17.104 63.6986 15.52V11.328H62.1146V9.76H63.6986V8.112L65.8426 7.424V9.76H67.7466V11.328H65.8426V15.152C65.8426 16.016 66.1146 16.528 66.8666 16.528C67.2346 16.528 67.6026 16.448 67.8266 16.304ZM76.1254 18H74.2374C74.1734 17.696 74.1574 17.136 74.1414 16.768H74.1094C73.6294 17.648 72.5894 18.192 71.5654 18.192C70.0774 18.192 68.6854 17.296 68.6854 15.728C68.6854 14.304 69.5014 12.912 72.7174 12.912H74.0454V12.88C74.0454 11.504 73.3414 11.136 72.1894 11.136C71.2774 11.136 70.3654 11.488 69.6454 12.032L69.5814 10.192C70.3494 9.84 71.4534 9.568 72.4454 9.568C74.9094 9.568 75.9974 10.56 75.9974 13.04V14.736C75.9974 15.168 76.0294 16.896 76.1254 18ZM74.0454 14.288V14.192H73.1014C71.5814 14.192 70.7334 14.64 70.7334 15.616C70.7334 16.256 71.2294 16.624 72.0934 16.624C73.0534 16.624 74.0454 15.968 74.0454 14.288ZM80.296 18H78.152V6H80.296V18ZM97.4263 18H94.8983L93.1063 11.712H93.0743L91.3143 18H88.8663L86.0823 9.76H88.3543L90.1783 15.856H90.2103L91.8743 9.76H94.3703L96.1623 15.856H96.1943L97.9063 9.76H99.9543L97.4263 18ZM108.797 18H106.653V13.344C106.653 11.84 106.205 11.232 105.261 11.232C103.997 11.232 103.373 12.384 103.373 14.016V18H101.229V6L103.373 6V10.88H103.405C103.933 10.096 104.861 9.568 105.997 9.568C107.901 9.568 108.797 10.896 108.797 12.784V18ZM113.202 8.256H111.058V6.208H113.202V8.256ZM113.202 18H111.058V9.76H113.202V18ZM120.295 16.304L120.359 18C119.911 18.128 119.415 18.192 118.791 18.192C117.047 18.192 116.167 17.104 116.167 15.52V11.328H114.583V9.76H116.167V8.112L118.311 7.424V9.76H120.215V11.328H118.311V15.152C118.311 16.016 118.583 16.528 119.335 16.528C119.703 16.528 120.071 16.448 120.295 16.304ZM128.29 15.792V17.536C127.506 17.968 126.61 18.192 125.474 18.192C122.738 18.192 121.154 16.624 121.154 13.92C121.154 11.616 122.354 9.568 124.978 9.568C127.778 9.568 128.898 11.296 128.898 14.544L123.202 14.544C123.298 15.84 124.178 16.624 125.57 16.624C126.594 16.624 127.49 16.24 128.29 15.792ZM123.202 13.072H126.85C126.77 11.888 126.21 11.136 125.09 11.136C124.018 11.136 123.314 11.84 123.202 13.072ZM140.61 16.144L140.706 17.92C140.066 18.112 139.458 18.192 138.578 18.192C136.002 18.192 134.498 16.528 134.498 13.84C134.498 11.376 135.97 9.568 138.498 9.568C139.33 9.568 139.97 9.664 140.562 9.84L140.37 11.536C139.954 11.344 139.522 11.232 138.93 11.232C137.586 11.232 136.738 12.288 136.738 13.84C136.738 15.44 137.522 16.528 138.962 16.528C139.426 16.528 140.05 16.384 140.61 16.144ZM148.743 15.792V17.536C147.959 17.968 147.063 18.192 145.927 18.192C143.191 18.192 141.607 16.624 141.607 13.92C141.607 11.616 142.807 9.568 145.431 9.568C148.231 9.568 149.351 11.296 149.351 14.544H143.655C143.751 15.84 144.631 16.624 146.023 16.624C147.047 16.624 147.943 16.24 148.743 15.792ZM143.655 13.072H147.303C147.223 11.888 146.663 11.136 145.543 11.136C144.471 11.136 143.767 11.84 143.655 13.072ZM153.218 18H151.074V6L153.218 6V18ZM157.671 18H155.527V6H157.671V18ZM169.969 16.144L170.065 17.92C169.425 18.112 168.817 18.192 167.937 18.192C165.361 18.192 163.857 16.528 163.857 13.84C163.857 11.376 165.329 9.568 167.857 9.568C168.689 9.568 169.329 9.664 169.921 9.84L169.729 11.536C169.313 11.344 168.881 11.232 168.289 11.232C166.945 11.232 166.097 12.288 166.097 13.84C166.097 15.44 166.881 16.528 168.321 16.528C168.785 16.528 169.409 16.384 169.969 16.144ZM179.591 13.936C179.591 16.384 177.927 18.192 175.271 18.192C172.615 18.192 170.967 16.368 170.967 13.936C170.967 11.296 172.759 9.568 175.271 9.568C177.783 9.568 179.591 11.28 179.591 13.936ZM175.271 16.528C176.663 16.528 177.351 15.456 177.351 13.68C177.351 12.368 176.647 11.232 175.271 11.232C173.927 11.232 173.207 12.384 173.207 13.68C173.207 15.424 173.879 16.528 175.271 16.528ZM188.844 18L186.812 18V16.88H186.78C186.076 17.728 185.148 18.192 184.076 18.192C182.236 18.192 181.276 16.96 181.276 14.96V9.76L183.42 9.76V14.464C183.42 16.112 184.028 16.528 184.812 16.528C186.108 16.528 186.7 15.328 186.7 13.744V9.76H188.844V18ZM198.625 18H196.481V13.376C196.481 12.144 196.225 11.232 195.089 11.232C193.729 11.232 193.201 12.544 193.201 14V18H191.057V9.76H193.089V10.88H193.121C193.777 9.952 194.689 9.568 195.825 9.568C197.713 9.568 198.625 10.864 198.625 12.8V18ZM205.67 16.304L205.734 18C205.286 18.128 204.79 18.192 204.166 18.192C202.422 18.192 201.542 17.104 201.542 15.52V11.328H199.958V9.76H201.542V8.112L203.686 7.424V9.76L205.59 9.76V11.328L203.686 11.328V15.152C203.686 16.016 203.958 16.528 204.71 16.528C205.078 16.528 205.446 16.448 205.67 16.304ZM215.174 14.576H210.966V12.816H215.174V14.576ZM225.404 20.24H223.372C221.58 17.792 220.812 15.52 220.812 13.072C220.812 10.528 221.484 8.48 223.372 5.904L225.404 5.904C223.692 8.592 223.084 10.624 223.084 13.056C223.084 15.472 223.788 17.68 225.404 20.24ZM232.028 18H229.788V9.376L227.9 10.912L226.78 9.456L230.044 6.832H232.028V18ZM238.838 18.192C236.294 18.192 234.966 16.368 234.966 12.448C234.966 8.928 236.23 6.64 238.838 6.64C241.398 6.64 242.742 8.656 242.742 12.448C242.742 16.16 241.398 18.192 238.838 18.192ZM238.838 16.528C240.454 16.528 240.502 14.112 240.502 12.448C240.502 10.768 240.454 8.304 238.822 8.304C237.302 8.304 237.206 10.672 237.206 12.4C237.206 14.192 237.27 16.528 238.838 16.528ZM250.353 12.112L248.881 13.168L247.745 11.184L246.529 13.168L245.073 12.112L246.641 10.4L244.449 9.904L244.977 8.24L247.105 9.152L246.849 6.832H248.673L248.401 9.136L250.529 8.24L251.041 9.904L248.817 10.4L250.353 12.112ZM258.348 12.976L258.316 12.944C257.788 13.728 257.1 14.064 256.156 14.064C254.012 14.064 252.892 12.688 252.892 10.656C252.892 8.096 254.204 6.64 256.604 6.64C259.084 6.64 260.396 8.272 260.396 11.84C260.396 15.312 259.148 18.192 255.804 18.192C254.988 18.192 254.22 18.064 253.452 17.792L253.74 15.984C254.364 16.256 254.972 16.432 255.692 16.432C257.308 16.432 258.252 15.152 258.348 12.976ZM256.652 12.4C257.756 12.4 258.156 11.376 258.156 10.288C258.156 9.248 257.724 8.304 256.588 8.304C255.644 8.304 255.132 9.2 255.132 10.304C255.132 11.44 255.612 12.4 256.652 12.4ZM263.078 18.192H261.414L265.318 6.64H266.982L263.078 18.192ZM275.169 18H268.593V6.832L270.833 6.832V16.24H275.169V18ZM277.425 20.24L275.409 20.24C277.025 17.664 277.729 15.456 277.729 13.072C277.729 10.704 277.153 8.656 275.409 5.904H277.425C279.329 8.512 280.001 10.576 280.001 13.072C280.001 15.552 279.201 17.792 277.425 20.24Z" fill="#212B32"/>
<line x1="35.5" y1="53" x2="35.5" y2="278" stroke="black"/>
<line x1="30" y1="245.327" x2="35" y2="245.327" stroke="black"/>
<line x1="30" y1="213.344" x2="35" y2="213.344" stroke="black"/>
<line x1="30" y1="181.359" x2="35" y2="181.359" stroke="black"/>
<line x1="30" y1="149.377" x2="35" y2="149.377" stroke="black"/>
<line x1="30" y1="117.393" x2="35" y2="117.393" stroke="black"/>
<line x1="30" y1="85.4092" x2="35" y2="85.4092" stroke="black"/>
<line x1="30" y1="53.4258" x2="35" y2="53.4258" stroke="black"/>
<path d="M16.1123 247.477V248.516H8.9209V247.771L13.3779 240.873H14.4102L13.3027 242.869L10.3564 247.477H16.1123ZM14.7246 240.873V250.826H13.46V240.873H14.7246ZM17.418 250.156C17.418 249.942 17.484 249.762 17.6162 249.616C17.7529 249.466 17.9489 249.391 18.2041 249.391C18.4593 249.391 18.653 249.466 18.7852 249.616C18.9219 249.762 18.9902 249.942 18.9902 250.156C18.9902 250.366 18.9219 250.544 18.7852 250.689C18.653 250.835 18.4593 250.908 18.2041 250.908C17.9489 250.908 17.7529 250.835 17.6162 250.689C17.484 250.544 17.418 250.366 17.418 250.156ZM22.5518 246.089L21.54 245.829L22.0391 240.873H27.1455V242.042H23.1123L22.8115 244.749C22.9938 244.644 23.224 244.546 23.502 244.455C23.7845 244.364 24.1081 244.318 24.4727 244.318C24.9329 244.318 25.3454 244.398 25.71 244.558C26.0745 244.713 26.3844 244.936 26.6396 245.228C26.8994 245.519 27.0977 245.87 27.2344 246.28C27.3711 246.69 27.4395 247.148 27.4395 247.654C27.4395 248.133 27.3734 248.573 27.2412 248.974C27.1136 249.375 26.9199 249.726 26.6602 250.026C26.4004 250.323 26.0723 250.553 25.6758 250.717C25.2839 250.881 24.8213 250.963 24.2881 250.963C23.887 250.963 23.5065 250.908 23.1465 250.799C22.791 250.685 22.472 250.514 22.1895 250.286C21.9115 250.054 21.6836 249.767 21.5059 249.425C21.3327 249.078 21.2233 248.673 21.1777 248.208H22.3809C22.4355 248.582 22.5449 248.896 22.709 249.151C22.873 249.407 23.0872 249.6 23.3516 249.732C23.6204 249.86 23.9326 249.924 24.2881 249.924C24.5889 249.924 24.8555 249.871 25.0879 249.767C25.3203 249.662 25.5163 249.511 25.6758 249.315C25.8353 249.119 25.9561 248.882 26.0381 248.604C26.1247 248.326 26.168 248.014 26.168 247.668C26.168 247.354 26.1247 247.062 26.0381 246.793C25.9515 246.524 25.8216 246.289 25.6484 246.089C25.4798 245.888 25.2725 245.733 25.0264 245.624C24.7803 245.51 24.4977 245.453 24.1787 245.453C23.7549 245.453 23.4336 245.51 23.2148 245.624C23.0007 245.738 22.7796 245.893 22.5518 246.089Z" fill="black"/>
<path d="M22.7979 275.228H23.7002C24.1423 275.228 24.5068 275.155 24.7939 275.009C25.0856 274.858 25.3021 274.656 25.4434 274.4C25.5892 274.141 25.6621 273.849 25.6621 273.525C25.6621 273.143 25.5983 272.821 25.4707 272.562C25.3431 272.302 25.1517 272.106 24.8965 271.974C24.6413 271.841 24.3177 271.775 23.9258 271.775C23.5703 271.775 23.2559 271.846 22.9824 271.987C22.7135 272.124 22.5016 272.32 22.3467 272.575C22.1963 272.83 22.1211 273.131 22.1211 273.478H20.8564C20.8564 272.972 20.984 272.511 21.2393 272.097C21.4945 271.682 21.8522 271.352 22.3125 271.105C22.7773 270.859 23.3151 270.736 23.9258 270.736C24.5273 270.736 25.0537 270.843 25.5049 271.058C25.9561 271.267 26.307 271.582 26.5576 272.001C26.8083 272.416 26.9336 272.933 26.9336 273.553C26.9336 273.803 26.8743 274.072 26.7559 274.359C26.6419 274.642 26.4619 274.906 26.2158 275.152C25.9743 275.398 25.6598 275.601 25.2725 275.761C24.8851 275.916 24.4202 275.993 23.8779 275.993H22.7979V275.228ZM22.7979 276.267V275.508H23.8779C24.5114 275.508 25.0355 275.583 25.4502 275.733C25.8649 275.884 26.1908 276.084 26.4277 276.335C26.6693 276.586 26.8379 276.861 26.9336 277.162C27.0339 277.458 27.084 277.755 27.084 278.051C27.084 278.516 27.0042 278.928 26.8447 279.288C26.6898 279.648 26.4688 279.953 26.1816 280.204C25.8991 280.455 25.5664 280.644 25.1836 280.771C24.8008 280.899 24.3838 280.963 23.9326 280.963C23.4997 280.963 23.0918 280.901 22.709 280.778C22.3307 280.655 21.9958 280.478 21.7041 280.245C21.4124 280.008 21.1846 279.719 21.0205 279.377C20.8564 279.031 20.7744 278.636 20.7744 278.194H22.0391C22.0391 278.541 22.1143 278.844 22.2646 279.104C22.4196 279.363 22.6383 279.566 22.9209 279.712C23.208 279.853 23.5452 279.924 23.9326 279.924C24.32 279.924 24.6527 279.858 24.9307 279.726C25.2132 279.589 25.4297 279.384 25.5801 279.11C25.735 278.837 25.8125 278.493 25.8125 278.078C25.8125 277.663 25.7259 277.324 25.5527 277.06C25.3796 276.791 25.1335 276.592 24.8145 276.465C24.5 276.333 24.1286 276.267 23.7002 276.267H22.7979Z" fill="black"/>
<path d="M25.8057 208.883H25.915V209.956H25.8057C25.1357 209.956 24.5752 210.065 24.124 210.284C23.6729 210.498 23.3151 210.788 23.0508 211.152C22.7865 211.512 22.5951 211.918 22.4766 212.369C22.3626 212.82 22.3057 213.278 22.3057 213.743V215.206C22.3057 215.648 22.3581 216.04 22.4629 216.382C22.5677 216.719 22.7113 217.004 22.8936 217.236C23.0758 217.469 23.2809 217.644 23.5088 217.763C23.7412 217.881 23.9827 217.94 24.2334 217.94C24.5251 217.94 24.7848 217.886 25.0127 217.776C25.2406 217.662 25.432 217.505 25.5869 217.305C25.7464 217.1 25.8672 216.858 25.9492 216.58C26.0312 216.302 26.0723 215.997 26.0723 215.664C26.0723 215.368 26.0358 215.083 25.9629 214.81C25.89 214.532 25.7783 214.285 25.6279 214.071C25.4775 213.853 25.2884 213.682 25.0605 213.559C24.8372 213.431 24.5706 213.367 24.2607 213.367C23.9098 213.367 23.5817 213.454 23.2764 213.627C22.9756 213.796 22.7272 214.019 22.5312 214.297C22.3398 214.57 22.2305 214.869 22.2031 215.192L21.5332 215.186C21.597 214.675 21.7155 214.24 21.8887 213.88C22.0664 213.515 22.2852 213.219 22.5449 212.991C22.8092 212.759 23.1032 212.59 23.4268 212.485C23.7549 212.376 24.1012 212.321 24.4658 212.321C24.9626 212.321 25.391 212.415 25.751 212.602C26.111 212.788 26.4072 213.039 26.6396 213.354C26.8721 213.663 27.043 214.014 27.1523 214.406C27.2663 214.794 27.3232 215.192 27.3232 215.603C27.3232 216.072 27.2572 216.512 27.125 216.922C26.9928 217.332 26.7946 217.692 26.5303 218.002C26.2705 218.312 25.9492 218.553 25.5664 218.727C25.1836 218.9 24.7393 218.986 24.2334 218.986C23.6956 218.986 23.2262 218.877 22.8252 218.658C22.4242 218.435 22.0915 218.139 21.8271 217.77C21.5628 217.4 21.3646 216.99 21.2324 216.539C21.1003 216.088 21.0342 215.63 21.0342 215.165V214.57C21.0342 213.868 21.1048 213.18 21.2461 212.506C21.3874 211.831 21.6312 211.221 21.9775 210.674C22.3285 210.127 22.8138 209.692 23.4336 209.368C24.0534 209.045 24.8441 208.883 25.8057 208.883Z" fill="black"/>
<path d="M15.8184 176.912V177.623L11.6963 186.865H10.3633L14.4785 177.951H9.0918V176.912H15.8184ZM17.418 186.195C17.418 185.981 17.484 185.801 17.6162 185.655C17.7529 185.505 17.9489 185.43 18.2041 185.43C18.4593 185.43 18.653 185.505 18.7852 185.655C18.9219 185.801 18.9902 185.981 18.9902 186.195C18.9902 186.405 18.9219 186.583 18.7852 186.729C18.653 186.874 18.4593 186.947 18.2041 186.947C17.9489 186.947 17.7529 186.874 17.6162 186.729C17.484 186.583 17.418 186.405 17.418 186.195ZM22.5518 182.128L21.54 181.868L22.0391 176.912H27.1455V178.081H23.1123L22.8115 180.788C22.9938 180.683 23.224 180.585 23.502 180.494C23.7845 180.403 24.1081 180.357 24.4727 180.357C24.9329 180.357 25.3454 180.437 25.71 180.597C26.0745 180.752 26.3844 180.975 26.6396 181.267C26.8994 181.558 27.0977 181.909 27.2344 182.319C27.3711 182.729 27.4395 183.188 27.4395 183.693C27.4395 184.172 27.3734 184.612 27.2412 185.013C27.1136 185.414 26.9199 185.765 26.6602 186.065C26.4004 186.362 26.0723 186.592 25.6758 186.756C25.2839 186.92 24.8213 187.002 24.2881 187.002C23.887 187.002 23.5065 186.947 23.1465 186.838C22.791 186.724 22.472 186.553 22.1895 186.325C21.9115 186.093 21.6836 185.806 21.5059 185.464C21.3327 185.118 21.2233 184.712 21.1777 184.247H22.3809C22.4355 184.621 22.5449 184.935 22.709 185.19C22.873 185.446 23.0872 185.639 23.3516 185.771C23.6204 185.899 23.9326 185.963 24.2881 185.963C24.5889 185.963 24.8555 185.91 25.0879 185.806C25.3203 185.701 25.5163 185.55 25.6758 185.354C25.8353 185.159 25.9561 184.922 26.0381 184.644C26.1247 184.366 26.168 184.053 26.168 183.707C26.168 183.393 26.1247 183.101 26.0381 182.832C25.9515 182.563 25.8216 182.328 25.6484 182.128C25.4798 181.927 25.2725 181.772 25.0264 181.663C24.7803 181.549 24.4977 181.492 24.1787 181.492C23.7549 181.492 23.4336 181.549 23.2148 181.663C23.0007 181.777 22.7796 181.932 22.5518 182.128Z" fill="black"/>
<path d="M22.21 153.823H22.3398C23.069 153.823 23.6615 153.721 24.1172 153.516C24.5729 153.311 24.9238 153.035 25.1699 152.688C25.416 152.342 25.5846 151.952 25.6758 151.52C25.7669 151.082 25.8125 150.633 25.8125 150.173V148.648C25.8125 148.197 25.7601 147.796 25.6553 147.445C25.555 147.094 25.4137 146.8 25.2314 146.563C25.0537 146.326 24.8509 146.146 24.623 146.023C24.3952 145.9 24.1536 145.839 23.8984 145.839C23.6068 145.839 23.3447 145.898 23.1123 146.017C22.8844 146.131 22.6908 146.292 22.5312 146.502C22.3763 146.712 22.2578 146.958 22.1758 147.24C22.0938 147.523 22.0527 147.83 22.0527 148.163C22.0527 148.459 22.0892 148.746 22.1621 149.024C22.235 149.302 22.3467 149.553 22.4971 149.776C22.6475 150 22.8343 150.177 23.0576 150.31C23.2855 150.437 23.5521 150.501 23.8574 150.501C24.14 150.501 24.4043 150.446 24.6504 150.337C24.901 150.223 25.1221 150.07 25.3135 149.879C25.5094 149.683 25.6644 149.462 25.7783 149.216C25.8968 148.97 25.9652 148.712 25.9834 148.443H26.585C26.585 148.822 26.5098 149.195 26.3594 149.564C26.2135 149.929 26.0085 150.262 25.7441 150.562C25.4798 150.863 25.1699 151.105 24.8145 151.287C24.459 151.465 24.0716 151.554 23.6523 151.554C23.1602 151.554 22.734 151.458 22.374 151.267C22.014 151.075 21.7178 150.82 21.4854 150.501C21.2575 150.182 21.0866 149.826 20.9727 149.435C20.8633 149.038 20.8086 148.637 20.8086 148.231C20.8086 147.757 20.8747 147.313 21.0068 146.898C21.139 146.484 21.335 146.119 21.5947 145.805C21.8545 145.486 22.1758 145.237 22.5586 145.06C22.946 144.882 23.3926 144.793 23.8984 144.793C24.4681 144.793 24.9535 144.907 25.3545 145.135C25.7555 145.363 26.0814 145.668 26.332 146.051C26.5872 146.434 26.7741 146.864 26.8926 147.343C27.0111 147.821 27.0703 148.313 27.0703 148.819V149.277C27.0703 149.792 27.0361 150.316 26.9678 150.85C26.904 151.378 26.7786 151.884 26.5918 152.367C26.4095 152.85 26.1429 153.283 25.792 153.666C25.4411 154.044 24.9831 154.345 24.418 154.568C23.8574 154.787 23.1647 154.896 22.3398 154.896H22.21V153.823Z" fill="black"/>
<path d="M5.66699 112.992L5.66699 123H4.40234V114.571L1.85254 115.501V114.359L5.46875 112.992H5.66699ZM15.6338 117.23V118.748C15.6338 119.564 15.5609 120.252 15.415 120.812C15.2692 121.373 15.0596 121.824 14.7861 122.166C14.5127 122.508 14.1823 122.756 13.7949 122.911C13.4121 123.062 12.9792 123.137 12.4961 123.137C12.1133 123.137 11.7601 123.089 11.4365 122.993C11.113 122.897 10.8213 122.745 10.5615 122.535C10.3063 122.321 10.0876 122.043 9.90527 121.701C9.72298 121.359 9.58398 120.945 9.48828 120.457C9.39258 119.969 9.34473 119.4 9.34473 118.748V117.23C9.34473 116.415 9.41764 115.731 9.56348 115.18C9.71387 114.628 9.92578 114.186 10.1992 113.854C10.4727 113.516 10.8008 113.275 11.1836 113.129C11.571 112.983 12.0039 112.91 12.4824 112.91C12.8698 112.91 13.2253 112.958 13.5488 113.054C13.877 113.145 14.1686 113.293 14.4238 113.498C14.679 113.699 14.8955 113.967 15.0732 114.305C15.2555 114.637 15.3945 115.045 15.4902 115.528C15.5859 116.011 15.6338 116.579 15.6338 117.23ZM14.3623 118.953V117.019C14.3623 116.572 14.335 116.18 14.2803 115.843C14.2301 115.501 14.1549 115.209 14.0547 114.968C13.9544 114.726 13.8268 114.53 13.6719 114.38C13.5215 114.229 13.346 114.12 13.1455 114.052C12.9495 113.979 12.7285 113.942 12.4824 113.942C12.1816 113.942 11.915 113.999 11.6826 114.113C11.4502 114.223 11.2542 114.398 11.0947 114.64C10.9398 114.881 10.8213 115.198 10.7393 115.59C10.6572 115.982 10.6162 116.458 10.6162 117.019V118.953C10.6162 119.4 10.6413 119.794 10.6914 120.136C10.7461 120.478 10.8258 120.774 10.9307 121.024C11.0355 121.271 11.1631 121.473 11.3135 121.633C11.4639 121.792 11.637 121.911 11.833 121.988C12.0335 122.061 12.2546 122.098 12.4961 122.098C12.806 122.098 13.0771 122.038 13.3096 121.92C13.542 121.801 13.7357 121.617 13.8906 121.366C14.0501 121.111 14.1686 120.785 14.2461 120.389C14.3236 119.988 14.3623 119.509 14.3623 118.953ZM17.418 122.33C17.418 122.116 17.484 121.936 17.6162 121.79C17.7529 121.64 17.9489 121.564 18.2041 121.564C18.4593 121.564 18.653 121.64 18.7852 121.79C18.9219 121.936 18.9902 122.116 18.9902 122.33C18.9902 122.54 18.9219 122.717 18.7852 122.863C18.653 123.009 18.4593 123.082 18.2041 123.082C17.9489 123.082 17.7529 123.009 17.6162 122.863C17.484 122.717 17.418 122.54 17.418 122.33ZM22.5518 118.263L21.54 118.003L22.0391 113.047H27.1455V114.216H23.1123L22.8115 116.923C22.9938 116.818 23.224 116.72 23.502 116.629C23.7845 116.538 24.1081 116.492 24.4727 116.492C24.9329 116.492 25.3454 116.572 25.71 116.731C26.0745 116.886 26.3844 117.11 26.6396 117.401C26.8994 117.693 27.0977 118.044 27.2344 118.454C27.3711 118.864 27.4395 119.322 27.4395 119.828C27.4395 120.307 27.3734 120.746 27.2412 121.147C27.1136 121.549 26.9199 121.899 26.6602 122.2C26.4004 122.496 26.0723 122.727 25.6758 122.891C25.2839 123.055 24.8213 123.137 24.2881 123.137C23.887 123.137 23.5065 123.082 23.1465 122.973C22.791 122.859 22.472 122.688 22.1895 122.46C21.9115 122.228 21.6836 121.94 21.5059 121.599C21.3327 121.252 21.2233 120.847 21.1777 120.382H22.3809C22.4355 120.756 22.5449 121.07 22.709 121.325C22.873 121.58 23.0872 121.774 23.3516 121.906C23.6204 122.034 23.9326 122.098 24.2881 122.098C24.5889 122.098 24.8555 122.045 25.0879 121.94C25.3203 121.836 25.5163 121.685 25.6758 121.489C25.8353 121.293 25.9561 121.056 26.0381 120.778C26.1247 120.5 26.168 120.188 26.168 119.842C26.168 119.527 26.1247 119.236 26.0381 118.967C25.9515 118.698 25.8216 118.463 25.6484 118.263C25.4798 118.062 25.2725 117.907 25.0264 117.798C24.7803 117.684 24.4977 117.627 24.1787 117.627C23.7549 117.627 23.4336 117.684 23.2148 117.798C23.0007 117.912 22.7796 118.067 22.5518 118.263Z" fill="black"/>
<path d="M17.2334 80.9922V91H15.9688V82.5713L13.4189 83.501V82.3594L17.0352 80.9922H17.2334ZM27.4736 89.9609V91H20.959V90.0908L24.2197 86.4609C24.6208 86.0143 24.9307 85.6361 25.1494 85.3262C25.3727 85.0117 25.5277 84.7314 25.6143 84.4854C25.7054 84.2347 25.751 83.9795 25.751 83.7197C25.751 83.3916 25.6826 83.0954 25.5459 82.8311C25.4137 82.5622 25.2178 82.348 24.958 82.1885C24.6982 82.029 24.3838 81.9492 24.0146 81.9492C23.5726 81.9492 23.2035 82.0358 22.9072 82.209C22.6156 82.3776 22.3968 82.6146 22.251 82.9199C22.1051 83.2253 22.0322 83.5762 22.0322 83.9727H20.7676C20.7676 83.4121 20.8906 82.8994 21.1367 82.4346C21.3828 81.9697 21.7474 81.6006 22.2305 81.3271C22.7135 81.0492 23.3083 80.9102 24.0146 80.9102C24.6436 80.9102 25.1813 81.0218 25.6279 81.2451C26.0745 81.4639 26.4163 81.7738 26.6533 82.1748C26.8949 82.5713 27.0156 83.0361 27.0156 83.5693C27.0156 83.861 26.9655 84.1572 26.8652 84.458C26.7695 84.7542 26.6351 85.0505 26.4619 85.3467C26.2933 85.6429 26.0951 85.9346 25.8672 86.2217C25.6439 86.5088 25.4046 86.7913 25.1494 87.0693L22.4834 89.9609H27.4736Z" fill="black"/>
<path d="M5.66699 48.9238L5.66699 58.9316H4.40234V50.5029L1.85254 51.4326V50.291L5.46875 48.9238H5.66699ZM11.2314 53.333H12.1338C12.5758 53.333 12.9404 53.2601 13.2275 53.1143C13.5192 52.9639 13.7357 52.7611 13.877 52.5059C14.0228 52.2461 14.0957 51.9544 14.0957 51.6309C14.0957 51.248 14.0319 50.9268 13.9043 50.667C13.7767 50.4072 13.5853 50.2113 13.3301 50.0791C13.0749 49.9469 12.7513 49.8809 12.3594 49.8809C12.0039 49.8809 11.6895 49.9515 11.416 50.0928C11.1471 50.2295 10.9352 50.4255 10.7803 50.6807C10.6299 50.9359 10.5547 51.2367 10.5547 51.583H9.29004C9.29004 51.0771 9.41764 50.6169 9.67285 50.2021C9.92806 49.7874 10.2858 49.457 10.7461 49.2109C11.2109 48.9648 11.7487 48.8418 12.3594 48.8418C12.9609 48.8418 13.4873 48.9489 13.9385 49.1631C14.3896 49.3727 14.7406 49.6872 14.9912 50.1064C15.2419 50.5212 15.3672 51.0384 15.3672 51.6582C15.3672 51.9089 15.3079 52.1777 15.1895 52.4648C15.0755 52.7474 14.8955 53.0117 14.6494 53.2578C14.4079 53.5039 14.0934 53.7067 13.7061 53.8662C13.3187 54.0212 12.8538 54.0986 12.3115 54.0986H11.2314V53.333ZM11.2314 54.3721V53.6133H12.3115C12.945 53.6133 13.4691 53.6885 13.8838 53.8389C14.2985 53.9893 14.6243 54.1898 14.8613 54.4404C15.1029 54.6911 15.2715 54.9668 15.3672 55.2676C15.4674 55.5638 15.5176 55.86 15.5176 56.1562C15.5176 56.6211 15.4378 57.0335 15.2783 57.3936C15.1234 57.7536 14.9023 58.0589 14.6152 58.3096C14.3327 58.5602 14 58.7493 13.6172 58.877C13.2344 59.0046 12.8174 59.0684 12.3662 59.0684C11.9333 59.0684 11.5254 59.0068 11.1426 58.8838C10.7643 58.7607 10.4294 58.583 10.1377 58.3506C9.84603 58.1136 9.61816 57.8242 9.4541 57.4824C9.29004 57.1361 9.20801 56.7419 9.20801 56.2998H10.4727C10.4727 56.6462 10.5479 56.9492 10.6982 57.209C10.8532 57.4688 11.0719 57.6715 11.3545 57.8174C11.6416 57.9587 11.9788 58.0293 12.3662 58.0293C12.7536 58.0293 13.0863 57.9632 13.3643 57.8311C13.6468 57.6943 13.8633 57.4893 14.0137 57.2158C14.1686 56.9424 14.2461 56.5983 14.2461 56.1836C14.2461 55.7689 14.1595 55.4294 13.9863 55.165C13.8132 54.8962 13.5671 54.6979 13.248 54.5703C12.9336 54.4382 12.5622 54.3721 12.1338 54.3721H11.2314ZM17.418 58.2617C17.418 58.0475 17.484 57.8675 17.6162 57.7217C17.7529 57.5713 17.9489 57.4961 18.2041 57.4961C18.4593 57.4961 18.653 57.5713 18.7852 57.7217C18.9219 57.8675 18.9902 58.0475 18.9902 58.2617C18.9902 58.4714 18.9219 58.6491 18.7852 58.7949C18.653 58.9408 18.4593 59.0137 18.2041 59.0137C17.9489 59.0137 17.7529 58.9408 17.6162 58.7949C17.484 58.6491 17.418 58.4714 17.418 58.2617ZM22.5518 54.1943L21.54 53.9346L22.0391 48.9785H27.1455V50.1475H23.1123L22.8115 52.8545C22.9938 52.7497 23.224 52.6517 23.502 52.5605C23.7845 52.4694 24.1081 52.4238 24.4727 52.4238C24.9329 52.4238 25.3454 52.5036 25.71 52.6631C26.0745 52.818 26.3844 53.0413 26.6396 53.333C26.8994 53.6247 27.0977 53.9756 27.2344 54.3857C27.3711 54.7959 27.4395 55.2539 27.4395 55.7598C27.4395 56.2383 27.3734 56.6781 27.2412 57.0791C27.1136 57.4801 26.9199 57.8311 26.6602 58.1318C26.4004 58.4281 26.0723 58.6582 25.6758 58.8223C25.2839 58.9863 24.8213 59.0684 24.2881 59.0684C23.887 59.0684 23.5065 59.0137 23.1465 58.9043C22.791 58.7904 22.472 58.6195 22.1895 58.3916C21.9115 58.1592 21.6836 57.8721 21.5059 57.5303C21.3327 57.1839 21.2233 56.7783 21.1777 56.3135H22.3809C22.4355 56.6872 22.5449 57.0016 22.709 57.2568C22.873 57.512 23.0872 57.7057 23.3516 57.8379C23.6204 57.9655 23.9326 58.0293 24.2881 58.0293C24.5889 58.0293 24.8555 57.9769 25.0879 57.8721C25.3203 57.7673 25.5163 57.6169 25.6758 57.4209C25.8353 57.2249 25.9561 56.988 26.0381 56.71C26.1247 56.432 26.168 56.1198 26.168 55.7734C26.168 55.459 26.1247 55.1673 26.0381 54.8984C25.9515 54.6296 25.8216 54.3949 25.6484 54.1943C25.4798 53.9938 25.2725 53.8389 25.0264 53.7295C24.7803 53.6156 24.4977 53.5586 24.1787 53.5586C23.7549 53.5586 23.4336 53.6156 23.2148 53.7295C23.0007 53.8434 22.7796 53.9984 22.5518 54.1943Z" fill="black"/>
<line x1="29" y1="277.5" x2="341" y2="277.5" stroke="black"/>
<line x1="335.5" y1="53.8105" x2="335.5" y2="276.811" stroke="#D8DDE0"/>
<line x1="336" y1="53.5" x2="36" y2="53.5" stroke="#D8DDE0"/>
<line x1="335" y1="85.5" x2="36.0754" y2="85.5" stroke="white"/>
<line x1="335" y1="117.5" x2="36.0754" y2="117.5" stroke="white"/>
<line x1="335" y1="149.5" x2="36.0754" y2="149.5" stroke="white"/>
<line x1="335" y1="181.5" x2="36.0754" y2="181.5" stroke="white"/>
<line x1="335" y1="213.5" x2="36.0754" y2="213.5" stroke="white"/>
<line x1="335" y1="245.5" x2="36.0754" y2="245.5" stroke="white"/>
<line x1="335.5" y1="277" x2="335.5" y2="281.997" stroke="black"/>
<line x1="35.5" y1="277" x2="35.5" y2="281.997" stroke="black"/>
<path d="M15.508 298.463C15.5072 298.23 15.4701 298.025 15.3966 297.848C15.3276 297.666 15.204 297.502 15.0258 297.357C14.8522 297.212 14.6102 297.074 14.2998 296.942C13.9941 296.811 13.6062 296.678 13.1364 296.543C12.6437 296.399 12.1989 296.238 11.8018 296.062C11.4047 295.881 11.0645 295.675 10.7812 295.443C10.4978 295.212 10.2805 294.946 10.1291 294.646C9.97772 294.345 9.90138 294.002 9.90009 293.614C9.89881 293.227 9.97737 292.869 10.1358 292.54C10.2942 292.212 10.5211 291.926 10.8165 291.683C11.1165 291.436 11.4736 291.244 11.8879 291.106C12.3021 290.968 12.7645 290.898 13.2749 290.896C14.0223 290.894 14.6562 291.035 15.1767 291.32C15.7017 291.601 16.1017 291.971 16.3767 292.431C16.6516 292.885 16.79 293.373 16.7917 293.892L15.4792 293.897C15.4779 293.523 15.3971 293.193 15.2366 292.906C15.0762 292.615 14.8339 292.388 14.5098 292.225C14.1856 292.057 13.7752 291.974 13.2785 291.976C12.8091 291.978 12.4219 292.05 12.1171 292.192C11.8122 292.334 11.585 292.526 11.4354 292.768C11.2903 293.01 11.2183 293.286 11.2194 293.596C11.2201 293.806 11.264 293.997 11.3512 294.17C11.4429 294.338 11.5824 294.495 11.7697 294.64C11.9616 294.785 12.2036 294.919 12.4957 295.041C12.7923 295.163 13.1459 295.281 13.5564 295.393C14.122 295.551 14.6103 295.727 15.0211 295.921C15.4319 296.116 15.7698 296.336 16.035 296.581C16.3047 296.822 16.5038 297.097 16.6324 297.406C16.7656 297.711 16.8329 298.057 16.8341 298.445C16.8355 298.85 16.7547 299.218 16.5917 299.546C16.4287 299.875 16.195 300.156 15.8904 300.389C15.5858 300.623 15.2196 300.804 14.7916 300.933C14.3682 301.057 13.8944 301.121 13.3704 301.122C12.9101 301.124 12.4564 301.062 12.0094 300.935C11.5669 300.809 11.1629 300.619 10.7975 300.365C10.4366 300.111 10.1462 299.798 9.92622 299.425C9.71077 299.047 9.60223 298.61 9.60058 298.113L10.9131 298.109C10.9142 298.451 10.9813 298.744 11.1142 298.99C11.2472 299.231 11.4279 299.431 11.6563 299.59C11.8892 299.749 12.1517 299.866 12.4436 299.943C12.74 300.015 13.0478 300.05 13.3668 300.049C13.8271 300.048 14.2165 299.982 14.5351 299.854C14.8537 299.725 15.0946 299.542 15.2579 299.305C15.4257 299.067 15.5091 298.786 15.508 298.463ZM21.4025 301.096C20.8876 301.097 20.4202 301.012 20.0003 300.841C19.585 300.664 19.2264 300.417 18.9246 300.099C18.6273 299.781 18.3982 299.403 18.2372 298.967C18.0763 298.53 17.9949 298.051 17.9932 297.532L17.9923 297.245C17.9903 296.643 18.0774 296.107 18.2535 295.637C18.4297 295.163 18.6699 294.761 18.9741 294.432C19.2784 294.103 19.6239 293.853 20.0107 293.683C20.3975 293.513 20.7983 293.428 21.213 293.426C21.7416 293.425 22.1977 293.514 22.5811 293.695C22.9691 293.876 23.2866 294.13 23.5338 294.458C23.781 294.78 23.9646 295.163 24.0845 295.604C24.2045 296.041 24.2653 296.52 24.267 297.039L24.2689 297.607L18.7455 297.625L18.7421 296.593L23.0008 296.579L23.0005 296.483C22.9812 296.155 22.9118 295.836 22.7923 295.527C22.6773 295.217 22.4942 294.962 22.2428 294.763C21.9915 294.563 21.6494 294.464 21.2165 294.465C20.9293 294.466 20.6652 294.529 20.4241 294.653C20.183 294.772 19.9762 294.95 19.8038 295.188C19.6314 295.425 19.4979 295.715 19.4034 296.057C19.3088 296.399 19.2623 296.794 19.2637 297.24L19.2647 297.528C19.2659 297.878 19.3148 298.209 19.4115 298.518C19.5128 298.823 19.6573 299.092 19.8449 299.323C20.0371 299.555 20.2678 299.737 20.5371 299.868C20.811 299.999 21.1211 300.064 21.4675 300.063C21.9141 300.062 22.292 299.969 22.6013 299.786C22.9106 299.603 23.181 299.358 23.4124 299.052L24.18 299.658C24.0213 299.9 23.8193 300.131 23.5739 300.35C23.3285 300.57 23.0261 300.748 22.6665 300.886C22.3115 301.024 21.8902 301.094 21.4025 301.096ZM27.0014 294.966L27.0306 303.784L25.7592 303.788L25.7252 293.548L26.8873 293.544L27.0014 294.966ZM31.9921 297.164L31.9926 297.308C31.9943 297.845 31.9322 298.345 31.8061 298.805C31.68 299.261 31.4945 299.659 31.2495 299.997C31.0091 300.335 30.7115 300.598 30.3566 300.786C30.0018 300.974 29.5942 301.069 29.1339 301.07C28.6645 301.072 28.2496 300.995 27.889 300.842C27.5285 300.688 27.2224 300.463 26.9708 300.168C26.7191 299.873 26.5174 299.518 26.3657 299.104C26.2185 298.689 26.1167 298.223 26.0602 297.703L26.0577 296.938C26.1106 296.391 26.2115 295.9 26.3604 295.467C26.5094 295.033 26.7064 294.664 26.9515 294.358C27.2011 294.047 27.5034 293.811 27.8583 293.65C28.2132 293.485 28.6231 293.402 29.088 293.4C29.5528 293.399 29.9655 293.488 30.3262 293.67C30.6868 293.846 30.9907 294.1 31.2379 294.432C31.4851 294.764 31.671 295.162 31.7956 295.627C31.9247 296.086 31.9902 296.599 31.9921 297.164ZM30.7211 297.312L30.7206 297.168C30.7194 296.799 30.6795 296.453 30.6009 296.13C30.5224 295.802 30.4007 295.515 30.2358 295.269C30.0754 295.019 29.8697 294.824 29.6186 294.684C29.3675 294.539 29.0687 294.467 28.7224 294.468C28.4034 294.469 28.1255 294.525 27.8889 294.635C27.6569 294.745 27.4591 294.894 27.2957 295.081C27.1322 295.264 26.9985 295.474 26.8945 295.711C26.795 295.944 26.7206 296.186 26.6713 296.437L26.6772 298.207C26.7694 298.526 26.898 298.826 27.063 299.108C27.2279 299.386 27.4474 299.61 27.7215 299.783C27.9954 299.95 28.3398 300.034 28.7545 300.032C29.0963 300.031 29.39 299.959 29.6356 299.817C29.8858 299.671 30.0902 299.472 30.2489 299.221C30.4121 298.969 30.5319 298.682 30.6083 298.358C30.6847 298.03 30.7223 297.681 30.7211 297.312ZM36.6899 293.512L36.6932 294.482L32.6942 294.496L32.6909 293.525L36.6899 293.512ZM34.0385 291.723L35.3031 291.718L35.3276 299.081C35.3284 299.331 35.3678 299.52 35.4457 299.648C35.5236 299.775 35.6241 299.859 35.7473 299.9C35.8705 299.94 36.0027 299.96 36.144 299.96C36.2488 299.96 36.3581 299.95 36.472 299.931C36.5904 299.908 36.6792 299.89 36.7384 299.876L36.7487 300.908C36.6485 300.94 36.5165 300.97 36.3525 300.998C36.1931 301.031 35.9995 301.047 35.7716 301.048C35.4617 301.049 35.1767 300.988 34.9165 300.866C34.6563 300.744 34.4483 300.54 34.2924 300.253C34.141 299.962 34.0645 299.57 34.0629 299.078L34.0385 291.723ZM48.0518 299.831L48.0553 300.871L41.5406 300.892L41.5376 299.983L44.7863 296.342C45.1859 295.894 45.4945 295.515 45.7122 295.204C45.9345 294.889 46.0885 294.608 46.1743 294.362C46.2646 294.111 46.3093 293.856 46.3084 293.596C46.3073 293.268 46.238 292.972 46.1004 292.708C45.9674 292.44 45.7707 292.226 45.5104 292.067C45.2501 291.909 44.9354 291.83 44.5662 291.831C44.1242 291.833 43.7553 291.921 43.4597 292.095C43.1686 292.264 42.9506 292.502 42.8058 292.808C42.661 293.114 42.5892 293.465 42.5905 293.861L41.3259 293.865C41.324 293.305 41.4454 292.792 41.6899 292.326C41.9345 291.861 42.2978 291.49 42.78 291.215C43.2621 290.936 43.8564 290.795 44.5628 290.792C45.1917 290.79 45.7298 290.9 46.1772 291.122C46.6245 291.339 46.9673 291.648 47.2056 292.048C47.4485 292.444 47.5708 292.908 47.5726 293.441C47.5735 293.733 47.5244 294.029 47.4251 294.331C47.3304 294.627 47.197 294.924 47.0248 295.221C46.8571 295.517 46.6599 295.81 46.433 296.098C46.2106 296.385 45.9723 296.669 45.718 296.948L43.0616 299.848L48.0518 299.831ZM55.6376 295.076L55.6427 296.593C55.6454 297.409 55.5747 298.098 55.4308 298.659C55.2868 299.22 55.0787 299.671 54.8064 300.014C54.5341 300.357 54.2045 300.606 53.8176 300.763C53.4353 300.914 53.0026 300.991 52.5196 300.992C52.1367 300.994 51.7834 300.947 51.4595 300.852C51.1356 300.758 50.8435 300.606 50.583 300.397C50.3271 300.184 50.1074 299.907 49.924 299.566C49.7406 299.224 49.6002 298.81 49.5029 298.323C49.4055 297.835 49.3558 297.266 49.3536 296.614L49.3486 295.097C49.3459 294.281 49.4165 293.597 49.5605 293.045C49.7091 292.493 49.9195 292.051 50.1919 291.717C50.4642 291.379 50.7915 291.136 51.1738 290.989C51.5607 290.842 51.9934 290.768 52.4719 290.766C52.8593 290.765 53.2149 290.811 53.5388 290.906C53.8672 290.996 54.1594 291.143 54.4153 291.347C54.6711 291.547 54.8885 291.815 55.0674 292.152C55.2508 292.484 55.3911 292.891 55.4884 293.374C55.5857 293.857 55.6355 294.424 55.6376 295.076ZM54.3719 296.803L54.3654 294.868C54.364 294.422 54.3353 294.03 54.2795 293.693C54.2282 293.351 54.1521 293.06 54.051 292.818C53.9499 292.577 53.8217 292.382 53.6662 292.232C53.5154 292.082 53.3395 291.973 53.1388 291.905C52.9426 291.833 52.7214 291.797 52.4754 291.798C52.1746 291.799 51.9082 291.857 51.6761 291.972C51.4441 292.082 51.2487 292.258 51.09 292.5C50.9358 292.742 50.8184 293.059 50.7377 293.451C50.6569 293.844 50.6175 294.32 50.6194 294.881L50.6258 296.815C50.6273 297.262 50.6536 297.656 50.7049 297.997C50.7607 298.339 50.8415 298.635 50.9471 298.885C51.0528 299.131 51.181 299.333 51.3319 299.492C51.4829 299.651 51.6564 299.769 51.8527 299.846C52.0534 299.918 52.2746 299.954 52.5161 299.953C52.826 299.952 53.097 299.892 53.329 299.773C53.561 299.654 53.7541 299.468 53.9082 299.217C54.0669 298.962 54.1843 298.635 54.2604 298.239C54.3366 297.837 54.3737 297.359 54.3719 296.803ZM63.8017 299.779L63.8052 300.818L57.2906 300.84L57.2875 299.931L60.5362 296.29C60.9358 295.842 61.2444 295.463 61.4621 295.152C61.6844 294.837 61.8384 294.556 61.9242 294.31C62.0145 294.059 62.0592 293.804 62.0583 293.544C62.0573 293.216 61.9879 292.92 61.8503 292.656C61.7173 292.387 61.5206 292.174 61.2603 292.015C61 291.857 60.6853 291.778 60.3161 291.779C59.8741 291.781 59.5052 291.868 59.2096 292.042C58.9185 292.212 58.7005 292.45 58.5557 292.756C58.4109 293.061 58.3391 293.413 58.3405 293.809L57.0758 293.813C57.074 293.253 57.1953 292.74 57.4398 292.274C57.6844 291.808 58.0478 291.438 58.5299 291.163C59.0121 290.883 59.6063 290.742 60.3127 290.74C60.9416 290.738 61.4797 290.848 61.9271 291.07C62.3744 291.287 62.7172 291.596 62.9556 291.996C63.1984 292.392 63.3207 292.856 63.3225 293.389C63.3235 293.681 63.2743 293.977 63.1751 294.278C63.0803 294.575 62.9469 294.872 62.7747 295.168C62.607 295.465 62.4098 295.757 62.1829 296.045C61.9605 296.333 61.7222 296.617 61.4679 296.895L58.8115 299.796L63.8017 299.779ZM71.6767 299.753L71.6801 300.792L65.1655 300.814L65.1625 299.905L68.4112 296.264C68.8107 295.816 69.1194 295.437 69.3371 295.126C69.5593 294.811 69.7134 294.53 69.7991 294.284C69.8894 294.033 69.9342 293.777 69.9333 293.518C69.9322 293.19 69.8629 292.894 69.7253 292.63C69.5922 292.361 69.3955 292.148 69.1353 291.989C68.875 291.83 68.5602 291.752 68.1911 291.753C67.7491 291.754 67.3802 291.842 67.0846 292.016C66.7934 292.186 66.5755 292.424 66.4307 292.729C66.2858 293.035 66.2141 293.386 66.2154 293.783L64.9508 293.787C64.9489 293.227 65.0703 292.713 65.3148 292.248C65.5594 291.782 65.9227 291.412 66.4049 291.137C66.887 290.857 67.4813 290.716 68.1877 290.714C68.8166 290.712 69.3547 290.822 69.802 291.043C70.2494 291.261 70.5922 291.57 70.8305 291.97C71.0734 292.365 71.1957 292.83 71.1974 293.363C71.1984 293.655 71.1493 293.951 71.05 294.252C70.9553 294.549 70.8218 294.845 70.6496 295.142C70.482 295.439 70.2847 295.731 70.0578 296.019C69.8355 296.307 69.5972 296.59 69.3429 296.869L66.6865 299.77L71.6767 299.753Z" fill="#212B32"/>
<path d="M296.379 298.16L296.355 291.112L297.668 291.108L297.691 298.156C297.693 298.812 297.561 299.366 297.293 299.818C297.026 300.27 296.656 300.615 296.183 300.854C295.714 301.088 295.174 301.206 294.564 301.208C293.953 301.21 293.41 301.107 292.936 300.899C292.461 300.691 292.089 300.373 291.818 299.946C291.548 299.518 291.412 298.979 291.41 298.327L292.729 298.322C292.73 298.742 292.809 299.086 292.965 299.354C293.121 299.622 293.335 299.82 293.609 299.947C293.888 300.073 294.205 300.136 294.56 300.135C294.907 300.134 295.216 300.06 295.489 299.913C295.767 299.762 295.985 299.54 296.143 299.248C296.302 298.951 296.38 298.588 296.379 298.16ZM304.265 299.33L304.246 293.643L305.517 293.638L305.542 301.035L304.332 301.039L304.265 299.33ZM304.499 297.771L305.025 297.755C305.027 298.247 304.976 298.703 304.872 299.123C304.773 299.538 304.611 299.899 304.384 300.205C304.157 300.511 303.859 300.751 303.491 300.925C303.122 301.095 302.673 301.181 302.145 301.183C301.785 301.184 301.454 301.133 301.153 301.029C300.856 300.925 300.601 300.764 300.386 300.546C300.171 300.328 300.004 300.044 299.884 299.693C299.769 299.343 299.71 298.921 299.709 298.429L299.693 293.658L300.958 293.654L300.974 298.439C300.975 298.771 301.012 299.047 301.086 299.265C301.164 299.479 301.267 299.65 301.395 299.777C301.528 299.9 301.674 299.986 301.833 300.035C301.998 300.085 302.166 300.11 302.339 300.109C302.877 300.107 303.303 300.003 303.617 299.797C303.93 299.586 304.155 299.305 304.291 298.954C304.431 298.598 304.5 298.204 304.499 297.771ZM308.715 295.207L308.734 301.024L307.469 301.028L307.445 293.632L308.641 293.628L308.715 295.207ZM308.42 297.047L307.894 297.028C307.897 296.522 307.97 296.055 308.115 295.626C308.259 295.192 308.463 294.816 308.726 294.496C308.989 294.176 309.303 293.929 309.667 293.755C310.036 293.576 310.443 293.485 310.89 293.484C311.254 293.483 311.583 293.532 311.875 293.631C312.167 293.726 312.415 293.88 312.621 294.093C312.832 294.307 312.992 294.584 313.103 294.926C313.213 295.263 313.269 295.675 313.271 296.163L313.287 301.009L312.015 301.013L311.999 296.153C311.998 295.766 311.94 295.456 311.825 295.224C311.71 294.987 311.544 294.817 311.324 294.713C311.105 294.604 310.836 294.55 310.517 294.552C310.203 294.553 309.916 294.62 309.657 294.753C309.402 294.886 309.181 295.069 308.995 295.302C308.814 295.535 308.671 295.802 308.567 296.103C308.468 296.399 308.419 296.714 308.42 297.047ZM325.062 299.931L325.065 300.97L318.55 300.992L318.547 300.083L321.796 296.442C322.196 295.994 322.504 295.615 322.722 295.304C322.944 294.989 323.098 294.708 323.184 294.462C323.274 294.211 323.319 293.955 323.318 293.696C323.317 293.367 323.248 293.071 323.11 292.808C322.977 292.539 322.78 292.326 322.52 292.167C322.26 292.008 321.945 291.93 321.576 291.931C321.134 291.932 320.765 292.02 320.469 292.194C320.178 292.364 319.96 292.602 319.816 292.907C319.671 293.213 319.599 293.564 319.6 293.961L318.336 293.965C318.334 293.405 318.455 292.891 318.7 292.426C318.944 291.96 319.308 291.59 319.79 291.315C320.272 291.035 320.866 290.894 321.573 290.892C322.201 290.89 322.74 291 323.187 291.221C323.634 291.439 323.977 291.747 324.215 292.148C324.458 292.543 324.581 293.008 324.582 293.541C324.583 293.833 324.534 294.129 324.435 294.43C324.34 294.727 324.207 295.023 324.035 295.32C323.867 295.617 323.67 295.909 323.443 296.197C323.22 296.485 322.982 296.768 322.728 297.047L320.071 299.948L325.062 299.931ZM332.647 295.175L332.652 296.693C332.655 297.509 332.585 298.197 332.441 298.758C332.297 299.319 332.088 299.771 331.816 300.114C331.544 300.456 331.214 300.706 330.827 300.862C330.445 301.014 330.012 301.09 329.529 301.092C329.147 301.093 328.793 301.047 328.469 300.952C328.145 300.857 327.853 300.706 327.593 300.497C327.337 300.284 327.117 300.006 326.934 299.665C326.75 299.324 326.61 298.91 326.513 298.422C326.415 297.935 326.366 297.366 326.363 296.714L326.358 295.196C326.356 294.381 326.426 293.697 326.57 293.145C326.719 292.593 326.929 292.15 327.202 291.816C327.474 291.478 327.801 291.236 328.184 291.089C328.571 290.941 329.003 290.867 329.482 290.866C329.869 290.864 330.225 290.911 330.549 291.006C330.877 291.096 331.169 291.243 331.425 291.447C331.681 291.647 331.898 291.915 332.077 292.251C332.261 292.584 332.401 292.991 332.498 293.474C332.596 293.956 332.645 294.524 332.647 295.175ZM331.382 296.902L331.375 294.968C331.374 294.521 331.345 294.129 331.289 293.792C331.238 293.451 331.162 293.159 331.061 292.918C330.96 292.677 330.831 292.481 330.676 292.331C330.525 292.181 330.349 292.073 330.149 292.005C329.952 291.933 329.731 291.897 329.485 291.898C329.184 291.899 328.918 291.957 328.686 292.071C328.454 292.181 328.258 292.358 328.1 292.6C327.946 292.842 327.828 293.159 327.747 293.551C327.667 293.943 327.627 294.42 327.629 294.98L327.636 296.915C327.637 297.361 327.663 297.755 327.715 298.097C327.771 298.439 327.851 298.735 327.957 298.985C328.063 299.231 328.191 299.433 328.342 299.592C328.493 299.751 328.666 299.869 328.862 299.946C329.063 300.018 329.284 300.054 329.526 300.053C329.836 300.052 330.107 299.992 330.339 299.873C330.571 299.753 330.764 299.568 330.918 299.317C331.077 299.061 331.194 298.735 331.27 298.338C331.346 297.937 331.383 297.458 331.382 296.902ZM340.812 299.879L340.815 300.918L334.3 300.939L334.297 300.03L337.546 296.39C337.946 295.942 338.254 295.562 338.472 295.252C338.694 294.937 338.848 294.656 338.934 294.409C339.024 294.158 339.069 293.903 339.068 293.643C339.067 293.315 338.998 293.019 338.86 292.755C338.727 292.487 338.53 292.273 338.27 292.115C338.01 291.956 337.695 291.877 337.326 291.879C336.884 291.88 336.515 291.968 336.219 292.142C335.928 292.312 335.71 292.549 335.566 292.855C335.421 293.161 335.349 293.512 335.35 293.909L334.086 293.913C334.084 293.352 334.205 292.839 334.45 292.373C334.694 291.908 335.058 291.537 335.54 291.262C336.022 290.983 336.616 290.842 337.322 290.84C337.951 290.837 338.49 290.947 338.937 291.169C339.384 291.386 339.727 291.695 339.965 292.095C340.208 292.491 340.331 292.956 340.332 293.489C340.333 293.78 340.284 294.077 340.185 294.378C340.09 294.674 339.957 294.971 339.784 295.268C339.617 295.565 339.42 295.857 339.193 296.145C338.97 296.433 338.732 296.716 338.478 296.995L335.821 299.895L340.812 299.879ZM343.752 296.171L342.74 295.914L343.222 290.957L348.329 290.94L348.333 292.109L344.299 292.122L344.008 294.83C344.19 294.725 344.419 294.626 344.697 294.534C344.979 294.442 345.303 294.395 345.667 294.394C346.128 294.392 346.54 294.471 346.905 294.629C347.271 294.783 347.581 295.005 347.837 295.296C348.098 295.587 348.297 295.937 348.436 296.347C348.574 296.756 348.644 297.214 348.645 297.72C348.647 298.199 348.582 298.639 348.451 299.04C348.325 299.441 348.133 299.793 347.874 300.095C347.615 300.392 347.288 300.623 346.892 300.788C346.5 300.954 346.038 301.037 345.505 301.039C345.104 301.04 344.723 300.987 344.363 300.879C344.007 300.766 343.687 300.596 343.404 300.369C343.125 300.138 342.896 299.851 342.718 299.51C342.543 299.164 342.432 298.759 342.385 298.294L343.588 298.29C343.644 298.664 343.755 298.978 343.92 299.233C344.085 299.487 344.299 299.68 344.564 299.812C344.834 299.938 345.146 300.001 345.501 300C345.802 299.999 346.069 299.946 346.301 299.84C346.533 299.735 346.728 299.583 346.887 299.387C347.046 299.19 347.166 298.953 347.247 298.675C347.333 298.397 347.375 298.084 347.374 297.738C347.373 297.423 347.328 297.132 347.241 296.863C347.154 296.595 347.023 296.36 346.849 296.161C346.68 295.961 346.472 295.806 346.225 295.698C345.979 295.585 345.696 295.529 345.377 295.53C344.953 295.531 344.632 295.589 344.414 295.704C344.2 295.818 343.98 295.974 343.752 296.171Z" fill="#212B32"/>
<line x1="36" y1="252.508" x2="335" y2="252.508" stroke="white"/>
<line x1="36" y1="255.811" x2="335" y2="255.811" stroke="white"/>
<line x1="36" y1="254.159" x2="335" y2="254.159" stroke="black" stroke-width="2"/>
<path d="M42.872 326H36.296V314.832H38.536V324.24H42.872V326ZM51.016 326H49.128C49.064 325.696 49.048 325.136 49.032 324.768H49C48.52 325.648 47.48 326.192 46.456 326.192C44.968 326.192 43.576 325.296 43.576 323.728C43.576 322.304 44.392 320.912 47.608 320.912H48.936V320.88C48.936 319.504 48.232 319.136 47.08 319.136C46.168 319.136 45.256 319.488 44.536 320.032L44.472 318.192C45.24 317.84 46.344 317.568 47.336 317.568C49.8 317.568 50.888 318.56 50.888 321.04V322.736C50.888 323.168 50.92 324.896 51.016 326ZM48.936 322.288V322.192H47.992C46.472 322.192 45.624 322.64 45.624 323.616C45.624 324.256 46.12 324.624 46.984 324.624C47.944 324.624 48.936 323.968 48.936 322.288ZM52.5466 325.84L52.6746 324.08C53.3466 324.416 54.0506 324.624 54.7866 324.624C55.3626 324.624 56.1946 324.4 56.1946 323.616C56.1946 322.928 55.5226 322.72 54.6586 322.48C53.2186 322.096 52.4666 321.504 52.4666 320.128C52.4666 318.464 53.8586 317.568 55.7146 317.568C56.3706 317.568 57.0106 317.632 58.0346 317.872L57.8906 319.488C57.1546 319.232 56.6586 319.136 55.9866 319.136C55.2346 319.136 54.7066 319.44 54.7066 320.048C54.7066 320.512 55.1546 320.736 56.1306 321.008C57.6666 321.44 58.4346 322.128 58.4346 323.504C58.4346 325.312 56.8826 326.192 54.9626 326.192C54.1786 326.192 53.3306 326.048 52.5466 325.84ZM64.936 324.304L65 326C64.552 326.128 64.056 326.192 63.432 326.192C61.688 326.192 60.808 325.104 60.808 323.52V319.328H59.224V317.76H60.808V316.112L62.952 315.424V317.76H64.856V319.328H62.952V323.152C62.952 324.016 63.224 324.528 63.976 324.528C64.344 324.528 64.712 324.448 64.936 324.304ZM70.3919 325.824L70.5199 323.92C71.3359 324.24 72.1519 324.432 72.9839 324.432C74.0559 324.432 75.3519 323.92 75.3519 322.848C75.3519 321.68 74.5199 321.104 72.9039 321.104H71.7999V319.344H72.8879C74.3119 319.344 75.3039 318.832 75.3039 317.872C75.3039 316.912 74.6319 316.4 73.3679 316.4C72.5199 316.4 71.6559 316.608 70.8719 316.992L70.7439 315.2C71.6399 314.848 72.7119 314.64 73.8479 314.64C75.6719 314.64 77.5439 315.376 77.5439 317.504C77.5439 318.784 76.8879 319.632 75.4639 320.176V320.208C76.8079 320.384 77.5919 321.408 77.5919 322.864C77.5919 325.104 75.8319 326.192 73.2879 326.192C72.3279 326.192 71.2399 326.064 70.3919 325.824ZM83.7036 329.328L83.8476 327.744C84.1676 327.856 84.5036 327.888 84.9356 327.888C85.8476 327.888 86.3436 327.264 86.3436 326.416L83.1916 317.76H85.5596L87.5436 323.776H87.5756L89.5596 317.76H91.7356L88.2796 326.912C87.6556 328.544 86.9516 329.552 85.1916 329.552C84.7116 329.552 84.1996 329.472 83.7036 329.328ZM99.6183 323.792V325.536C98.8343 325.968 97.9383 326.192 96.8023 326.192C94.0663 326.192 92.4823 324.624 92.4823 321.92C92.4823 319.616 93.6823 317.568 96.3063 317.568C99.1063 317.568 100.226 319.296 100.226 322.544H94.5303C94.6263 323.84 95.5063 324.624 96.8983 324.624C97.9223 324.624 98.8183 324.24 99.6183 323.792ZM94.5303 321.072H98.1783C98.0983 319.888 97.5383 319.136 96.4183 319.136C95.3463 319.136 94.6423 319.84 94.5303 321.072ZM108.813 326H106.925C106.861 325.696 106.845 325.136 106.829 324.768H106.797C106.317 325.648 105.277 326.192 104.253 326.192C102.765 326.192 101.373 325.296 101.373 323.728C101.373 322.304 102.189 320.912 105.405 320.912H106.733V320.88C106.733 319.504 106.029 319.136 104.877 319.136C103.965 319.136 103.053 319.488 102.333 320.032L102.269 318.192C103.037 317.84 104.141 317.568 105.133 317.568C107.597 317.568 108.685 318.56 108.685 321.04V322.736C108.685 323.168 108.717 324.896 108.813 326ZM106.733 322.288V322.192H105.789C104.269 322.192 103.421 322.64 103.421 323.616C103.421 324.256 103.917 324.624 104.781 324.624C105.741 324.624 106.733 323.968 106.733 322.288ZM112.984 326H110.84V317.76H112.744V319.632H112.776C112.904 318.768 113.799 317.568 115.048 317.568C115.496 317.568 115.624 317.616 115.688 317.632V319.792C115.496 319.68 115.112 319.616 114.728 319.616C113.928 319.616 112.984 320.048 112.984 322.608V326ZM116.562 325.84L116.69 324.08C117.362 324.416 118.066 324.624 118.802 324.624C119.378 324.624 120.21 324.4 120.21 323.616C120.21 322.928 119.538 322.72 118.674 322.48C117.234 322.096 116.482 321.504 116.482 320.128C116.482 318.464 117.874 317.568 119.73 317.568C120.386 317.568 121.026 317.632 122.05 317.872L121.906 319.488C121.17 319.232 120.674 319.136 120.002 319.136C119.25 319.136 118.722 319.44 118.722 320.048C118.722 320.512 119.17 320.736 120.146 321.008C121.682 321.44 122.45 322.128 122.45 323.504C122.45 325.312 120.898 326.192 118.978 326.192C118.194 326.192 117.346 326.048 116.562 325.84Z" fill="#212B32"/>
<line x1="36" y1="103.508" x2="335" y2="103.508" stroke="white"/>
<line x1="36" y1="106.811" x2="335" y2="106.811" stroke="white"/>
<line x1="36" y1="105.159" x2="335" y2="105.159" stroke="black" stroke-width="2"/>
<line x1="57.0673" y1="227.253" x2="179.067" y2="238.253" stroke="#212B32" stroke-width="1.5"/>
<line x1="309.125" y1="217.739" x2="179.125" y2="239.739" stroke="#212B32" stroke-width="1.5"/>
<line x1="40.376" y1="251.584" x2="56.376" y2="227.584" stroke="#212B32" stroke-width="1.5"/>
<circle cx="179" cy="239" r="6.75" fill="black" stroke="white" stroke-width="1.5"/>
<circle cx="309" cy="217" r="6.75" fill="black" stroke="white" stroke-width="1.5"/>
<circle cx="41" cy="252" r="6.75" fill="black" stroke="white" stroke-width="1.5"/>
<circle cx="57" cy="228" r="6.75" fill="black" stroke="white" stroke-width="1.5"/>
<rect x="0.5" y="348.5" width="233" height="97.0004" stroke="#D8DDE0"/>
<rect x="10" y="358" width="24" height="24" fill="#FFB81C"/>
<path d="M10 384H34" stroke="black" stroke-width="2"/>
<rect x="10" y="386" width="24" height="24" fill="#00A499"/>
<mask id="mask0_1695_3820" style="mask-type:alpha" maskUnits="userSpaceOnUse" x="10" y="386" width="25" height="24">
<path opacity="0.4" d="M10.2113 386V391.196L16.4022 386H10.2601L10.2113 386Z" fill="#F0F4F5"/>
<path opacity="0.4" d="M10.2115 397.393V403.59L28.6866 386H22.5445L10.2115 397.393Z" fill="#F0F4F5"/>
<path opacity="0.4" d="M10 410H16.1422L34.0002 393.033V386.836L10 410Z" fill="#F0F4F5"/>
<path opacity="0.4" d="M22.2847 410H28.4269L33.927 405.5V399.303L22.2847 410Z" fill="#F0F4F5"/>
</mask>
<g mask="url(#mask0_1695_3820)">
<rect opacity="0.5" width="23.7887" height="24" transform="matrix(1 0 0 -1 10.2113 410)" fill="#F0F4F5"/>
</g>
<circle cx="22.0001" cy="424" r="6.75" fill="black" stroke="white" stroke-width="1.5"/>
<path d="M48.224 376.192C44.912 376.192 42.848 373.904 42.848 370.416C42.848 367.152 44.784 364.64 48.224 364.64C51.536 364.64 53.6 367.024 53.6 370.416C53.6 373.92 51.536 376.192 48.224 376.192ZM48.224 374.784C50.608 374.784 51.904 372.88 51.904 370.416C51.904 368.176 50.736 366.048 48.208 366.048C45.856 366.048 44.544 368.016 44.544 370.416C44.544 372.928 45.872 374.784 48.224 374.784ZM62.9491 376H61.4931V374.704H61.4611C61.0611 375.552 60.0211 376.192 58.7891 376.192C56.7411 376.192 55.7331 374.944 55.7331 372.704V367.84H57.2371V372.24C57.2371 374.752 58.3411 374.976 59.0291 374.976C60.5331 374.976 61.4451 373.76 61.4451 371.632V367.84H62.9491V376ZM69.9784 374.688V375.968C69.5784 376.08 69.1624 376.192 68.6824 376.192C67.0024 376.192 66.1864 375.312 66.1864 373.84V369.056H64.3464V367.84H66.1864V365.952L67.6904 365.472V367.84H69.8504V369.056H67.6904V373.552C67.6904 374.304 68.1384 374.976 68.9544 374.976C69.4504 374.976 69.7704 374.816 69.9784 374.688ZM71.0451 375.744L71.1251 374.4C71.6371 374.736 72.4851 374.976 72.9971 374.976C73.7971 374.976 74.5331 374.624 74.5331 373.808C74.5331 373.36 74.2451 372.96 73.0611 372.432C71.3811 371.68 70.9971 370.976 70.9971 370.144C70.9971 368.448 72.2931 367.648 73.8771 367.648C74.5811 367.648 75.1571 367.792 75.7491 367.968L75.6211 369.28C75.3171 369.088 74.4211 368.864 74.0371 368.864C73.2211 368.864 72.5971 369.216 72.5971 369.856C72.5971 370.528 73.1571 370.864 74.1811 371.312C75.5731 371.92 76.1331 372.56 76.1331 373.648C76.1331 375.2 74.9811 376.192 73.2691 376.192C72.4051 376.192 71.6691 376.08 71.0451 375.744ZM79.7439 366.016H78.0479V364.32H79.7439V366.016ZM79.6479 376H78.1439V367.84H79.6479V376ZM89.621 376H88.181V374.848H88.149C87.589 375.68 86.565 376.192 85.365 376.192C82.949 376.192 81.861 374.08 81.861 371.776C81.861 369.584 83.013 367.648 85.381 367.648C86.597 367.648 87.541 368.064 88.085 368.96H88.117V364H89.621V376ZM85.717 374.976C87.381 374.976 88.117 373.344 88.117 371.936C88.117 370.496 87.397 368.864 85.685 368.864C84.181 368.864 83.461 370.208 83.461 371.808C83.461 373.6 84.325 374.976 85.717 374.976ZM98.4423 374.16V375.664C97.2583 376.144 96.5543 376.192 95.8823 376.192C93.1143 376.192 91.6423 374.592 91.6423 371.776C91.6423 369.312 93.1943 367.648 95.4663 367.648C97.8343 367.648 99.0663 369.152 99.0663 372.256H93.2423C93.2582 373.888 94.5063 374.976 95.9303 374.976C96.7943 374.976 97.9303 374.56 98.4423 374.16ZM93.2423 371.136H97.4663C97.4503 369.824 96.6983 368.864 95.4183 368.864C94.2183 368.864 93.4023 369.728 93.2423 371.136ZM107.034 376H105.53V367.84H106.938V369.104H106.97C107.386 368.224 108.25 367.648 109.114 367.648C109.434 367.648 109.722 367.68 110.09 367.76V369.104C109.818 368.992 109.514 368.96 109.258 368.96C107.882 368.96 107.034 370.288 107.034 372.288V376ZM118.005 374.16V375.664C116.821 376.144 116.117 376.192 115.445 376.192C112.677 376.192 111.205 374.592 111.205 371.776C111.205 369.312 112.757 367.648 115.029 367.648C117.397 367.648 118.629 369.152 118.629 372.256H112.805C112.821 373.888 114.069 374.976 115.493 374.976C116.357 374.976 117.493 374.56 118.005 374.16ZM112.805 371.136H117.029C117.013 369.824 116.261 368.864 114.981 368.864C113.781 368.864 112.965 369.728 112.805 371.136ZM123.119 376H121.615V369.056H119.695V367.84H121.615V367.04C121.615 364.896 122.303 363.808 124.351 363.808C124.671 363.808 124.975 363.84 125.359 363.904L125.295 365.12C125.119 365.056 124.815 365.024 124.575 365.024C123.487 365.024 123.119 365.584 123.119 366.832V367.84H125.279V369.056H123.119V376ZM133.114 374.16V375.664C131.93 376.144 131.226 376.192 130.554 376.192C127.786 376.192 126.314 374.592 126.314 371.776C126.314 369.312 127.866 367.648 130.138 367.648C132.506 367.648 133.738 369.152 133.738 372.256H127.914C127.93 373.888 129.178 374.976 130.602 374.976C131.466 374.976 132.602 374.56 133.114 374.16ZM127.914 371.136H132.138C132.122 369.824 131.37 368.864 130.09 368.864C128.89 368.864 128.074 369.728 127.914 371.136ZM137.253 376H135.749V367.84H137.157V369.104H137.189C137.605 368.224 138.469 367.648 139.333 367.648C139.653 367.648 139.941 367.68 140.309 367.76V369.104C140.037 368.992 139.733 368.96 139.477 368.96C138.101 368.96 137.253 370.288 137.253 372.288V376ZM148.224 374.16V375.664C147.04 376.144 146.336 376.192 145.664 376.192C142.896 376.192 141.424 374.592 141.424 371.776C141.424 369.312 142.976 367.648 145.248 367.648C147.616 367.648 148.848 369.152 148.848 372.256H143.024C143.039 373.888 144.288 374.976 145.712 374.976C146.576 374.976 147.712 374.56 148.224 374.16ZM143.024 371.136H147.248C147.232 369.824 146.48 368.864 145.2 368.864C144 368.864 143.184 369.728 143.024 371.136ZM158.074 376H156.57V371.584C156.57 369.44 155.786 368.864 154.778 368.864C153.21 368.864 152.362 370.16 152.362 372.208V376H150.858V367.84H152.314V369.136H152.346C152.842 368.176 153.882 367.648 155.018 367.648C157.066 367.648 158.074 368.896 158.074 371.12V376ZM165.903 374.512L166.015 375.856C165.503 376.08 164.959 376.192 164.127 376.192C161.647 376.192 159.967 374.24 159.967 371.92C159.967 369.424 161.631 367.648 164.127 367.648C164.719 367.648 165.519 367.792 165.951 367.968L165.823 369.216C165.247 368.976 164.687 368.864 164.191 368.864C162.543 368.864 161.567 370.336 161.567 371.92C161.567 373.392 162.367 374.976 164.287 374.976C164.799 374.976 165.439 374.816 165.903 374.512ZM174.005 374.16V375.664C172.821 376.144 172.117 376.192 171.445 376.192C168.677 376.192 167.205 374.592 167.205 371.776C167.205 369.312 168.757 367.648 171.029 367.648C173.397 367.648 174.629 369.152 174.629 372.256H168.805C168.821 373.888 170.069 374.976 171.493 374.976C172.357 374.976 173.493 374.56 174.005 374.16ZM168.805 371.136H173.029C173.013 369.824 172.261 368.864 170.981 368.864C169.781 368.864 168.965 369.728 168.805 371.136ZM182.597 376H181.093V367.84H182.501V369.104H182.533C182.949 368.224 183.812 367.648 184.677 367.648C184.997 367.648 185.285 367.68 185.653 367.76V369.104C185.381 368.992 185.077 368.96 184.821 368.96C183.445 368.96 182.597 370.288 182.597 372.288V376ZM193.727 376H192.319V374.944H192.287C191.711 375.744 190.815 376.192 189.743 376.192C187.855 376.192 186.767 375.296 186.767 373.648C186.767 371.92 188.415 370.96 190.671 370.96C191.311 370.96 191.823 370.976 192.159 370.992C192.159 369.504 191.567 368.864 190.143 368.864C189.327 368.864 188.431 369.152 187.775 369.696L187.695 368.416C188.447 367.968 189.343 367.648 190.383 367.648C192.639 367.648 193.663 368.72 193.663 371.008V374.592C193.663 375.088 193.679 375.616 193.727 376ZM192.159 372.832V372.112C192.159 372.112 191.487 372.08 191.183 372.08C189.487 372.08 188.367 372.592 188.367 373.648C188.367 374.432 189.087 374.976 189.903 374.976C191.311 374.976 192.159 374.096 192.159 372.832ZM203.418 376H201.914V371.584C201.914 369.44 201.13 368.864 200.122 368.864C198.554 368.864 197.706 370.16 197.706 372.208V376H196.202V367.84H197.658V369.136H197.69C198.186 368.176 199.226 367.648 200.362 367.648C202.41 367.648 203.418 368.896 203.418 371.12V376ZM211.695 375.536V374.736H211.663C211.023 375.568 209.999 376 208.927 376C206.591 376 205.439 374.096 205.439 371.984C205.439 369.76 206.719 367.648 209.087 367.648C210.367 367.648 211.279 368.064 211.775 369.056H211.807V367.84H213.199V375.664C213.199 378.16 211.871 379.552 208.991 379.552C207.951 379.552 207.215 379.376 206.063 378.992L206.223 377.6C207.455 378.176 208.159 378.336 209.151 378.336C210.751 378.336 211.695 377.264 211.695 375.536ZM209.311 374.784C210.639 374.784 211.695 373.632 211.695 372C211.695 370.304 210.895 368.864 209.311 368.864C207.839 368.864 207.039 370.416 207.039 371.904C207.039 373.504 207.951 374.784 209.311 374.784ZM222.02 374.16V375.664C220.836 376.144 220.132 376.192 219.46 376.192C216.692 376.192 215.22 374.592 215.22 371.776C215.22 369.312 216.772 367.648 219.044 367.648C221.412 367.648 222.644 369.152 222.644 372.256H216.82C216.836 373.888 218.084 374.976 219.508 374.976C220.372 374.976 221.508 374.56 222.02 374.16ZM216.82 371.136H221.044C221.028 369.824 220.276 368.864 218.996 368.864C217.796 368.864 216.98 369.728 216.82 371.136Z" fill="black"/>
<path d="M45.024 403H43.424V391.832H45.024V403ZM54.9491 403H53.4451V398.584C53.4451 396.44 52.6611 395.864 51.6531 395.864C50.0851 395.864 49.2371 397.16 49.2371 399.208V403H47.7331V394.84H49.1891V396.136H49.2211C49.7171 395.176 50.7571 394.648 51.8931 394.648C53.9411 394.648 54.9491 395.896 54.9491 398.12V403ZM56.8264 402.744L56.9064 401.4C57.4184 401.736 58.2664 401.976 58.7784 401.976C59.5784 401.976 60.3144 401.624 60.3144 400.808C60.3144 400.36 60.0264 399.96 58.8424 399.432C57.1624 398.68 56.7784 397.976 56.7784 397.144C56.7784 395.448 58.0744 394.648 59.6584 394.648C60.3624 394.648 60.9384 394.792 61.5304 394.968L61.4024 396.28C61.0984 396.088 60.2024 395.864 59.8184 395.864C59.0024 395.864 58.3784 396.216 58.3784 396.856C58.3784 397.528 58.9384 397.864 59.9624 398.312C61.3544 398.92 61.9144 399.56 61.9144 400.648C61.9144 402.2 60.7624 403.192 59.0504 403.192C58.1864 403.192 57.4504 403.08 56.8264 402.744ZM65.5251 393.016H63.8291V391.32H65.5251V393.016ZM65.4291 403H63.9251V394.84H65.4291V403ZM75.4023 403H73.9623V401.848H73.9303C73.3703 402.68 72.3463 403.192 71.1463 403.192C68.7303 403.192 67.6423 401.08 67.6423 398.776C67.6423 396.584 68.7943 394.648 71.1623 394.648C72.3783 394.648 73.3223 395.064 73.8663 395.96H73.8983V391H75.4023V403ZM71.4983 401.976C73.1623 401.976 73.8983 400.344 73.8983 398.936C73.8983 397.496 73.1783 395.864 71.4663 395.864C69.9623 395.864 69.2423 397.208 69.2423 398.808C69.2423 400.6 70.1063 401.976 71.4983 401.976ZM84.2235 401.16V402.664C83.0395 403.144 82.3355 403.192 81.6635 403.192C78.8955 403.192 77.4235 401.592 77.4235 398.776C77.4235 396.312 78.9755 394.648 81.2475 394.648C83.6155 394.648 84.8475 396.152 84.8475 399.256H79.0235C79.0395 400.888 80.2875 401.976 81.7115 401.976C82.5755 401.976 83.7115 401.56 84.2235 401.16ZM79.0235 398.136H83.2475C83.2315 396.824 82.4795 395.864 81.1995 395.864C79.9995 395.864 79.1835 396.728 79.0235 398.136ZM92.8153 403H91.3113V394.84H92.7193V396.104H92.7513C93.1673 395.224 94.0312 394.648 94.8953 394.648C95.2153 394.648 95.5033 394.68 95.8713 394.76V396.104C95.5993 395.992 95.2953 395.96 95.0393 395.96C93.6633 395.96 92.8153 397.288 92.8153 399.288V403ZM103.786 401.16V402.664C102.602 403.144 101.898 403.192 101.226 403.192C98.458 403.192 96.986 401.592 96.986 398.776C96.986 396.312 98.538 394.648 100.81 394.648C103.178 394.648 104.41 396.152 104.41 399.256H98.586C98.602 400.888 99.85 401.976 101.274 401.976C102.138 401.976 103.274 401.56 103.786 401.16ZM98.586 398.136H102.81C102.794 396.824 102.042 395.864 100.762 395.864C99.562 395.864 98.746 396.728 98.586 398.136ZM108.901 403H107.397V396.056H105.477V394.84H107.397V394.04C107.397 391.896 108.085 390.808 110.133 390.808C110.453 390.808 110.757 390.84 111.141 390.904L111.077 392.12C110.901 392.056 110.597 392.024 110.357 392.024C109.269 392.024 108.901 392.584 108.901 393.832V394.84H111.061V396.056H108.901V403ZM118.895 401.16V402.664C117.711 403.144 117.007 403.192 116.335 403.192C113.567 403.192 112.095 401.592 112.095 398.776C112.095 396.312 113.647 394.648 115.919 394.648C118.287 394.648 119.519 396.152 119.519 399.256H113.695C113.711 400.888 114.959 401.976 116.383 401.976C117.247 401.976 118.383 401.56 118.895 401.16ZM113.695 398.136H117.919C117.903 396.824 117.151 395.864 115.871 395.864C114.671 395.864 113.855 396.728 113.695 398.136ZM123.034 403H121.53V394.84H122.938V396.104H122.97C123.386 395.224 124.25 394.648 125.114 394.648C125.434 394.648 125.722 394.68 126.09 394.76V396.104C125.818 395.992 125.514 395.96 125.258 395.96C123.882 395.96 123.034 397.288 123.034 399.288V403ZM134.005 401.16V402.664C132.821 403.144 132.117 403.192 131.445 403.192C128.677 403.192 127.205 401.592 127.205 398.776C127.205 396.312 128.757 394.648 131.029 394.648C133.397 394.648 134.629 396.152 134.629 399.256H128.805C128.821 400.888 130.069 401.976 131.493 401.976C132.357 401.976 133.493 401.56 134.005 401.16ZM128.805 398.136H133.029C133.013 396.824 132.261 395.864 130.981 395.864C129.781 395.864 128.965 396.728 128.805 398.136ZM143.855 403H142.351V398.584C142.351 396.44 141.567 395.864 140.559 395.864C138.991 395.864 138.143 397.16 138.143 399.208V403H136.639V394.84H138.095V396.136H138.127C138.623 395.176 139.663 394.648 140.799 394.648C142.847 394.648 143.855 395.896 143.855 398.12V403ZM151.685 401.512L151.797 402.856C151.285 403.08 150.741 403.192 149.909 403.192C147.429 403.192 145.749 401.24 145.749 398.92C145.749 396.424 147.413 394.648 149.909 394.648C150.501 394.648 151.301 394.792 151.733 394.968L151.605 396.216C151.029 395.976 150.469 395.864 149.973 395.864C148.325 395.864 147.349 397.336 147.349 398.92C147.349 400.392 148.149 401.976 150.069 401.976C150.581 401.976 151.221 401.816 151.685 401.512ZM159.786 401.16V402.664C158.602 403.144 157.898 403.192 157.226 403.192C154.458 403.192 152.986 401.592 152.986 398.776C152.986 396.312 154.538 394.648 156.81 394.648C159.178 394.648 160.41 396.152 160.41 399.256H154.586C154.602 400.888 155.85 401.976 157.274 401.976C158.138 401.976 159.274 401.56 159.786 401.16ZM154.586 398.136H158.81C158.794 396.824 158.042 395.864 156.762 395.864C155.562 395.864 154.746 396.728 154.586 398.136ZM168.378 403H166.874V394.84H168.282V396.104H168.314C168.73 395.224 169.594 394.648 170.458 394.648C170.778 394.648 171.066 394.68 171.434 394.76V396.104C171.162 395.992 170.858 395.96 170.602 395.96C169.226 395.96 168.378 397.288 168.378 399.288V403ZM179.509 403H178.101V401.944H178.069C177.493 402.744 176.597 403.192 175.525 403.192C173.637 403.192 172.549 402.296 172.549 400.648C172.549 398.92 174.197 397.96 176.453 397.96C177.093 397.96 177.605 397.976 177.941 397.992C177.941 396.504 177.349 395.864 175.924 395.864C175.109 395.864 174.213 396.152 173.557 396.696L173.477 395.416C174.229 394.968 175.125 394.648 176.165 394.648C178.421 394.648 179.445 395.72 179.445 398.008V401.592C179.445 402.088 179.461 402.616 179.509 403ZM177.941 399.832V399.112C177.941 399.112 177.269 399.08 176.965 399.08C175.269 399.08 174.149 399.592 174.149 400.648C174.149 401.432 174.869 401.976 175.685 401.976C177.093 401.976 177.941 401.096 177.941 399.832ZM189.199 403H187.695V398.584C187.695 396.44 186.911 395.864 185.903 395.864C184.335 395.864 183.487 397.16 183.487 399.208V403H181.983V394.84H183.439V396.136H183.471C183.967 395.176 185.007 394.648 186.143 394.648C188.191 394.648 189.199 395.896 189.199 398.12V403ZM197.476 402.536V401.736H197.444C196.804 402.568 195.78 403 194.708 403C192.372 403 191.22 401.096 191.22 398.984C191.22 396.76 192.5 394.648 194.868 394.648C196.148 394.648 197.06 395.064 197.556 396.056H197.588V394.84H198.98V402.664C198.98 405.16 197.652 406.552 194.772 406.552C193.732 406.552 192.996 406.376 191.844 405.992L192.004 404.6C193.236 405.176 193.94 405.336 194.932 405.336C196.532 405.336 197.476 404.264 197.476 402.536ZM195.092 401.784C196.42 401.784 197.476 400.632 197.476 399C197.476 397.304 196.676 395.864 195.092 395.864C193.62 395.864 192.82 397.416 192.82 398.904C192.82 400.504 193.732 401.784 195.092 401.784ZM207.802 401.16V402.664C206.618 403.144 205.914 403.192 205.242 403.192C202.474 403.192 201.002 401.592 201.002 398.776C201.002 396.312 202.554 394.648 204.826 394.648C207.194 394.648 208.426 396.152 208.426 399.256H202.602C202.618 400.888 203.866 401.976 205.29 401.976C206.154 401.976 207.29 401.56 207.802 401.16ZM202.602 398.136H206.826C206.81 396.824 206.058 395.864 204.778 395.864C203.578 395.864 202.762 396.728 202.602 398.136Z" fill="black"/>
<path d="M48.144 430H46.544V425.328L42.176 418.832H44.048L47.376 423.84L50.624 418.832H52.496L48.144 425.328V430ZM55.9894 430.192C53.5894 430.192 51.8454 428.288 51.8454 425.92C51.8454 423.424 53.5094 421.648 56.0054 421.648C58.3894 421.648 60.1494 423.344 60.1494 425.92C60.1494 428.208 58.5014 430.192 55.9894 430.192ZM56.0054 428.976C57.6854 428.976 58.5494 427.504 58.5494 425.92C58.5494 424.304 57.5734 422.864 55.9894 422.864C54.4214 422.864 53.4454 424.352 53.4454 425.92C53.4454 427.488 54.3094 428.976 56.0054 428.976ZM69.3866 430H67.9306V428.704H67.8986C67.4986 429.552 66.4586 430.192 65.2266 430.192C63.1786 430.192 62.1706 428.944 62.1706 426.704V421.84H63.6746V426.24C63.6746 428.752 64.7786 428.976 65.4666 428.976C66.9706 428.976 67.8826 427.76 67.8826 425.632V421.84H69.3866V430ZM73.4559 430H71.9519V421.84H73.3599V423.104H73.3919C73.8079 422.224 74.6719 421.648 75.5359 421.648C75.8559 421.648 76.1439 421.68 76.5119 421.76V423.104C76.2399 422.992 75.9359 422.96 75.6799 422.96C74.3039 422.96 73.4559 424.288 73.4559 426.288V430ZM84.1278 430H82.6238V421.84H84.0318V423.104H84.0638C84.4798 422.224 85.3438 421.648 86.2078 421.648C86.5278 421.648 86.8158 421.68 87.1838 421.76V423.104C86.9118 422.992 86.6078 422.96 86.3518 422.96C84.9758 422.96 84.1278 424.288 84.1278 426.288V430ZM95.0985 428.16V429.664C93.9145 430.144 93.2105 430.192 92.5385 430.192C89.7705 430.192 88.2985 428.592 88.2985 425.776C88.2985 423.312 89.8505 421.648 92.1225 421.648C94.4905 421.648 95.7225 423.152 95.7225 426.256H89.8985C89.9145 427.888 91.1625 428.976 92.5865 428.976C93.4505 428.976 94.5865 428.56 95.0985 428.16ZM89.8985 425.136H94.1225C94.1065 423.824 93.3545 422.864 92.0745 422.864C90.8745 422.864 90.0585 423.728 89.8985 425.136ZM97.0451 429.744L97.1251 428.4C97.6371 428.736 98.4851 428.976 98.9971 428.976C99.7971 428.976 100.533 428.624 100.533 427.808C100.533 427.36 100.245 426.96 99.0611 426.432C97.3811 425.68 96.9971 424.976 96.9971 424.144C96.9971 422.448 98.2931 421.648 99.8771 421.648C100.581 421.648 101.157 421.792 101.749 421.968L101.621 423.28C101.317 423.088 100.421 422.864 100.037 422.864C99.2211 422.864 98.5971 423.216 98.5971 423.856C98.5971 424.528 99.1571 424.864 100.181 425.312C101.573 425.92 102.133 426.56 102.133 427.648C102.133 429.2 100.981 430.192 99.2691 430.192C98.4051 430.192 97.6691 430.08 97.0451 429.744ZM111.168 430H109.712V428.704H109.68C109.28 429.552 108.24 430.192 107.008 430.192C104.96 430.192 103.952 428.944 103.952 426.704V421.84H105.456V426.24C105.456 428.752 106.56 428.976 107.248 428.976C108.752 428.976 109.664 427.76 109.664 425.632V421.84H111.168V430ZM115.429 430H113.925V418H115.429V430ZM122.65 428.688V429.968C122.25 430.08 121.834 430.192 121.354 430.192C119.674 430.192 118.858 429.312 118.858 427.84V423.056H117.018V421.84H118.858V419.952L120.362 419.472V421.84H122.522V423.056H120.362V427.552C120.362 428.304 120.81 428.976 121.626 428.976C122.122 428.976 122.442 428.816 122.65 428.688Z" fill="black"/>
</svg>
