<svg width="24" height="24" viewBox="0 0 24 24" fill="none" xmlns="http://www.w3.org/2000/svg">
<path d="M19.4399 5.3099C19.4024 5.2199 19.3499 5.1374 19.2749 5.0624C19.1999 4.9874 19.1174 4.9349 19.0274 4.8974C18.9374 4.8599 18.8474 4.8449 18.7424 4.8374H14.2424C13.8299 4.8374 13.4924 5.1749 13.4924 5.5874C13.4924 5.9999 13.8299 6.3374 14.2424 6.3374H16.9349L11.4674 11.8049C11.1749 12.0974 11.1749 12.5699 11.4674 12.8624C11.6174 13.0124 11.8049 13.0799 11.9999 13.0799C12.1949 13.0799 12.3824 13.0049 12.5324 12.8624L17.9999 7.3949V10.0874C17.9999 10.4999 18.3374 10.8374 18.7499 10.8374C19.1624 10.8374 19.4999 10.4999 19.4999 10.0874V5.5874C19.4999 5.4824 19.4774 5.3924 19.4399 5.3024V5.3099Z" fill="#005EB8"/>
<path d="M18.75 12.345C18.3375 12.345 18 12.6825 18 13.095V17.595C18 18.0075 17.6625 18.345 17.25 18.345H6.75C6.3375 18.345 6 18.0075 6 17.595V7.09497C6 6.68247 6.3375 6.34497 6.75 6.34497H11.25C11.6625 6.34497 12 6.00747 12 5.59497C12 5.18247 11.6625 4.84497 11.25 4.84497H6.75C5.5125 4.84497 4.5 5.85747 4.5 7.09497V17.595C4.5 18.8325 5.5125 19.845 6.75 19.845H17.25C18.4875 19.845 19.5 18.8325 19.5 17.595V13.095C19.5 12.6825 19.1625 12.345 18.75 12.345Z" fill="#005EB8"/>
</svg>
